<svg width="331" height="197" viewBox="0 0 331 197" fill="none" xmlns="http://www.w3.org/2000/svg">
<g clip-path="url(#clip0_225_839)">
<circle cx="165.487" cy="98.4868" r="15.9145" fill="#D9D9D9" fill-opacity="0.2"/>
<circle cx="165.487" cy="98.4867" r="79.5723" fill="#D9D9D9" fill-opacity="0.2"/>
<circle cx="165.487" cy="98.4867" r="63.6578" fill="#D9D9D9" fill-opacity="0.2"/>
<circle cx="165.487" cy="98.4867" r="47.7434" fill="#D9D9D9" fill-opacity="0.2"/>
<circle cx="165.487" cy="98.4868" r="31.8289" fill="#D9D9D9" fill-opacity="0.2"/>
<line x1="165.287" y1="194" x2="165.287" y2="3" stroke="white" stroke-opacity="0.6" stroke-width="0.4"/>
<line x1="70" y1="98.2868" x2="261" y2="98.2868" stroke="white" stroke-opacity="0.6" stroke-width="0.4"/>
<line x1="70.1414" y1="2.85858" x2="261.115" y2="193.832" stroke="white" stroke-opacity="0.6" stroke-width="0.4"/>
<line x1="69.8586" y1="193.832" x2="260.832" y2="2.85859" stroke="white" stroke-opacity="0.6" stroke-width="0.4"/>
<path d="M187.474 103.751L187.464 103.752L187.453 103.754L177.064 105.752C175.383 106.076 174.06 107.376 173.708 109.05L172.255 115.948L172.252 115.962L172.251 115.976L168.674 153.176C168.307 156.991 163.129 157.864 161.532 154.38L152.297 134.229C151.604 132.719 150.095 131.75 148.433 131.75H135C132.929 131.75 131.25 130.071 131.25 128V114.614C131.25 113.209 130.555 111.894 129.394 111.103L116.402 102.244C113.744 100.432 114.453 96.3323 117.566 95.5181L141.556 89.2437L151.625 87.23C153.203 86.9143 154.468 85.7338 154.892 84.1808L157.241 75.5674L157.241 75.5658L162.604 56.4137C163.33 53.8201 166.472 52.815 168.569 54.5058L178.474 62.4938C179.078 62.9809 179.804 63.2933 180.573 63.3973L194.502 65.2796C196.362 65.531 197.75 67.1188 197.75 68.9958V80.9915C197.75 82.3343 198.385 83.5981 199.462 84.4001L213.112 94.5652C215.854 96.6071 214.657 100.953 211.256 101.303L187.474 103.751Z" fill="#FF9CFB" fill-opacity="0.2" stroke="#FF9CFB" stroke-width="0.5"/>
<path d="M156.611 12.12C156.003 12.128 155.475 12.032 155.027 11.832C154.579 11.632 154.151 11.332 153.743 10.932C153.703 10.9 153.667 10.86 153.635 10.812C153.611 10.764 153.599 10.708 153.599 10.644C153.599 10.548 153.635 10.46 153.707 10.38C153.787 10.3 153.875 10.26 153.971 10.26C154.067 10.26 154.155 10.3 154.235 10.38C154.547 10.716 154.899 10.972 155.291 11.148C155.691 11.324 156.119 11.412 156.575 11.412C156.959 11.412 157.299 11.352 157.595 11.232C157.899 11.112 158.139 10.94 158.315 10.716C158.491 10.492 158.579 10.232 158.579 9.936C158.579 9.568 158.479 9.272 158.279 9.048C158.079 8.816 157.815 8.628 157.487 8.484C157.159 8.332 156.795 8.196 156.395 8.076C156.067 7.98 155.755 7.872 155.459 7.752C155.163 7.624 154.899 7.472 154.667 7.296C154.435 7.112 154.255 6.888 154.127 6.624C153.999 6.36 153.935 6.04 153.935 5.664C153.935 5.24 154.047 4.864 154.271 4.536C154.495 4.208 154.811 3.952 155.219 3.768C155.635 3.576 156.115 3.48 156.659 3.48C157.131 3.48 157.583 3.56 158.015 3.72C158.455 3.88 158.803 4.116 159.059 4.428C159.179 4.556 159.239 4.672 159.239 4.776C159.239 4.856 159.199 4.936 159.119 5.016C159.039 5.096 158.951 5.136 158.855 5.136C158.775 5.136 158.707 5.108 158.651 5.052C158.515 4.884 158.343 4.736 158.135 4.608C157.927 4.472 157.695 4.368 157.439 4.296C157.191 4.224 156.931 4.188 156.659 4.188C156.283 4.188 155.943 4.248 155.639 4.368C155.343 4.48 155.107 4.644 154.931 4.86C154.763 5.076 154.679 5.336 154.679 5.64C154.679 5.976 154.775 6.252 154.967 6.468C155.159 6.684 155.411 6.864 155.723 7.008C156.035 7.144 156.367 7.272 156.719 7.392C157.063 7.488 157.391 7.6 157.703 7.728C158.023 7.848 158.303 8 158.543 8.184C158.791 8.368 158.983 8.6 159.119 8.88C159.263 9.16 159.335 9.512 159.335 9.936C159.335 10.344 159.219 10.712 158.987 11.04C158.755 11.368 158.435 11.628 158.027 11.82C157.627 12.012 157.155 12.112 156.611 12.12ZM162.353 3.6H166.757C166.853 3.6 166.937 3.636 167.009 3.708C167.081 3.772 167.117 3.856 167.117 3.96C167.117 4.064 167.081 4.148 167.009 4.212C166.937 4.276 166.853 4.308 166.757 4.308H162.629L162.749 4.104V7.476L162.617 7.32H166.217C166.313 7.32 166.397 7.356 166.469 7.428C166.541 7.5 166.577 7.584 166.577 7.68C166.577 7.784 166.541 7.868 166.469 7.932C166.397 7.996 166.313 8.028 166.217 8.028H162.641L162.749 7.908V11.364L162.689 11.292H166.757C166.853 11.292 166.937 11.328 167.009 11.4C167.081 11.472 167.117 11.556 167.117 11.652C167.117 11.756 167.081 11.84 167.009 11.904C166.937 11.968 166.853 12 166.757 12H162.353C162.257 12 162.173 11.964 162.101 11.892C162.029 11.82 161.993 11.736 161.993 11.64V3.96C161.993 3.864 162.029 3.78 162.101 3.708C162.173 3.636 162.257 3.6 162.353 3.6ZM177.262 7.8C177.262 8.432 177.162 9.012 176.962 9.54C176.77 10.06 176.494 10.516 176.134 10.908C175.774 11.292 175.346 11.592 174.85 11.808C174.362 12.016 173.826 12.12 173.242 12.12C172.658 12.12 172.118 12.016 171.622 11.808C171.134 11.592 170.71 11.292 170.35 10.908C169.99 10.516 169.71 10.06 169.51 9.54C169.318 9.012 169.222 8.432 169.222 7.8C169.222 7.168 169.318 6.592 169.51 6.072C169.71 5.544 169.99 5.088 170.35 4.704C170.71 4.312 171.134 4.012 171.622 3.804C172.118 3.588 172.658 3.48 173.242 3.48C173.826 3.48 174.362 3.588 174.85 3.804C175.346 4.012 175.774 4.312 176.134 4.704C176.494 5.088 176.77 5.544 176.962 6.072C177.162 6.592 177.262 7.168 177.262 7.8ZM176.494 7.8C176.494 7.088 176.354 6.464 176.074 5.928C175.802 5.384 175.422 4.96 174.934 4.656C174.446 4.352 173.882 4.2 173.242 4.2C172.61 4.2 172.046 4.352 171.55 4.656C171.062 4.96 170.678 5.384 170.398 5.928C170.126 6.464 169.99 7.088 169.99 7.8C169.99 8.512 170.126 9.14 170.398 9.684C170.678 10.22 171.062 10.64 171.55 10.944C172.046 11.248 172.61 11.4 173.242 11.4C173.882 11.4 174.446 11.248 174.934 10.944C175.422 10.64 175.802 10.22 176.074 9.684C176.354 9.14 176.494 8.512 176.494 7.8Z" fill="#333333"/>
<path d="M119.335 185.6C119.783 185.6 120.179 185.704 120.523 185.912C120.867 186.112 121.139 186.392 121.339 186.752C121.539 187.112 121.639 187.524 121.639 187.988C121.639 188.452 121.539 188.872 121.339 189.248C121.139 189.616 120.867 189.908 120.523 190.124C120.179 190.34 119.783 190.448 119.335 190.448H116.791L116.851 190.328V193.64C116.851 193.736 116.815 193.82 116.743 193.892C116.671 193.964 116.587 194 116.491 194C116.379 194 116.291 193.964 116.227 193.892C116.163 193.82 116.131 193.736 116.131 193.64V185.96C116.131 185.864 116.167 185.78 116.239 185.708C116.311 185.636 116.395 185.6 116.491 185.6H119.335ZM119.335 189.752C119.647 189.752 119.919 189.676 120.151 189.524C120.383 189.364 120.563 189.152 120.691 188.888C120.827 188.616 120.895 188.316 120.895 187.988C120.895 187.66 120.827 187.372 120.691 187.124C120.563 186.868 120.383 186.668 120.151 186.524C119.919 186.38 119.647 186.308 119.335 186.308H116.791L116.851 186.2V189.824L116.779 189.752H119.335ZM126.714 194.12C126.098 194.12 125.554 193.988 125.082 193.724C124.61 193.46 124.242 193.092 123.978 192.62C123.714 192.148 123.582 191.596 123.582 190.964C123.582 190.284 123.714 189.704 123.978 189.224C124.25 188.744 124.598 188.376 125.022 188.12C125.454 187.856 125.91 187.724 126.39 187.724C126.742 187.724 127.082 187.788 127.41 187.916C127.746 188.036 128.042 188.22 128.298 188.468C128.562 188.708 128.77 189.004 128.922 189.356C129.082 189.708 129.17 190.116 129.186 190.58C129.178 190.676 129.138 190.76 129.066 190.832C128.994 190.896 128.91 190.928 128.814 190.928H124.002L123.858 190.28H128.586L128.43 190.424V190.184C128.398 189.808 128.278 189.488 128.07 189.224C127.862 188.96 127.61 188.76 127.314 188.624C127.018 188.488 126.71 188.42 126.39 188.42C126.15 188.42 125.902 188.468 125.646 188.564C125.398 188.66 125.17 188.812 124.962 189.02C124.762 189.22 124.598 189.48 124.47 189.8C124.342 190.112 124.278 190.484 124.278 190.916C124.278 191.388 124.374 191.816 124.566 192.2C124.758 192.584 125.034 192.888 125.394 193.112C125.762 193.336 126.198 193.448 126.702 193.448C126.982 193.448 127.234 193.408 127.458 193.328C127.682 193.248 127.878 193.144 128.046 193.016C128.214 192.88 128.354 192.74 128.466 192.596C128.554 192.524 128.642 192.488 128.73 192.488C128.81 192.488 128.878 192.52 128.934 192.584C128.998 192.648 129.03 192.72 129.03 192.8C129.03 192.896 128.99 192.98 128.91 193.052C128.67 193.34 128.358 193.592 127.974 193.808C127.59 194.016 127.17 194.12 126.714 194.12ZM132.048 194C131.936 194 131.848 193.964 131.784 193.892C131.72 193.82 131.688 193.736 131.688 193.64V188.264C131.688 188.168 131.72 188.084 131.784 188.012C131.856 187.94 131.944 187.904 132.048 187.904C132.152 187.904 132.236 187.94 132.3 188.012C132.372 188.084 132.408 188.168 132.408 188.264V190.064L132.228 190.1C132.252 189.82 132.32 189.544 132.432 189.272C132.552 188.992 132.712 188.736 132.912 188.504C133.112 188.272 133.348 188.084 133.62 187.94C133.9 187.796 134.212 187.724 134.556 187.724C134.7 187.724 134.84 187.756 134.976 187.82C135.112 187.876 135.18 187.972 135.18 188.108C135.18 188.228 135.148 188.32 135.084 188.384C135.02 188.448 134.944 188.48 134.856 188.48C134.784 188.48 134.704 188.46 134.616 188.42C134.536 188.38 134.428 188.36 134.292 188.36C134.068 188.36 133.844 188.428 133.62 188.564C133.396 188.692 133.192 188.868 133.008 189.092C132.824 189.316 132.676 189.568 132.564 189.848C132.46 190.12 132.408 190.396 132.408 190.676V193.64C132.408 193.736 132.372 193.82 132.3 193.892C132.228 193.964 132.144 194 132.048 194ZM136.917 193.028C136.853 192.932 136.821 192.84 136.821 192.752C136.829 192.656 136.881 192.58 136.977 192.524C137.041 192.468 137.113 192.444 137.193 192.452C137.281 192.46 137.361 192.5 137.433 192.572C137.649 192.852 137.909 193.08 138.213 193.256C138.525 193.424 138.893 193.508 139.317 193.508C139.541 193.508 139.761 193.472 139.977 193.4C140.201 193.32 140.385 193.204 140.529 193.052C140.673 192.892 140.745 192.692 140.745 192.452C140.745 192.204 140.673 192.004 140.529 191.852C140.385 191.7 140.197 191.58 139.965 191.492C139.741 191.404 139.501 191.328 139.245 191.264C138.973 191.192 138.709 191.112 138.453 191.024C138.197 190.928 137.969 190.812 137.769 190.676C137.577 190.532 137.421 190.36 137.301 190.16C137.181 189.96 137.121 189.716 137.121 189.428C137.121 189.092 137.213 188.796 137.397 188.54C137.581 188.284 137.829 188.084 138.141 187.94C138.461 187.796 138.821 187.724 139.221 187.724C139.421 187.724 139.637 187.752 139.869 187.808C140.101 187.856 140.329 187.94 140.553 188.06C140.777 188.18 140.977 188.344 141.153 188.552C141.225 188.624 141.261 188.708 141.261 188.804C141.261 188.892 141.221 188.972 141.141 189.044C141.077 189.092 141.001 189.116 140.913 189.116C140.833 189.116 140.765 189.084 140.709 189.02C140.517 188.804 140.289 188.64 140.025 188.528C139.761 188.416 139.477 188.36 139.173 188.36C138.941 188.36 138.721 188.4 138.513 188.48C138.313 188.552 138.145 188.664 138.009 188.816C137.873 188.968 137.805 189.168 137.805 189.416C137.821 189.648 137.901 189.836 138.045 189.98C138.197 190.124 138.393 190.244 138.633 190.34C138.881 190.436 139.157 190.524 139.461 190.604C139.717 190.668 139.961 190.744 140.193 190.832C140.433 190.92 140.641 191.032 140.817 191.168C141.001 191.296 141.145 191.46 141.249 191.66C141.361 191.86 141.417 192.112 141.417 192.416C141.417 192.768 141.317 193.072 141.117 193.328C140.925 193.584 140.665 193.78 140.337 193.916C140.009 194.052 139.645 194.12 139.245 194.12C138.813 194.12 138.393 194.036 137.985 193.868C137.585 193.7 137.229 193.42 136.917 193.028ZM149.562 190.928C149.562 191.536 149.43 192.084 149.166 192.572C148.902 193.052 148.542 193.432 148.086 193.712C147.63 193.984 147.11 194.12 146.526 194.12C145.958 194.12 145.442 193.984 144.978 193.712C144.522 193.432 144.158 193.052 143.886 192.572C143.622 192.084 143.49 191.536 143.49 190.928C143.49 190.312 143.622 189.764 143.886 189.284C144.158 188.804 144.522 188.424 144.978 188.144C145.442 187.864 145.958 187.724 146.526 187.724C147.11 187.724 147.63 187.864 148.086 188.144C148.542 188.424 148.902 188.804 149.166 189.284C149.43 189.764 149.562 190.312 149.562 190.928ZM148.842 190.928C148.842 190.44 148.742 190.008 148.542 189.632C148.342 189.248 148.066 188.948 147.714 188.732C147.37 188.508 146.974 188.396 146.526 188.396C146.094 188.396 145.702 188.508 145.35 188.732C144.998 188.948 144.718 189.248 144.51 189.632C144.31 190.008 144.21 190.44 144.21 190.928C144.21 191.416 144.31 191.848 144.51 192.224C144.718 192.6 144.998 192.9 145.35 193.124C145.702 193.34 146.094 193.448 146.526 193.448C146.974 193.448 147.37 193.34 147.714 193.124C148.066 192.9 148.342 192.6 148.542 192.224C148.742 191.848 148.842 191.416 148.842 190.928ZM154.944 187.724C155.472 187.724 155.892 187.832 156.204 188.048C156.524 188.256 156.752 188.544 156.888 188.912C157.032 189.272 157.104 189.672 157.104 190.112V193.64C157.104 193.736 157.068 193.82 156.996 193.892C156.924 193.964 156.84 194 156.744 194C156.632 194 156.544 193.964 156.48 193.892C156.416 193.82 156.384 193.736 156.384 193.64V190.148C156.384 189.828 156.332 189.536 156.228 189.272C156.124 189.008 155.952 188.796 155.712 188.636C155.48 188.476 155.172 188.396 154.788 188.396C154.444 188.396 154.116 188.476 153.804 188.636C153.5 188.796 153.252 189.008 153.06 189.272C152.868 189.536 152.772 189.828 152.772 190.148V193.64C152.772 193.736 152.736 193.82 152.664 193.892C152.592 193.964 152.508 194 152.412 194C152.3 194 152.212 193.964 152.148 193.892C152.084 193.82 152.052 193.736 152.052 193.64V188.264C152.052 188.168 152.084 188.084 152.148 188.012C152.22 187.94 152.308 187.904 152.412 187.904C152.516 187.904 152.6 187.94 152.664 188.012C152.736 188.084 152.772 188.168 152.772 188.264V189.272L152.496 189.704C152.512 189.448 152.592 189.204 152.736 188.972C152.888 188.732 153.08 188.52 153.312 188.336C153.544 188.144 153.8 187.996 154.08 187.892C154.368 187.78 154.656 187.724 154.944 187.724ZM162.841 187.724C163.369 187.724 163.789 187.832 164.101 188.048C164.421 188.256 164.649 188.544 164.785 188.912C164.929 189.272 165.001 189.672 165.001 190.112V193.64C165.001 193.736 164.965 193.82 164.893 193.892C164.821 193.964 164.737 194 164.641 194C164.529 194 164.441 193.964 164.377 193.892C164.313 193.82 164.281 193.736 164.281 193.64V190.148C164.281 189.828 164.229 189.536 164.125 189.272C164.021 189.008 163.849 188.796 163.609 188.636C163.377 188.476 163.069 188.396 162.685 188.396C162.341 188.396 162.013 188.476 161.701 188.636C161.397 188.796 161.149 189.008 160.957 189.272C160.765 189.536 160.669 189.828 160.669 190.148V193.64C160.669 193.736 160.633 193.82 160.561 193.892C160.489 193.964 160.405 194 160.309 194C160.197 194 160.109 193.964 160.045 193.892C159.981 193.82 159.949 193.736 159.949 193.64V188.264C159.949 188.168 159.981 188.084 160.045 188.012C160.117 187.94 160.205 187.904 160.309 187.904C160.413 187.904 160.497 187.94 160.561 188.012C160.633 188.084 160.669 188.168 160.669 188.264V189.272L160.393 189.704C160.409 189.448 160.489 189.204 160.633 188.972C160.785 188.732 160.977 188.52 161.209 188.336C161.441 188.144 161.697 187.996 161.977 187.892C162.265 187.78 162.553 187.724 162.841 187.724ZM172.875 187.868C172.979 187.868 173.063 187.904 173.127 187.976C173.199 188.048 173.235 188.136 173.235 188.24V193.64C173.235 193.736 173.199 193.82 173.127 193.892C173.055 193.964 172.971 194 172.875 194C172.771 194 172.683 193.964 172.611 193.892C172.547 193.82 172.515 193.736 172.515 193.64V192.212L172.719 192.116C172.719 192.34 172.655 192.568 172.527 192.8C172.407 193.032 172.239 193.248 172.023 193.448C171.807 193.648 171.551 193.812 171.255 193.94C170.967 194.06 170.655 194.12 170.319 194.12C169.775 194.12 169.287 193.98 168.855 193.7C168.431 193.42 168.095 193.036 167.847 192.548C167.607 192.06 167.487 191.512 167.487 190.904C167.487 190.28 167.611 189.732 167.859 189.26C168.107 188.78 168.443 188.404 168.867 188.132C169.291 187.86 169.771 187.724 170.307 187.724C170.651 187.724 170.971 187.784 171.267 187.904C171.571 188.024 171.835 188.188 172.059 188.396C172.283 188.604 172.455 188.844 172.575 189.116C172.703 189.38 172.767 189.656 172.767 189.944L172.515 189.764V188.24C172.515 188.136 172.547 188.048 172.611 187.976C172.683 187.904 172.771 187.868 172.875 187.868ZM170.379 193.448C170.803 193.448 171.179 193.34 171.507 193.124C171.835 192.9 172.091 192.596 172.275 192.212C172.467 191.82 172.563 191.384 172.563 190.904C172.563 190.432 172.467 190.008 172.275 189.632C172.091 189.256 171.835 188.956 171.507 188.732C171.179 188.508 170.803 188.396 170.379 188.396C169.963 188.396 169.587 188.504 169.251 188.72C168.923 188.936 168.663 189.232 168.471 189.608C168.287 189.984 168.195 190.416 168.195 190.904C168.195 191.384 168.287 191.82 168.471 192.212C168.663 192.596 168.923 192.9 169.251 193.124C169.579 193.34 169.955 193.448 170.379 193.448ZM176.876 193.64C176.876 193.736 176.84 193.82 176.768 193.892C176.696 193.964 176.612 194 176.516 194C176.412 194 176.324 193.964 176.252 193.892C176.188 193.82 176.156 193.736 176.156 193.64V185.48C176.156 185.384 176.192 185.3 176.264 185.228C176.336 185.156 176.42 185.12 176.516 185.12C176.62 185.12 176.704 185.156 176.768 185.228C176.84 185.3 176.876 185.384 176.876 185.48V193.64ZM180.506 193.64C180.506 193.736 180.47 193.82 180.398 193.892C180.326 193.964 180.242 194 180.146 194C180.042 194 179.954 193.964 179.882 193.892C179.818 193.82 179.786 193.736 179.786 193.64V188.12C179.786 188.024 179.818 187.94 179.882 187.868C179.954 187.796 180.042 187.76 180.146 187.76C180.25 187.76 180.334 187.796 180.398 187.868C180.47 187.94 180.506 188.024 180.506 188.12V193.64ZM180.146 186.956C179.978 186.956 179.85 186.92 179.762 186.848C179.682 186.768 179.642 186.656 179.642 186.512V186.392C179.642 186.248 179.686 186.14 179.774 186.068C179.87 185.988 179.998 185.948 180.158 185.948C180.31 185.948 180.426 185.988 180.506 186.068C180.594 186.14 180.638 186.248 180.638 186.392V186.512C180.638 186.656 180.594 186.768 180.506 186.848C180.426 186.92 180.306 186.956 180.146 186.956ZM182.988 193.028C182.924 192.932 182.892 192.84 182.892 192.752C182.9 192.656 182.952 192.58 183.048 192.524C183.112 192.468 183.184 192.444 183.264 192.452C183.352 192.46 183.432 192.5 183.504 192.572C183.72 192.852 183.98 193.08 184.284 193.256C184.596 193.424 184.964 193.508 185.388 193.508C185.612 193.508 185.832 193.472 186.048 193.4C186.272 193.32 186.456 193.204 186.6 193.052C186.744 192.892 186.816 192.692 186.816 192.452C186.816 192.204 186.744 192.004 186.6 191.852C186.456 191.7 186.268 191.58 186.036 191.492C185.812 191.404 185.572 191.328 185.316 191.264C185.044 191.192 184.78 191.112 184.524 191.024C184.268 190.928 184.04 190.812 183.84 190.676C183.648 190.532 183.492 190.36 183.372 190.16C183.252 189.96 183.192 189.716 183.192 189.428C183.192 189.092 183.284 188.796 183.468 188.54C183.652 188.284 183.9 188.084 184.212 187.94C184.532 187.796 184.892 187.724 185.292 187.724C185.492 187.724 185.708 187.752 185.94 187.808C186.172 187.856 186.4 187.94 186.624 188.06C186.848 188.18 187.048 188.344 187.224 188.552C187.296 188.624 187.332 188.708 187.332 188.804C187.332 188.892 187.292 188.972 187.212 189.044C187.148 189.092 187.072 189.116 186.984 189.116C186.904 189.116 186.836 189.084 186.78 189.02C186.588 188.804 186.36 188.64 186.096 188.528C185.832 188.416 185.548 188.36 185.244 188.36C185.012 188.36 184.792 188.4 184.584 188.48C184.384 188.552 184.216 188.664 184.08 188.816C183.944 188.968 183.876 189.168 183.876 189.416C183.892 189.648 183.972 189.836 184.116 189.98C184.268 190.124 184.464 190.244 184.704 190.34C184.952 190.436 185.228 190.524 185.532 190.604C185.788 190.668 186.032 190.744 186.264 190.832C186.504 190.92 186.712 191.032 186.888 191.168C187.072 191.296 187.216 191.46 187.32 191.66C187.432 191.86 187.488 192.112 187.488 192.416C187.488 192.768 187.388 193.072 187.188 193.328C186.996 193.584 186.736 193.78 186.408 193.916C186.08 194.052 185.716 194.12 185.316 194.12C184.884 194.12 184.464 194.036 184.056 193.868C183.656 193.7 183.3 193.42 182.988 193.028ZM195.043 187.868C195.147 187.868 195.231 187.904 195.295 187.976C195.367 188.048 195.403 188.136 195.403 188.24V193.64C195.403 193.736 195.367 193.82 195.295 193.892C195.223 193.964 195.139 194 195.043 194C194.939 194 194.851 193.964 194.779 193.892C194.715 193.82 194.683 193.736 194.683 193.64V192.212L194.887 192.116C194.887 192.34 194.823 192.568 194.695 192.8C194.575 193.032 194.407 193.248 194.191 193.448C193.975 193.648 193.719 193.812 193.423 193.94C193.135 194.06 192.823 194.12 192.487 194.12C191.943 194.12 191.455 193.98 191.023 193.7C190.599 193.42 190.263 193.036 190.015 192.548C189.775 192.06 189.655 191.512 189.655 190.904C189.655 190.28 189.779 189.732 190.027 189.26C190.275 188.78 190.611 188.404 191.035 188.132C191.459 187.86 191.939 187.724 192.475 187.724C192.819 187.724 193.139 187.784 193.435 187.904C193.739 188.024 194.003 188.188 194.227 188.396C194.451 188.604 194.623 188.844 194.743 189.116C194.871 189.38 194.935 189.656 194.935 189.944L194.683 189.764V188.24C194.683 188.136 194.715 188.048 194.779 187.976C194.851 187.904 194.939 187.868 195.043 187.868ZM192.547 193.448C192.971 193.448 193.347 193.34 193.675 193.124C194.003 192.9 194.259 192.596 194.443 192.212C194.635 191.82 194.731 191.384 194.731 190.904C194.731 190.432 194.635 190.008 194.443 189.632C194.259 189.256 194.003 188.956 193.675 188.732C193.347 188.508 192.971 188.396 192.547 188.396C192.131 188.396 191.755 188.504 191.419 188.72C191.091 188.936 190.831 189.232 190.639 189.608C190.455 189.984 190.363 190.416 190.363 190.904C190.363 191.384 190.455 191.82 190.639 192.212C190.831 192.596 191.091 192.9 191.419 193.124C191.747 193.34 192.123 193.448 192.547 193.448ZM197.856 187.892H200.652C200.748 187.892 200.828 187.928 200.892 188C200.956 188.064 200.988 188.144 200.988 188.24C200.988 188.328 200.956 188.404 200.892 188.468C200.828 188.532 200.748 188.564 200.652 188.564H197.856C197.76 188.564 197.676 188.532 197.604 188.468C197.54 188.396 197.508 188.316 197.508 188.228C197.508 188.132 197.54 188.052 197.604 187.988C197.676 187.924 197.76 187.892 197.856 187.892ZM199.092 186.2C199.196 186.2 199.28 186.236 199.344 186.308C199.416 186.38 199.452 186.464 199.452 186.56V192.584C199.452 192.808 199.48 192.976 199.536 193.088C199.6 193.2 199.68 193.276 199.776 193.316C199.872 193.348 199.968 193.364 200.064 193.364C200.128 193.364 200.184 193.356 200.232 193.34C200.288 193.316 200.348 193.304 200.412 193.304C200.484 193.304 200.544 193.332 200.592 193.388C200.648 193.444 200.676 193.516 200.676 193.604C200.676 193.716 200.612 193.812 200.484 193.892C200.356 193.964 200.204 194 200.028 194C199.956 194 199.848 193.996 199.704 193.988C199.56 193.972 199.412 193.928 199.26 193.856C199.108 193.776 198.98 193.64 198.876 193.448C198.78 193.256 198.732 192.98 198.732 192.62V186.56C198.732 186.464 198.764 186.38 198.828 186.308C198.9 186.236 198.988 186.2 199.092 186.2ZM203.975 193.64C203.975 193.736 203.939 193.82 203.867 193.892C203.795 193.964 203.711 194 203.615 194C203.511 194 203.423 193.964 203.351 193.892C203.287 193.82 203.255 193.736 203.255 193.64V188.12C203.255 188.024 203.287 187.94 203.351 187.868C203.423 187.796 203.511 187.76 203.615 187.76C203.719 187.76 203.803 187.796 203.867 187.868C203.939 187.94 203.975 188.024 203.975 188.12V193.64ZM203.615 186.956C203.447 186.956 203.319 186.92 203.231 186.848C203.151 186.768 203.111 186.656 203.111 186.512V186.392C203.111 186.248 203.155 186.14 203.243 186.068C203.339 185.988 203.467 185.948 203.627 185.948C203.779 185.948 203.895 185.988 203.975 186.068C204.063 186.14 204.107 186.248 204.107 186.392V186.512C204.107 186.656 204.063 186.768 203.975 186.848C203.895 186.92 203.775 186.956 203.615 186.956ZM212.517 190.928C212.517 191.536 212.385 192.084 212.121 192.572C211.857 193.052 211.497 193.432 211.041 193.712C210.585 193.984 210.065 194.12 209.481 194.12C208.913 194.12 208.397 193.984 207.933 193.712C207.477 193.432 207.113 193.052 206.841 192.572C206.577 192.084 206.445 191.536 206.445 190.928C206.445 190.312 206.577 189.764 206.841 189.284C207.113 188.804 207.477 188.424 207.933 188.144C208.397 187.864 208.913 187.724 209.481 187.724C210.065 187.724 210.585 187.864 211.041 188.144C211.497 188.424 211.857 188.804 212.121 189.284C212.385 189.764 212.517 190.312 212.517 190.928ZM211.797 190.928C211.797 190.44 211.697 190.008 211.497 189.632C211.297 189.248 211.021 188.948 210.669 188.732C210.325 188.508 209.929 188.396 209.481 188.396C209.049 188.396 208.657 188.508 208.305 188.732C207.953 188.948 207.673 189.248 207.465 189.632C207.265 190.008 207.165 190.44 207.165 190.928C207.165 191.416 207.265 191.848 207.465 192.224C207.673 192.6 207.953 192.9 208.305 193.124C208.657 193.34 209.049 193.448 209.481 193.448C209.929 193.448 210.325 193.34 210.669 193.124C211.021 192.9 211.297 192.6 211.497 192.224C211.697 191.848 211.797 191.416 211.797 190.928ZM217.899 187.724C218.427 187.724 218.847 187.832 219.159 188.048C219.479 188.256 219.707 188.544 219.843 188.912C219.987 189.272 220.059 189.672 220.059 190.112V193.64C220.059 193.736 220.023 193.82 219.951 193.892C219.879 193.964 219.795 194 219.699 194C219.587 194 219.499 193.964 219.435 193.892C219.371 193.82 219.339 193.736 219.339 193.64V190.148C219.339 189.828 219.287 189.536 219.183 189.272C219.079 189.008 218.907 188.796 218.667 188.636C218.435 188.476 218.127 188.396 217.743 188.396C217.399 188.396 217.071 188.476 216.759 188.636C216.455 188.796 216.207 189.008 216.015 189.272C215.823 189.536 215.727 189.828 215.727 190.148V193.64C215.727 193.736 215.691 193.82 215.619 193.892C215.547 193.964 215.463 194 215.367 194C215.255 194 215.167 193.964 215.103 193.892C215.039 193.82 215.007 193.736 215.007 193.64V188.264C215.007 188.168 215.039 188.084 215.103 188.012C215.175 187.94 215.263 187.904 215.367 187.904C215.471 187.904 215.555 187.94 215.619 188.012C215.691 188.084 215.727 188.168 215.727 188.264V189.272L215.451 189.704C215.467 189.448 215.547 189.204 215.691 188.972C215.843 188.732 216.035 188.52 216.267 188.336C216.499 188.144 216.755 187.996 217.035 187.892C217.323 187.78 217.611 187.724 217.899 187.724Z" fill="#333333"/>
<path d="M53.8125 39.12C53.2045 39.128 52.6765 39.032 52.2285 38.832C51.7805 38.632 51.3525 38.332 50.9445 37.932C50.9045 37.9 50.8685 37.86 50.8365 37.812C50.8125 37.764 50.8005 37.708 50.8005 37.644C50.8005 37.548 50.8365 37.46 50.9085 37.38C50.9885 37.3 51.0765 37.26 51.1725 37.26C51.2685 37.26 51.3565 37.3 51.4365 37.38C51.7485 37.716 52.1005 37.972 52.4925 38.148C52.8925 38.324 53.3205 38.412 53.7765 38.412C54.1605 38.412 54.5005 38.352 54.7965 38.232C55.1005 38.112 55.3405 37.94 55.5165 37.716C55.6925 37.492 55.7805 37.232 55.7805 36.936C55.7805 36.568 55.6805 36.272 55.4805 36.048C55.2805 35.816 55.0165 35.628 54.6885 35.484C54.3605 35.332 53.9965 35.196 53.5965 35.076C53.2685 34.98 52.9565 34.872 52.6605 34.752C52.3645 34.624 52.1005 34.472 51.8685 34.296C51.6365 34.112 51.4565 33.888 51.3285 33.624C51.2005 33.36 51.1365 33.04 51.1365 32.664C51.1365 32.24 51.2485 31.864 51.4725 31.536C51.6965 31.208 52.0125 30.952 52.4205 30.768C52.8365 30.576 53.3165 30.48 53.8605 30.48C54.3325 30.48 54.7845 30.56 55.2165 30.72C55.6565 30.88 56.0045 31.116 56.2605 31.428C56.3805 31.556 56.4405 31.672 56.4405 31.776C56.4405 31.856 56.4005 31.936 56.3205 32.016C56.2405 32.096 56.1525 32.136 56.0565 32.136C55.9765 32.136 55.9085 32.108 55.8525 32.052C55.7165 31.884 55.5445 31.736 55.3365 31.608C55.1285 31.472 54.8965 31.368 54.6405 31.296C54.3925 31.224 54.1325 31.188 53.8605 31.188C53.4845 31.188 53.1445 31.248 52.8405 31.368C52.5445 31.48 52.3085 31.644 52.1325 31.86C51.9645 32.076 51.8805 32.336 51.8805 32.64C51.8805 32.976 51.9765 33.252 52.1685 33.468C52.3605 33.684 52.6125 33.864 52.9245 34.008C53.2365 34.144 53.5685 34.272 53.9205 34.392C54.2645 34.488 54.5925 34.6 54.9045 34.728C55.2245 34.848 55.5045 35 55.7445 35.184C55.9925 35.368 56.1845 35.6 56.3205 35.88C56.4645 36.16 56.5365 36.512 56.5365 36.936C56.5365 37.344 56.4205 37.712 56.1885 38.04C55.9565 38.368 55.6365 38.628 55.2285 38.82C54.8285 39.012 54.3565 39.112 53.8125 39.12ZM61.7868 39.12C61.1708 39.12 60.6268 38.988 60.1548 38.724C59.6828 38.46 59.3148 38.092 59.0508 37.62C58.7868 37.148 58.6548 36.596 58.6548 35.964C58.6548 35.284 58.7868 34.704 59.0508 34.224C59.3228 33.744 59.6708 33.376 60.0948 33.12C60.5268 32.856 60.9828 32.724 61.4628 32.724C61.8148 32.724 62.1548 32.788 62.4828 32.916C62.8188 33.036 63.1148 33.22 63.3708 33.468C63.6348 33.708 63.8428 34.004 63.9948 34.356C64.1548 34.708 64.2428 35.116 64.2588 35.58C64.2508 35.676 64.2108 35.76 64.1388 35.832C64.0668 35.896 63.9828 35.928 63.8868 35.928H59.0748L58.9308 35.28H63.6588L63.5028 35.424V35.184C63.4708 34.808 63.3508 34.488 63.1428 34.224C62.9348 33.96 62.6828 33.76 62.3868 33.624C62.0908 33.488 61.7828 33.42 61.4628 33.42C61.2228 33.42 60.9748 33.468 60.7188 33.564C60.4708 33.66 60.2428 33.812 60.0348 34.02C59.8348 34.22 59.6708 34.48 59.5428 34.8C59.4148 35.112 59.3508 35.484 59.3508 35.916C59.3508 36.388 59.4468 36.816 59.6388 37.2C59.8308 37.584 60.1068 37.888 60.4668 38.112C60.8348 38.336 61.2708 38.448 61.7748 38.448C62.0548 38.448 62.3068 38.408 62.5308 38.328C62.7548 38.248 62.9508 38.144 63.1188 38.016C63.2868 37.88 63.4268 37.74 63.5388 37.596C63.6268 37.524 63.7148 37.488 63.8028 37.488C63.8828 37.488 63.9508 37.52 64.0068 37.584C64.0708 37.648 64.1028 37.72 64.1028 37.8C64.1028 37.896 64.0628 37.98 63.9828 38.052C63.7428 38.34 63.4308 38.592 63.0468 38.808C62.6628 39.016 62.2428 39.12 61.7868 39.12ZM61.3668 32.376C61.3268 32.376 61.2828 32.356 61.2348 32.316C61.1948 32.268 61.1748 32.216 61.1748 32.16C61.1748 32.112 61.1948 32.056 61.2348 31.992L61.9668 30.852C62.0068 30.788 62.0588 30.728 62.1228 30.672C62.1948 30.616 62.2788 30.588 62.3748 30.588C62.4948 30.588 62.5908 30.62 62.6628 30.684C62.7348 30.748 62.7668 30.84 62.7588 30.96C62.7588 31.016 62.7468 31.068 62.7228 31.116C62.7068 31.156 62.6788 31.196 62.6388 31.236L61.7388 32.184C61.6908 32.24 61.6348 32.288 61.5708 32.328C61.5068 32.36 61.4388 32.376 61.3668 32.376ZM69.46 32.724C69.844 32.724 70.196 32.768 70.516 32.856C70.836 32.936 71.092 33.048 71.284 33.192C71.484 33.336 71.584 33.492 71.584 33.66C71.584 33.74 71.556 33.82 71.5 33.9C71.444 33.972 71.368 34.008 71.272 34.008C71.176 34.008 71.096 33.984 71.032 33.936C70.976 33.888 70.916 33.832 70.852 33.768C70.796 33.704 70.712 33.644 70.6 33.588C70.496 33.54 70.348 33.496 70.156 33.456C69.964 33.416 69.744 33.396 69.496 33.396C69.048 33.396 68.644 33.508 68.284 33.732C67.924 33.956 67.64 34.26 67.432 34.644C67.224 35.02 67.12 35.444 67.12 35.916C67.12 36.396 67.22 36.828 67.42 37.212C67.62 37.596 67.896 37.9 68.248 38.124C68.6 38.34 69.012 38.448 69.484 38.448C69.804 38.448 70.052 38.42 70.228 38.364C70.404 38.308 70.556 38.244 70.684 38.172C70.836 38.084 70.944 38 71.008 37.92C71.08 37.832 71.172 37.788 71.284 37.788C71.388 37.788 71.464 37.82 71.512 37.884C71.568 37.94 71.596 38.016 71.596 38.112C71.596 38.24 71.5 38.384 71.308 38.544C71.124 38.696 70.868 38.832 70.54 38.952C70.212 39.064 69.836 39.12 69.412 39.12C68.812 39.12 68.284 38.98 67.828 38.7C67.38 38.42 67.028 38.04 66.772 37.56C66.524 37.072 66.4 36.524 66.4 35.916C66.4 35.332 66.528 34.8 66.784 34.32C67.04 33.84 67.396 33.456 67.852 33.168C68.316 32.872 68.852 32.724 69.46 32.724ZM78.5149 32.904C78.6189 32.904 78.7029 32.94 78.7669 33.012C78.8389 33.084 78.8749 33.168 78.8749 33.264V36.648C78.8749 37.44 78.6509 38.044 78.2029 38.46C77.7549 38.876 77.1509 39.084 76.3909 39.084C75.6389 39.084 75.0389 38.876 74.5909 38.46C74.1509 38.044 73.9309 37.44 73.9309 36.648V33.264C73.9309 33.168 73.9629 33.084 74.0269 33.012C74.0989 32.94 74.1869 32.904 74.2909 32.904C74.3949 32.904 74.4789 32.94 74.5429 33.012C74.6149 33.084 74.6509 33.168 74.6509 33.264V36.648C74.6509 37.224 74.8029 37.664 75.1069 37.968C75.4189 38.264 75.8469 38.412 76.3909 38.412C76.9429 38.412 77.3749 38.264 77.6869 37.968C77.9989 37.664 78.1549 37.224 78.1549 36.648V33.264C78.1549 33.168 78.1869 33.084 78.2509 33.012C78.3149 32.94 78.4029 32.904 78.5149 32.904ZM82.0829 39C81.9709 39 81.8829 38.964 81.8189 38.892C81.7549 38.82 81.7229 38.736 81.7229 38.64V33.264C81.7229 33.168 81.7549 33.084 81.8189 33.012C81.8909 32.94 81.9789 32.904 82.0829 32.904C82.1869 32.904 82.2709 32.94 82.3349 33.012C82.4069 33.084 82.4429 33.168 82.4429 33.264V35.064L82.2629 35.1C82.2869 34.82 82.3549 34.544 82.4669 34.272C82.5869 33.992 82.7469 33.736 82.9469 33.504C83.1469 33.272 83.3829 33.084 83.6549 32.94C83.9349 32.796 84.2469 32.724 84.5909 32.724C84.7349 32.724 84.8749 32.756 85.0109 32.82C85.1469 32.876 85.2149 32.972 85.2149 33.108C85.2149 33.228 85.1829 33.32 85.1189 33.384C85.0549 33.448 84.9789 33.48 84.8909 33.48C84.8189 33.48 84.7389 33.46 84.6509 33.42C84.5709 33.38 84.4629 33.36 84.3269 33.36C84.1029 33.36 83.8789 33.428 83.6549 33.564C83.4309 33.692 83.2269 33.868 83.0429 34.092C82.8589 34.316 82.7109 34.568 82.5989 34.848C82.4949 35.12 82.4429 35.396 82.4429 35.676V38.64C82.4429 38.736 82.4069 38.82 82.3349 38.892C82.2629 38.964 82.1789 39 82.0829 39ZM87.9961 38.64C87.9961 38.736 87.9601 38.82 87.8881 38.892C87.8161 38.964 87.7321 39 87.6361 39C87.5321 39 87.4441 38.964 87.3721 38.892C87.3081 38.82 87.2761 38.736 87.2761 38.64V33.12C87.2761 33.024 87.3081 32.94 87.3721 32.868C87.4441 32.796 87.5321 32.76 87.6361 32.76C87.7401 32.76 87.8241 32.796 87.8881 32.868C87.9601 32.94 87.9961 33.024 87.9961 33.12V38.64ZM87.6361 31.956C87.4681 31.956 87.3401 31.92 87.2521 31.848C87.1721 31.768 87.1321 31.656 87.1321 31.512V31.392C87.1321 31.248 87.1761 31.14 87.2641 31.068C87.3601 30.988 87.4881 30.948 87.6481 30.948C87.8001 30.948 87.9161 30.988 87.9961 31.068C88.0841 31.14 88.1281 31.248 88.1281 31.392V31.512C88.1281 31.656 88.0841 31.768 87.9961 31.848C87.9161 31.92 87.7961 31.956 87.6361 31.956ZM90.4305 32.892H93.2265C93.3225 32.892 93.4025 32.928 93.4665 33C93.5305 33.064 93.5625 33.144 93.5625 33.24C93.5625 33.328 93.5305 33.404 93.4665 33.468C93.4025 33.532 93.3225 33.564 93.2265 33.564H90.4305C90.3345 33.564 90.2505 33.532 90.1785 33.468C90.1145 33.396 90.0825 33.316 90.0825 33.228C90.0825 33.132 90.1145 33.052 90.1785 32.988C90.2505 32.924 90.3345 32.892 90.4305 32.892ZM91.6665 31.2C91.7705 31.2 91.8545 31.236 91.9185 31.308C91.9905 31.38 92.0265 31.464 92.0265 31.56V37.584C92.0265 37.808 92.0545 37.976 92.1105 38.088C92.1745 38.2 92.2545 38.276 92.3505 38.316C92.4465 38.348 92.5425 38.364 92.6385 38.364C92.7025 38.364 92.7585 38.356 92.8065 38.34C92.8625 38.316 92.9225 38.304 92.9865 38.304C93.0585 38.304 93.1185 38.332 93.1665 38.388C93.2225 38.444 93.2505 38.516 93.2505 38.604C93.2505 38.716 93.1865 38.812 93.0585 38.892C92.9305 38.964 92.7785 39 92.6025 39C92.5305 39 92.4225 38.996 92.2785 38.988C92.1345 38.972 91.9865 38.928 91.8345 38.856C91.6825 38.776 91.5545 38.64 91.4505 38.448C91.3545 38.256 91.3065 37.98 91.3065 37.62V31.56C91.3065 31.464 91.3385 31.38 91.4025 31.308C91.4745 31.236 91.5625 31.2 91.6665 31.2ZM98.5663 39.12C97.9503 39.12 97.4063 38.988 96.9343 38.724C96.4623 38.46 96.0943 38.092 95.8303 37.62C95.5663 37.148 95.4343 36.596 95.4343 35.964C95.4343 35.284 95.5663 34.704 95.8303 34.224C96.1023 33.744 96.4503 33.376 96.8743 33.12C97.3063 32.856 97.7623 32.724 98.2423 32.724C98.5943 32.724 98.9343 32.788 99.2623 32.916C99.5983 33.036 99.8943 33.22 100.15 33.468C100.414 33.708 100.622 34.004 100.774 34.356C100.934 34.708 101.022 35.116 101.038 35.58C101.03 35.676 100.99 35.76 100.918 35.832C100.846 35.896 100.762 35.928 100.666 35.928H95.8543L95.7103 35.28H100.438L100.282 35.424V35.184C100.25 34.808 100.13 34.488 99.9223 34.224C99.7143 33.96 99.4623 33.76 99.1663 33.624C98.8703 33.488 98.5623 33.42 98.2423 33.42C98.0023 33.42 97.7543 33.468 97.4983 33.564C97.2503 33.66 97.0223 33.812 96.8143 34.02C96.6143 34.22 96.4503 34.48 96.3223 34.8C96.1943 35.112 96.1303 35.484 96.1303 35.916C96.1303 36.388 96.2263 36.816 96.4183 37.2C96.6103 37.584 96.8863 37.888 97.2463 38.112C97.6143 38.336 98.0503 38.448 98.5543 38.448C98.8343 38.448 99.0863 38.408 99.3103 38.328C99.5343 38.248 99.7303 38.144 99.8983 38.016C100.066 37.88 100.206 37.74 100.318 37.596C100.406 37.524 100.494 37.488 100.582 37.488C100.662 37.488 100.73 37.52 100.786 37.584C100.85 37.648 100.882 37.72 100.882 37.8C100.882 37.896 100.842 37.98 100.762 38.052C100.522 38.34 100.21 38.592 99.8263 38.808C99.4423 39.016 99.0223 39.12 98.5663 39.12ZM98.1463 32.376C98.1063 32.376 98.0623 32.356 98.0143 32.316C97.9743 32.268 97.9543 32.216 97.9543 32.16C97.9543 32.112 97.9743 32.056 98.0143 31.992L98.7463 30.852C98.7863 30.788 98.8383 30.728 98.9023 30.672C98.9743 30.616 99.0583 30.588 99.1543 30.588C99.2743 30.588 99.3703 30.62 99.4423 30.684C99.5143 30.748 99.5463 30.84 99.5383 30.96C99.5383 31.016 99.5263 31.068 99.5023 31.116C99.4863 31.156 99.4583 31.196 99.4183 31.236L98.5183 32.184C98.4703 32.24 98.4143 32.288 98.3503 32.328C98.2863 32.36 98.2183 32.376 98.1463 32.376Z" fill="#333333"/>
<path d="M234.34 31.588C234.452 31.588 234.54 31.62 234.604 31.684C234.676 31.748 234.712 31.828 234.712 31.924C234.712 31.98 234.7 32.04 234.676 32.104L231.472 39.76C231.432 39.84 231.38 39.9 231.316 39.94C231.252 39.98 231.188 40 231.124 40C231.052 40 230.984 39.98 230.92 39.94C230.856 39.9 230.812 39.844 230.788 39.772L227.596 32.128C227.588 32.104 227.58 32.076 227.572 32.044C227.564 32.012 227.56 31.976 227.56 31.936C227.56 31.832 227.596 31.748 227.668 31.684C227.748 31.62 227.828 31.588 227.908 31.588C228.076 31.588 228.196 31.676 228.268 31.852L231.268 39.028H231.052L234.004 31.828C234.084 31.668 234.196 31.588 234.34 31.588ZM237.724 39.64C237.724 39.736 237.688 39.82 237.616 39.892C237.544 39.964 237.46 40 237.364 40C237.26 40 237.172 39.964 237.1 39.892C237.036 39.82 237.004 39.736 237.004 39.64V34.12C237.004 34.024 237.036 33.94 237.1 33.868C237.172 33.796 237.26 33.76 237.364 33.76C237.468 33.76 237.552 33.796 237.616 33.868C237.688 33.94 237.724 34.024 237.724 34.12V39.64ZM237.364 32.956C237.196 32.956 237.068 32.92 236.98 32.848C236.9 32.768 236.86 32.656 236.86 32.512V32.392C236.86 32.248 236.904 32.14 236.992 32.068C237.088 31.988 237.216 31.948 237.376 31.948C237.528 31.948 237.644 31.988 237.724 32.068C237.812 32.14 237.856 32.248 237.856 32.392V32.512C237.856 32.656 237.812 32.768 237.724 32.848C237.644 32.92 237.524 32.956 237.364 32.956ZM240.207 39.028C240.143 38.932 240.111 38.84 240.111 38.752C240.119 38.656 240.171 38.58 240.267 38.524C240.331 38.468 240.403 38.444 240.483 38.452C240.571 38.46 240.651 38.5 240.723 38.572C240.939 38.852 241.199 39.08 241.503 39.256C241.815 39.424 242.183 39.508 242.607 39.508C242.831 39.508 243.051 39.472 243.267 39.4C243.491 39.32 243.675 39.204 243.819 39.052C243.963 38.892 244.035 38.692 244.035 38.452C244.035 38.204 243.963 38.004 243.819 37.852C243.675 37.7 243.487 37.58 243.255 37.492C243.031 37.404 242.791 37.328 242.535 37.264C242.263 37.192 241.999 37.112 241.743 37.024C241.487 36.928 241.259 36.812 241.059 36.676C240.867 36.532 240.711 36.36 240.591 36.16C240.471 35.96 240.411 35.716 240.411 35.428C240.411 35.092 240.503 34.796 240.687 34.54C240.871 34.284 241.119 34.084 241.431 33.94C241.751 33.796 242.111 33.724 242.511 33.724C242.711 33.724 242.927 33.752 243.159 33.808C243.391 33.856 243.619 33.94 243.843 34.06C244.067 34.18 244.267 34.344 244.443 34.552C244.515 34.624 244.551 34.708 244.551 34.804C244.551 34.892 244.511 34.972 244.431 35.044C244.367 35.092 244.291 35.116 244.203 35.116C244.123 35.116 244.055 35.084 243.999 35.02C243.807 34.804 243.579 34.64 243.315 34.528C243.051 34.416 242.767 34.36 242.463 34.36C242.231 34.36 242.011 34.4 241.803 34.48C241.603 34.552 241.435 34.664 241.299 34.816C241.163 34.968 241.095 35.168 241.095 35.416C241.111 35.648 241.191 35.836 241.335 35.98C241.487 36.124 241.683 36.244 241.923 36.34C242.171 36.436 242.447 36.524 242.751 36.604C243.007 36.668 243.251 36.744 243.483 36.832C243.723 36.92 243.931 37.032 244.107 37.168C244.291 37.296 244.435 37.46 244.539 37.66C244.651 37.86 244.707 38.112 244.707 38.416C244.707 38.768 244.607 39.072 244.407 39.328C244.215 39.584 243.955 39.78 243.627 39.916C243.299 40.052 242.935 40.12 242.535 40.12C242.103 40.12 241.683 40.036 241.275 39.868C240.875 39.7 240.519 39.42 240.207 39.028ZM246.744 33.892H249.54C249.636 33.892 249.716 33.928 249.78 34C249.844 34.064 249.876 34.144 249.876 34.24C249.876 34.328 249.844 34.404 249.78 34.468C249.716 34.532 249.636 34.564 249.54 34.564H246.744C246.648 34.564 246.564 34.532 246.492 34.468C246.428 34.396 246.396 34.316 246.396 34.228C246.396 34.132 246.428 34.052 246.492 33.988C246.564 33.924 246.648 33.892 246.744 33.892ZM247.98 32.2C248.084 32.2 248.168 32.236 248.232 32.308C248.304 32.38 248.34 32.464 248.34 32.56V38.584C248.34 38.808 248.368 38.976 248.424 39.088C248.488 39.2 248.568 39.276 248.664 39.316C248.76 39.348 248.856 39.364 248.952 39.364C249.016 39.364 249.072 39.356 249.12 39.34C249.176 39.316 249.236 39.304 249.3 39.304C249.372 39.304 249.432 39.332 249.48 39.388C249.536 39.444 249.564 39.516 249.564 39.604C249.564 39.716 249.5 39.812 249.372 39.892C249.244 39.964 249.092 40 248.916 40C248.844 40 248.736 39.996 248.592 39.988C248.448 39.972 248.3 39.928 248.148 39.856C247.996 39.776 247.868 39.64 247.764 39.448C247.668 39.256 247.62 38.98 247.62 38.62V32.56C247.62 32.464 247.652 32.38 247.716 32.308C247.788 32.236 247.876 32.2 247.98 32.2ZM254.88 40.12C254.264 40.12 253.72 39.988 253.248 39.724C252.776 39.46 252.408 39.092 252.144 38.62C251.88 38.148 251.748 37.596 251.748 36.964C251.748 36.284 251.88 35.704 252.144 35.224C252.416 34.744 252.764 34.376 253.188 34.12C253.62 33.856 254.076 33.724 254.556 33.724C254.908 33.724 255.248 33.788 255.576 33.916C255.912 34.036 256.208 34.22 256.464 34.468C256.728 34.708 256.936 35.004 257.088 35.356C257.248 35.708 257.336 36.116 257.352 36.58C257.344 36.676 257.304 36.76 257.232 36.832C257.16 36.896 257.076 36.928 256.98 36.928H252.168L252.024 36.28H256.752L256.596 36.424V36.184C256.564 35.808 256.444 35.488 256.236 35.224C256.028 34.96 255.776 34.76 255.48 34.624C255.184 34.488 254.876 34.42 254.556 34.42C254.316 34.42 254.068 34.468 253.812 34.564C253.564 34.66 253.336 34.812 253.128 35.02C252.928 35.22 252.764 35.48 252.636 35.8C252.508 36.112 252.444 36.484 252.444 36.916C252.444 37.388 252.54 37.816 252.732 38.2C252.924 38.584 253.2 38.888 253.56 39.112C253.928 39.336 254.364 39.448 254.868 39.448C255.148 39.448 255.4 39.408 255.624 39.328C255.848 39.248 256.044 39.144 256.212 39.016C256.38 38.88 256.52 38.74 256.632 38.596C256.72 38.524 256.808 38.488 256.896 38.488C256.976 38.488 257.044 38.52 257.1 38.584C257.164 38.648 257.196 38.72 257.196 38.8C257.196 38.896 257.156 38.98 257.076 39.052C256.836 39.34 256.524 39.592 256.14 39.808C255.756 40.016 255.336 40.12 254.88 40.12ZM259.505 39.028C259.441 38.932 259.409 38.84 259.409 38.752C259.417 38.656 259.469 38.58 259.565 38.524C259.629 38.468 259.701 38.444 259.781 38.452C259.869 38.46 259.949 38.5 260.021 38.572C260.237 38.852 260.497 39.08 260.801 39.256C261.113 39.424 261.481 39.508 261.905 39.508C262.129 39.508 262.349 39.472 262.565 39.4C262.789 39.32 262.973 39.204 263.117 39.052C263.261 38.892 263.333 38.692 263.333 38.452C263.333 38.204 263.261 38.004 263.117 37.852C262.973 37.7 262.785 37.58 262.553 37.492C262.329 37.404 262.089 37.328 261.833 37.264C261.561 37.192 261.297 37.112 261.041 37.024C260.785 36.928 260.557 36.812 260.357 36.676C260.165 36.532 260.009 36.36 259.889 36.16C259.769 35.96 259.709 35.716 259.709 35.428C259.709 35.092 259.801 34.796 259.985 34.54C260.169 34.284 260.417 34.084 260.729 33.94C261.049 33.796 261.409 33.724 261.809 33.724C262.009 33.724 262.225 33.752 262.457 33.808C262.689 33.856 262.917 33.94 263.141 34.06C263.365 34.18 263.565 34.344 263.741 34.552C263.813 34.624 263.849 34.708 263.849 34.804C263.849 34.892 263.809 34.972 263.729 35.044C263.665 35.092 263.589 35.116 263.501 35.116C263.421 35.116 263.353 35.084 263.297 35.02C263.105 34.804 262.877 34.64 262.613 34.528C262.349 34.416 262.065 34.36 261.761 34.36C261.529 34.36 261.309 34.4 261.101 34.48C260.901 34.552 260.733 34.664 260.597 34.816C260.461 34.968 260.393 35.168 260.393 35.416C260.409 35.648 260.489 35.836 260.633 35.98C260.785 36.124 260.981 36.244 261.221 36.34C261.469 36.436 261.745 36.524 262.049 36.604C262.305 36.668 262.549 36.744 262.781 36.832C263.021 36.92 263.229 37.032 263.405 37.168C263.589 37.296 263.733 37.46 263.837 37.66C263.949 37.86 264.005 38.112 264.005 38.416C264.005 38.768 263.905 39.072 263.705 39.328C263.513 39.584 263.253 39.78 262.925 39.916C262.597 40.052 262.233 40.12 261.833 40.12C261.401 40.12 260.981 40.036 260.573 39.868C260.173 39.7 259.817 39.42 259.505 39.028ZM266.09 39.028C266.026 38.932 265.994 38.84 265.994 38.752C266.002 38.656 266.054 38.58 266.15 38.524C266.214 38.468 266.286 38.444 266.366 38.452C266.454 38.46 266.534 38.5 266.606 38.572C266.822 38.852 267.082 39.08 267.386 39.256C267.698 39.424 268.066 39.508 268.49 39.508C268.714 39.508 268.934 39.472 269.15 39.4C269.374 39.32 269.558 39.204 269.702 39.052C269.846 38.892 269.918 38.692 269.918 38.452C269.918 38.204 269.846 38.004 269.702 37.852C269.558 37.7 269.37 37.58 269.138 37.492C268.914 37.404 268.674 37.328 268.418 37.264C268.146 37.192 267.882 37.112 267.626 37.024C267.37 36.928 267.142 36.812 266.942 36.676C266.75 36.532 266.594 36.36 266.474 36.16C266.354 35.96 266.294 35.716 266.294 35.428C266.294 35.092 266.386 34.796 266.57 34.54C266.754 34.284 267.002 34.084 267.314 33.94C267.634 33.796 267.994 33.724 268.394 33.724C268.594 33.724 268.81 33.752 269.042 33.808C269.274 33.856 269.502 33.94 269.726 34.06C269.95 34.18 270.15 34.344 270.326 34.552C270.398 34.624 270.434 34.708 270.434 34.804C270.434 34.892 270.394 34.972 270.314 35.044C270.25 35.092 270.174 35.116 270.086 35.116C270.006 35.116 269.938 35.084 269.882 35.02C269.69 34.804 269.462 34.64 269.198 34.528C268.934 34.416 268.65 34.36 268.346 34.36C268.114 34.36 267.894 34.4 267.686 34.48C267.486 34.552 267.318 34.664 267.182 34.816C267.046 34.968 266.978 35.168 266.978 35.416C266.994 35.648 267.074 35.836 267.218 35.98C267.37 36.124 267.566 36.244 267.806 36.34C268.054 36.436 268.33 36.524 268.634 36.604C268.89 36.668 269.134 36.744 269.366 36.832C269.606 36.92 269.814 37.032 269.99 37.168C270.174 37.296 270.318 37.46 270.422 37.66C270.534 37.86 270.59 38.112 270.59 38.416C270.59 38.768 270.49 39.072 270.29 39.328C270.098 39.584 269.838 39.78 269.51 39.916C269.182 40.052 268.818 40.12 268.418 40.12C267.986 40.12 267.566 40.036 267.158 39.868C266.758 39.7 266.402 39.42 266.09 39.028ZM275.795 40.12C275.179 40.12 274.635 39.988 274.163 39.724C273.691 39.46 273.323 39.092 273.059 38.62C272.795 38.148 272.663 37.596 272.663 36.964C272.663 36.284 272.795 35.704 273.059 35.224C273.331 34.744 273.679 34.376 274.103 34.12C274.535 33.856 274.991 33.724 275.471 33.724C275.823 33.724 276.163 33.788 276.491 33.916C276.827 34.036 277.123 34.22 277.379 34.468C277.643 34.708 277.851 35.004 278.003 35.356C278.163 35.708 278.251 36.116 278.267 36.58C278.259 36.676 278.219 36.76 278.147 36.832C278.075 36.896 277.991 36.928 277.895 36.928H273.083L272.939 36.28H277.667L277.511 36.424V36.184C277.479 35.808 277.359 35.488 277.151 35.224C276.943 34.96 276.691 34.76 276.395 34.624C276.099 34.488 275.791 34.42 275.471 34.42C275.231 34.42 274.983 34.468 274.727 34.564C274.479 34.66 274.251 34.812 274.043 35.02C273.843 35.22 273.679 35.48 273.551 35.8C273.423 36.112 273.359 36.484 273.359 36.916C273.359 37.388 273.455 37.816 273.647 38.2C273.839 38.584 274.115 38.888 274.475 39.112C274.843 39.336 275.279 39.448 275.783 39.448C276.063 39.448 276.315 39.408 276.539 39.328C276.763 39.248 276.959 39.144 277.127 39.016C277.295 38.88 277.435 38.74 277.547 38.596C277.635 38.524 277.723 38.488 277.811 38.488C277.891 38.488 277.959 38.52 278.015 38.584C278.079 38.648 278.111 38.72 278.111 38.8C278.111 38.896 278.071 38.98 277.991 39.052C277.751 39.34 277.439 39.592 277.055 39.808C276.671 40.016 276.251 40.12 275.795 40.12Z" fill="#333333"/>
<path d="M92.2306 158.6C92.3426 158.6 92.4306 158.636 92.4946 158.708C92.5586 158.772 92.5906 158.856 92.5906 158.96V163.928C92.5906 164.52 92.4506 165.056 92.1706 165.536C91.8906 166.016 91.5146 166.4 91.0426 166.688C90.5706 166.968 90.0386 167.108 89.4466 167.108C88.8546 167.108 88.3186 166.968 87.8386 166.688C87.3666 166.4 86.9906 166.016 86.7106 165.536C86.4306 165.056 86.2906 164.52 86.2906 163.928V158.96C86.2906 158.856 86.3226 158.772 86.3866 158.708C86.4586 158.636 86.5546 158.6 86.6746 158.6C86.7706 158.6 86.8546 158.636 86.9266 158.708C86.9986 158.772 87.0346 158.856 87.0346 158.96V163.928C87.0346 164.392 87.1426 164.808 87.3586 165.176C87.5826 165.544 87.8786 165.84 88.2466 166.064C88.6146 166.28 89.0146 166.388 89.4466 166.388C89.8946 166.388 90.3026 166.28 90.6706 166.064C91.0386 165.84 91.3306 165.544 91.5466 165.176C91.7706 164.808 91.8826 164.392 91.8826 163.928V158.96C91.8826 158.856 91.9146 158.772 91.9786 158.708C92.0426 158.636 92.1266 158.6 92.2306 158.6ZM101.076 158.564C101.172 158.564 101.252 158.596 101.316 158.66C101.388 158.716 101.424 158.788 101.424 158.876C101.424 158.956 101.396 159.032 101.34 159.104L98.5801 162.86L98.1841 162.272L100.788 158.72C100.868 158.616 100.964 158.564 101.076 158.564ZM95.3401 158.564C95.4681 158.564 95.5681 158.612 95.6401 158.708L101.34 166.46C101.396 166.532 101.424 166.604 101.424 166.676C101.424 166.788 101.384 166.876 101.304 166.94C101.224 167.004 101.14 167.036 101.052 167.036C100.924 167.036 100.828 166.988 100.764 166.892L95.0521 159.14C94.9961 159.076 94.9681 159.004 94.9681 158.924C94.9681 158.82 95.0041 158.736 95.0761 158.672C95.1561 158.6 95.2441 158.564 95.3401 158.564ZM95.3041 167.036C95.2001 167.036 95.1201 167.004 95.0641 166.94C95.0081 166.868 94.9801 166.796 94.9801 166.724C94.9801 166.652 95.0081 166.572 95.0641 166.484L97.8241 162.728L98.2081 163.328L95.5921 166.88C95.5201 166.984 95.4241 167.036 95.3041 167.036Z" fill="#333333"/>
<path d="M232.571 170.12C231.963 170.128 231.435 170.032 230.987 169.832C230.539 169.632 230.111 169.332 229.703 168.932C229.663 168.9 229.627 168.86 229.595 168.812C229.571 168.764 229.559 168.708 229.559 168.644C229.559 168.548 229.595 168.46 229.667 168.38C229.747 168.3 229.835 168.26 229.931 168.26C230.027 168.26 230.115 168.3 230.195 168.38C230.507 168.716 230.859 168.972 231.251 169.148C231.651 169.324 232.079 169.412 232.535 169.412C232.919 169.412 233.259 169.352 233.555 169.232C233.859 169.112 234.099 168.94 234.275 168.716C234.451 168.492 234.539 168.232 234.539 167.936C234.539 167.568 234.439 167.272 234.239 167.048C234.039 166.816 233.775 166.628 233.447 166.484C233.119 166.332 232.755 166.196 232.355 166.076C232.027 165.98 231.715 165.872 231.419 165.752C231.123 165.624 230.859 165.472 230.627 165.296C230.395 165.112 230.215 164.888 230.087 164.624C229.959 164.36 229.895 164.04 229.895 163.664C229.895 163.24 230.007 162.864 230.231 162.536C230.455 162.208 230.771 161.952 231.179 161.768C231.595 161.576 232.075 161.48 232.619 161.48C233.091 161.48 233.543 161.56 233.975 161.72C234.415 161.88 234.763 162.116 235.019 162.428C235.139 162.556 235.199 162.672 235.199 162.776C235.199 162.856 235.159 162.936 235.079 163.016C234.999 163.096 234.911 163.136 234.815 163.136C234.735 163.136 234.667 163.108 234.611 163.052C234.475 162.884 234.303 162.736 234.095 162.608C233.887 162.472 233.655 162.368 233.399 162.296C233.151 162.224 232.891 162.188 232.619 162.188C232.243 162.188 231.903 162.248 231.599 162.368C231.303 162.48 231.067 162.644 230.891 162.86C230.723 163.076 230.639 163.336 230.639 163.64C230.639 163.976 230.735 164.252 230.927 164.468C231.119 164.684 231.371 164.864 231.683 165.008C231.995 165.144 232.327 165.272 232.679 165.392C233.023 165.488 233.351 165.6 233.663 165.728C233.983 165.848 234.263 166 234.503 166.184C234.751 166.368 234.943 166.6 235.079 166.88C235.223 167.16 235.295 167.512 235.295 167.936C235.295 168.344 235.179 168.712 234.947 169.04C234.715 169.368 234.395 169.628 233.987 169.82C233.587 170.012 233.115 170.112 232.571 170.12ZM240.545 170.12C239.929 170.12 239.385 169.988 238.913 169.724C238.441 169.46 238.073 169.092 237.809 168.62C237.545 168.148 237.413 167.596 237.413 166.964C237.413 166.284 237.545 165.704 237.809 165.224C238.081 164.744 238.429 164.376 238.853 164.12C239.285 163.856 239.741 163.724 240.221 163.724C240.573 163.724 240.913 163.788 241.241 163.916C241.577 164.036 241.873 164.22 242.129 164.468C242.393 164.708 242.601 165.004 242.753 165.356C242.913 165.708 243.001 166.116 243.017 166.58C243.009 166.676 242.969 166.76 242.897 166.832C242.825 166.896 242.741 166.928 242.645 166.928H237.833L237.689 166.28H242.417L242.261 166.424V166.184C242.229 165.808 242.109 165.488 241.901 165.224C241.693 164.96 241.441 164.76 241.145 164.624C240.849 164.488 240.541 164.42 240.221 164.42C239.981 164.42 239.733 164.468 239.477 164.564C239.229 164.66 239.001 164.812 238.793 165.02C238.593 165.22 238.429 165.48 238.301 165.8C238.173 166.112 238.109 166.484 238.109 166.916C238.109 167.388 238.205 167.816 238.397 168.2C238.589 168.584 238.865 168.888 239.225 169.112C239.593 169.336 240.029 169.448 240.533 169.448C240.813 169.448 241.065 169.408 241.289 169.328C241.513 169.248 241.709 169.144 241.877 169.016C242.045 168.88 242.185 168.74 242.297 168.596C242.385 168.524 242.473 168.488 242.561 168.488C242.641 168.488 242.709 168.52 242.765 168.584C242.829 168.648 242.861 168.72 242.861 168.8C242.861 168.896 242.821 168.98 242.741 169.052C242.501 169.34 242.189 169.592 241.805 169.808C241.421 170.016 241.001 170.12 240.545 170.12ZM245.879 170C245.767 170 245.679 169.964 245.615 169.892C245.551 169.82 245.519 169.736 245.519 169.64V164.264C245.519 164.168 245.551 164.084 245.615 164.012C245.687 163.94 245.775 163.904 245.879 163.904C245.983 163.904 246.067 163.94 246.131 164.012C246.203 164.084 246.239 164.168 246.239 164.264V166.064L246.059 166.1C246.083 165.82 246.151 165.544 246.263 165.272C246.383 164.992 246.543 164.736 246.743 164.504C246.943 164.272 247.179 164.084 247.451 163.94C247.731 163.796 248.043 163.724 248.387 163.724C248.531 163.724 248.671 163.756 248.807 163.82C248.943 163.876 249.011 163.972 249.011 164.108C249.011 164.228 248.979 164.32 248.915 164.384C248.851 164.448 248.775 164.48 248.687 164.48C248.615 164.48 248.535 164.46 248.447 164.42C248.367 164.38 248.259 164.36 248.123 164.36C247.899 164.36 247.675 164.428 247.451 164.564C247.227 164.692 247.023 164.868 246.839 165.092C246.655 165.316 246.507 165.568 246.395 165.848C246.291 166.12 246.239 166.396 246.239 166.676V169.64C246.239 169.736 246.203 169.82 246.131 169.892C246.059 169.964 245.975 170 245.879 170ZM251.549 163.736C251.613 163.736 251.677 163.756 251.741 163.796C251.805 163.836 251.853 163.896 251.885 163.976L253.985 168.968L253.829 169.064L255.977 163.976C256.041 163.816 256.157 163.74 256.325 163.748C256.405 163.748 256.481 163.776 256.553 163.832C256.625 163.88 256.661 163.952 256.661 164.048C256.661 164.096 256.653 164.136 256.637 164.168C256.629 164.192 256.621 164.22 256.613 164.252L254.261 169.772C254.197 169.916 254.089 169.992 253.937 170C253.865 170.008 253.793 169.992 253.721 169.952C253.657 169.904 253.609 169.844 253.577 169.772L251.213 164.252C251.205 164.236 251.197 164.212 251.189 164.18C251.181 164.148 251.177 164.116 251.177 164.084C251.177 163.996 251.209 163.916 251.273 163.844C251.337 163.772 251.429 163.736 251.549 163.736ZM259.701 169.64C259.701 169.736 259.665 169.82 259.593 169.892C259.521 169.964 259.437 170 259.341 170C259.237 170 259.149 169.964 259.077 169.892C259.013 169.82 258.981 169.736 258.981 169.64V164.12C258.981 164.024 259.013 163.94 259.077 163.868C259.149 163.796 259.237 163.76 259.341 163.76C259.445 163.76 259.529 163.796 259.593 163.868C259.665 163.94 259.701 164.024 259.701 164.12V169.64ZM259.341 162.956C259.173 162.956 259.045 162.92 258.957 162.848C258.877 162.768 258.837 162.656 258.837 162.512V162.392C258.837 162.248 258.881 162.14 258.969 162.068C259.065 161.988 259.193 161.948 259.353 161.948C259.505 161.948 259.621 161.988 259.701 162.068C259.789 162.14 259.833 162.248 259.833 162.392V162.512C259.833 162.656 259.789 162.768 259.701 162.848C259.621 162.92 259.501 162.956 259.341 162.956ZM265.231 163.724C265.615 163.724 265.967 163.768 266.287 163.856C266.607 163.936 266.863 164.048 267.055 164.192C267.255 164.336 267.355 164.492 267.355 164.66C267.355 164.74 267.327 164.82 267.271 164.9C267.215 164.972 267.139 165.008 267.043 165.008C266.947 165.008 266.867 164.984 266.803 164.936C266.747 164.888 266.687 164.832 266.623 164.768C266.567 164.704 266.483 164.644 266.371 164.588C266.267 164.54 266.119 164.496 265.927 164.456C265.735 164.416 265.515 164.396 265.267 164.396C264.819 164.396 264.415 164.508 264.055 164.732C263.695 164.956 263.411 165.26 263.203 165.644C262.995 166.02 262.891 166.444 262.891 166.916C262.891 167.396 262.991 167.828 263.191 168.212C263.391 168.596 263.667 168.9 264.019 169.124C264.371 169.34 264.783 169.448 265.255 169.448C265.575 169.448 265.823 169.42 265.999 169.364C266.175 169.308 266.327 169.244 266.455 169.172C266.607 169.084 266.715 169 266.779 168.92C266.851 168.832 266.943 168.788 267.055 168.788C267.159 168.788 267.235 168.82 267.283 168.884C267.339 168.94 267.367 169.016 267.367 169.112C267.367 169.24 267.271 169.384 267.079 169.544C266.895 169.696 266.639 169.832 266.311 169.952C265.983 170.064 265.607 170.12 265.183 170.12C264.583 170.12 264.055 169.98 263.599 169.7C263.151 169.42 262.799 169.04 262.543 168.56C262.295 168.072 262.171 167.524 262.171 166.916C262.171 166.332 262.299 165.8 262.555 165.32C262.811 164.84 263.167 164.456 263.623 164.168C264.087 163.872 264.623 163.724 265.231 163.724ZM272.474 170.12C271.858 170.12 271.314 169.988 270.842 169.724C270.37 169.46 270.002 169.092 269.738 168.62C269.474 168.148 269.342 167.596 269.342 166.964C269.342 166.284 269.474 165.704 269.738 165.224C270.01 164.744 270.358 164.376 270.782 164.12C271.214 163.856 271.67 163.724 272.15 163.724C272.502 163.724 272.842 163.788 273.17 163.916C273.506 164.036 273.802 164.22 274.058 164.468C274.322 164.708 274.53 165.004 274.682 165.356C274.842 165.708 274.93 166.116 274.946 166.58C274.938 166.676 274.898 166.76 274.826 166.832C274.754 166.896 274.67 166.928 274.574 166.928H269.762L269.618 166.28H274.346L274.19 166.424V166.184C274.158 165.808 274.038 165.488 273.83 165.224C273.622 164.96 273.37 164.76 273.074 164.624C272.778 164.488 272.47 164.42 272.15 164.42C271.91 164.42 271.662 164.468 271.406 164.564C271.158 164.66 270.93 164.812 270.722 165.02C270.522 165.22 270.358 165.48 270.23 165.8C270.102 166.112 270.038 166.484 270.038 166.916C270.038 167.388 270.134 167.816 270.326 168.2C270.518 168.584 270.794 168.888 271.154 169.112C271.522 169.336 271.958 169.448 272.462 169.448C272.742 169.448 272.994 169.408 273.218 169.328C273.442 169.248 273.638 169.144 273.806 169.016C273.974 168.88 274.114 168.74 274.226 168.596C274.314 168.524 274.402 168.488 274.49 168.488C274.57 168.488 274.638 168.52 274.694 168.584C274.758 168.648 274.79 168.72 274.79 168.8C274.79 168.896 274.75 168.98 274.67 169.052C274.43 169.34 274.118 169.592 273.734 169.808C273.35 170.016 272.93 170.12 272.474 170.12ZM284.389 163.724C284.773 163.724 285.125 163.768 285.445 163.856C285.765 163.936 286.021 164.048 286.213 164.192C286.413 164.336 286.513 164.492 286.513 164.66C286.513 164.74 286.485 164.82 286.429 164.9C286.373 164.972 286.297 165.008 286.201 165.008C286.105 165.008 286.025 164.984 285.961 164.936C285.905 164.888 285.845 164.832 285.781 164.768C285.725 164.704 285.641 164.644 285.529 164.588C285.425 164.54 285.277 164.496 285.085 164.456C284.893 164.416 284.673 164.396 284.425 164.396C283.977 164.396 283.573 164.508 283.213 164.732C282.853 164.956 282.569 165.26 282.361 165.644C282.153 166.02 282.049 166.444 282.049 166.916C282.049 167.396 282.149 167.828 282.349 168.212C282.549 168.596 282.825 168.9 283.177 169.124C283.529 169.34 283.941 169.448 284.413 169.448C284.733 169.448 284.981 169.42 285.157 169.364C285.333 169.308 285.485 169.244 285.613 169.172C285.765 169.084 285.873 169 285.937 168.92C286.009 168.832 286.101 168.788 286.213 168.788C286.317 168.788 286.393 168.82 286.441 168.884C286.497 168.94 286.525 169.016 286.525 169.112C286.525 169.24 286.429 169.384 286.237 169.544C286.053 169.696 285.797 169.832 285.469 169.952C285.141 170.064 284.765 170.12 284.341 170.12C283.741 170.12 283.213 169.98 282.757 169.7C282.309 169.42 281.957 169.04 281.701 168.56C281.453 168.072 281.329 167.524 281.329 166.916C281.329 166.332 281.457 165.8 281.713 165.32C281.969 164.84 282.325 164.456 282.781 164.168C283.245 163.872 283.781 163.724 284.389 163.724ZM289.652 169.64C289.652 169.736 289.616 169.82 289.544 169.892C289.472 169.964 289.388 170 289.292 170C289.188 170 289.1 169.964 289.028 169.892C288.964 169.82 288.932 169.736 288.932 169.64V161.48C288.932 161.384 288.968 161.3 289.04 161.228C289.112 161.156 289.196 161.12 289.292 161.12C289.396 161.12 289.48 161.156 289.544 161.228C289.616 161.3 289.652 161.384 289.652 161.48V169.64ZM293.281 169.64C293.281 169.736 293.245 169.82 293.173 169.892C293.101 169.964 293.017 170 292.921 170C292.817 170 292.729 169.964 292.657 169.892C292.593 169.82 292.561 169.736 292.561 169.64V164.12C292.561 164.024 292.593 163.94 292.657 163.868C292.729 163.796 292.817 163.76 292.921 163.76C293.025 163.76 293.109 163.796 293.173 163.868C293.245 163.94 293.281 164.024 293.281 164.12V169.64ZM292.921 162.956C292.753 162.956 292.625 162.92 292.537 162.848C292.457 162.768 292.417 162.656 292.417 162.512V162.392C292.417 162.248 292.461 162.14 292.549 162.068C292.645 161.988 292.773 161.948 292.933 161.948C293.085 161.948 293.201 161.988 293.281 162.068C293.369 162.14 293.413 162.248 293.413 162.392V162.512C293.413 162.656 293.369 162.768 293.281 162.848C293.201 162.92 293.081 162.956 292.921 162.956ZM298.884 170.12C298.268 170.12 297.724 169.988 297.252 169.724C296.78 169.46 296.412 169.092 296.148 168.62C295.884 168.148 295.752 167.596 295.752 166.964C295.752 166.284 295.884 165.704 296.148 165.224C296.42 164.744 296.768 164.376 297.192 164.12C297.624 163.856 298.08 163.724 298.56 163.724C298.912 163.724 299.252 163.788 299.58 163.916C299.916 164.036 300.212 164.22 300.468 164.468C300.732 164.708 300.94 165.004 301.092 165.356C301.252 165.708 301.34 166.116 301.356 166.58C301.348 166.676 301.308 166.76 301.236 166.832C301.164 166.896 301.08 166.928 300.984 166.928H296.172L296.028 166.28H300.756L300.6 166.424V166.184C300.568 165.808 300.448 165.488 300.24 165.224C300.032 164.96 299.78 164.76 299.484 164.624C299.188 164.488 298.88 164.42 298.56 164.42C298.32 164.42 298.072 164.468 297.816 164.564C297.568 164.66 297.34 164.812 297.132 165.02C296.932 165.22 296.768 165.48 296.64 165.8C296.512 166.112 296.448 166.484 296.448 166.916C296.448 167.388 296.544 167.816 296.736 168.2C296.928 168.584 297.204 168.888 297.564 169.112C297.932 169.336 298.368 169.448 298.872 169.448C299.152 169.448 299.404 169.408 299.628 169.328C299.852 169.248 300.048 169.144 300.216 169.016C300.384 168.88 300.524 168.74 300.636 168.596C300.724 168.524 300.812 168.488 300.9 168.488C300.98 168.488 301.048 168.52 301.104 168.584C301.168 168.648 301.2 168.72 301.2 168.8C301.2 168.896 301.16 168.98 301.08 169.052C300.84 169.34 300.528 169.592 300.144 169.808C299.76 170.016 299.34 170.12 298.884 170.12ZM306.749 163.724C307.277 163.724 307.697 163.832 308.009 164.048C308.329 164.256 308.557 164.544 308.693 164.912C308.837 165.272 308.909 165.672 308.909 166.112V169.64C308.909 169.736 308.873 169.82 308.801 169.892C308.729 169.964 308.645 170 308.549 170C308.437 170 308.349 169.964 308.285 169.892C308.221 169.82 308.189 169.736 308.189 169.64V166.148C308.189 165.828 308.137 165.536 308.033 165.272C307.929 165.008 307.757 164.796 307.517 164.636C307.285 164.476 306.977 164.396 306.593 164.396C306.249 164.396 305.921 164.476 305.609 164.636C305.305 164.796 305.057 165.008 304.865 165.272C304.673 165.536 304.577 165.828 304.577 166.148V169.64C304.577 169.736 304.541 169.82 304.469 169.892C304.397 169.964 304.313 170 304.217 170C304.105 170 304.017 169.964 303.953 169.892C303.889 169.82 303.857 169.736 303.857 169.64V164.264C303.857 164.168 303.889 164.084 303.953 164.012C304.025 163.94 304.113 163.904 304.217 163.904C304.321 163.904 304.405 163.94 304.469 164.012C304.541 164.084 304.577 164.168 304.577 164.264V165.272L304.301 165.704C304.317 165.448 304.397 165.204 304.541 164.972C304.693 164.732 304.885 164.52 305.117 164.336C305.349 164.144 305.605 163.996 305.885 163.892C306.173 163.78 306.461 163.724 306.749 163.724ZM311.358 163.892H314.154C314.25 163.892 314.33 163.928 314.394 164C314.458 164.064 314.49 164.144 314.49 164.24C314.49 164.328 314.458 164.404 314.394 164.468C314.33 164.532 314.25 164.564 314.154 164.564H311.358C311.262 164.564 311.178 164.532 311.106 164.468C311.042 164.396 311.01 164.316 311.01 164.228C311.01 164.132 311.042 164.052 311.106 163.988C311.178 163.924 311.262 163.892 311.358 163.892ZM312.594 162.2C312.698 162.2 312.782 162.236 312.846 162.308C312.918 162.38 312.954 162.464 312.954 162.56V168.584C312.954 168.808 312.982 168.976 313.038 169.088C313.102 169.2 313.182 169.276 313.278 169.316C313.374 169.348 313.47 169.364 313.566 169.364C313.63 169.364 313.686 169.356 313.734 169.34C313.79 169.316 313.85 169.304 313.914 169.304C313.986 169.304 314.046 169.332 314.094 169.388C314.15 169.444 314.178 169.516 314.178 169.604C314.178 169.716 314.114 169.812 313.986 169.892C313.858 169.964 313.706 170 313.53 170C313.458 170 313.35 169.996 313.206 169.988C313.062 169.972 312.914 169.928 312.762 169.856C312.61 169.776 312.482 169.64 312.378 169.448C312.282 169.256 312.234 168.98 312.234 168.62V162.56C312.234 162.464 312.266 162.38 312.33 162.308C312.402 162.236 312.49 162.2 312.594 162.2Z" fill="#333333"/>
<path d="M253.368 93.6C253.816 93.6 254.212 93.704 254.556 93.912C254.9 94.112 255.172 94.392 255.372 94.752C255.572 95.112 255.672 95.524 255.672 95.988C255.672 96.452 255.572 96.872 255.372 97.248C255.172 97.616 254.9 97.908 254.556 98.124C254.212 98.34 253.816 98.448 253.368 98.448H250.824L250.884 98.328V101.64C250.884 101.736 250.848 101.82 250.776 101.892C250.704 101.964 250.62 102 250.524 102C250.412 102 250.324 101.964 250.26 101.892C250.196 101.82 250.164 101.736 250.164 101.64V93.96C250.164 93.864 250.2 93.78 250.272 93.708C250.344 93.636 250.428 93.6 250.524 93.6H253.368ZM253.368 97.752C253.68 97.752 253.952 97.676 254.184 97.524C254.416 97.364 254.596 97.152 254.724 96.888C254.86 96.616 254.928 96.316 254.928 95.988C254.928 95.66 254.86 95.372 254.724 95.124C254.596 94.868 254.416 94.668 254.184 94.524C253.952 94.38 253.68 94.308 253.368 94.308H250.824L250.884 94.2V97.824L250.812 97.752H253.368ZM260.747 102.12C260.131 102.12 259.587 101.988 259.115 101.724C258.643 101.46 258.275 101.092 258.011 100.62C257.747 100.148 257.615 99.596 257.615 98.964C257.615 98.284 257.747 97.704 258.011 97.224C258.283 96.744 258.631 96.376 259.055 96.12C259.487 95.856 259.943 95.724 260.423 95.724C260.775 95.724 261.115 95.788 261.443 95.916C261.779 96.036 262.075 96.22 262.331 96.468C262.595 96.708 262.803 97.004 262.955 97.356C263.115 97.708 263.203 98.116 263.219 98.58C263.211 98.676 263.171 98.76 263.099 98.832C263.027 98.896 262.943 98.928 262.847 98.928H258.035L257.891 98.28H262.619L262.463 98.424V98.184C262.431 97.808 262.311 97.488 262.103 97.224C261.895 96.96 261.643 96.76 261.347 96.624C261.051 96.488 260.743 96.42 260.423 96.42C260.183 96.42 259.935 96.468 259.679 96.564C259.431 96.66 259.203 96.812 258.995 97.02C258.795 97.22 258.631 97.48 258.503 97.8C258.375 98.112 258.311 98.484 258.311 98.916C258.311 99.388 258.407 99.816 258.599 100.2C258.791 100.584 259.067 100.888 259.427 101.112C259.795 101.336 260.231 101.448 260.735 101.448C261.015 101.448 261.267 101.408 261.491 101.328C261.715 101.248 261.911 101.144 262.079 101.016C262.247 100.88 262.387 100.74 262.499 100.596C262.587 100.524 262.675 100.488 262.763 100.488C262.843 100.488 262.911 100.52 262.967 100.584C263.031 100.648 263.063 100.72 263.063 100.8C263.063 100.896 263.023 100.98 262.943 101.052C262.703 101.34 262.391 101.592 262.007 101.808C261.623 102.016 261.203 102.12 260.747 102.12ZM266.08 102C265.968 102 265.88 101.964 265.816 101.892C265.752 101.82 265.72 101.736 265.72 101.64V96.264C265.72 96.168 265.752 96.084 265.816 96.012C265.888 95.94 265.976 95.904 266.08 95.904C266.184 95.904 266.268 95.94 266.332 96.012C266.404 96.084 266.44 96.168 266.44 96.264V98.064L266.26 98.1C266.284 97.82 266.352 97.544 266.464 97.272C266.584 96.992 266.744 96.736 266.944 96.504C267.144 96.272 267.38 96.084 267.652 95.94C267.932 95.796 268.244 95.724 268.588 95.724C268.732 95.724 268.872 95.756 269.008 95.82C269.144 95.876 269.212 95.972 269.212 96.108C269.212 96.228 269.18 96.32 269.116 96.384C269.052 96.448 268.976 96.48 268.888 96.48C268.816 96.48 268.736 96.46 268.648 96.42C268.568 96.38 268.46 96.36 268.324 96.36C268.1 96.36 267.876 96.428 267.652 96.564C267.428 96.692 267.224 96.868 267.04 97.092C266.856 97.316 266.708 97.568 266.596 97.848C266.492 98.12 266.44 98.396 266.44 98.676V101.64C266.44 101.736 266.404 101.82 266.332 101.892C266.26 101.964 266.176 102 266.08 102ZM273.518 93.168C273.638 93.168 273.766 93.18 273.902 93.204C274.046 93.228 274.17 93.272 274.274 93.336C274.378 93.392 274.43 93.48 274.43 93.6C274.43 93.688 274.398 93.768 274.334 93.84C274.27 93.904 274.198 93.936 274.118 93.936C274.038 93.936 273.938 93.916 273.818 93.876C273.698 93.828 273.57 93.804 273.434 93.804C273.266 93.804 273.122 93.844 273.002 93.924C272.882 93.996 272.79 94.104 272.726 94.248C272.662 94.384 272.63 94.552 272.63 94.752V101.64C272.63 101.736 272.594 101.82 272.522 101.892C272.458 101.964 272.374 102 272.27 102C272.166 102 272.078 101.964 272.006 101.892C271.942 101.82 271.91 101.736 271.91 101.64V94.752C271.91 94.24 272.058 93.848 272.354 93.576C272.658 93.304 273.046 93.168 273.518 93.168ZM273.974 95.988C274.07 95.988 274.15 96.02 274.214 96.084C274.278 96.148 274.31 96.228 274.31 96.324C274.31 96.42 274.278 96.5 274.214 96.564C274.15 96.628 274.07 96.66 273.974 96.66H271.034C270.946 96.66 270.866 96.628 270.794 96.564C270.73 96.492 270.698 96.412 270.698 96.324C270.698 96.22 270.73 96.14 270.794 96.084C270.866 96.02 270.946 95.988 271.034 95.988H273.974ZM281.848 98.928C281.848 99.536 281.716 100.084 281.452 100.572C281.188 101.052 280.828 101.432 280.372 101.712C279.916 101.984 279.396 102.12 278.812 102.12C278.244 102.12 277.728 101.984 277.264 101.712C276.808 101.432 276.444 101.052 276.172 100.572C275.908 100.084 275.776 99.536 275.776 98.928C275.776 98.312 275.908 97.764 276.172 97.284C276.444 96.804 276.808 96.424 277.264 96.144C277.728 95.864 278.244 95.724 278.812 95.724C279.396 95.724 279.916 95.864 280.372 96.144C280.828 96.424 281.188 96.804 281.452 97.284C281.716 97.764 281.848 98.312 281.848 98.928ZM281.128 98.928C281.128 98.44 281.028 98.008 280.828 97.632C280.628 97.248 280.352 96.948 280 96.732C279.656 96.508 279.26 96.396 278.812 96.396C278.38 96.396 277.988 96.508 277.636 96.732C277.284 96.948 277.004 97.248 276.796 97.632C276.596 98.008 276.496 98.44 276.496 98.928C276.496 99.416 276.596 99.848 276.796 100.224C277.004 100.6 277.284 100.9 277.636 101.124C277.988 101.34 278.38 101.448 278.812 101.448C279.26 101.448 279.656 101.34 280 101.124C280.352 100.9 280.628 100.6 280.828 100.224C281.028 99.848 281.128 99.416 281.128 98.928ZM284.699 102C284.587 102 284.499 101.964 284.435 101.892C284.371 101.82 284.339 101.736 284.339 101.64V96.264C284.339 96.168 284.371 96.084 284.435 96.012C284.507 95.94 284.595 95.904 284.699 95.904C284.803 95.904 284.887 95.94 284.951 96.012C285.023 96.084 285.059 96.168 285.059 96.264V98.064L284.879 98.1C284.903 97.82 284.971 97.544 285.083 97.272C285.203 96.992 285.363 96.736 285.563 96.504C285.763 96.272 285.999 96.084 286.271 95.94C286.551 95.796 286.863 95.724 287.207 95.724C287.351 95.724 287.491 95.756 287.627 95.82C287.763 95.876 287.831 95.972 287.831 96.108C287.831 96.228 287.799 96.32 287.735 96.384C287.671 96.448 287.595 96.48 287.507 96.48C287.435 96.48 287.355 96.46 287.267 96.42C287.187 96.38 287.079 96.36 286.943 96.36C286.719 96.36 286.495 96.428 286.271 96.564C286.047 96.692 285.843 96.868 285.659 97.092C285.475 97.316 285.327 97.568 285.215 97.848C285.111 98.12 285.059 98.396 285.059 98.676V101.64C285.059 101.736 285.023 101.82 284.951 101.892C284.879 101.964 284.795 102 284.699 102ZM292.676 95.82C293.172 95.82 293.596 95.952 293.948 96.216C294.3 96.472 294.54 96.856 294.668 97.368L294.5 97.416L294.572 97.2C294.676 96.96 294.848 96.736 295.088 96.528C295.336 96.312 295.616 96.14 295.928 96.012C296.24 95.884 296.556 95.82 296.876 95.82C297.38 95.82 297.784 95.928 298.088 96.144C298.4 96.36 298.624 96.652 298.76 97.02C298.904 97.38 298.976 97.788 298.976 98.244V101.64C298.976 101.736 298.94 101.82 298.868 101.892C298.804 101.964 298.72 102 298.616 102C298.512 102 298.424 101.964 298.352 101.892C298.288 101.82 298.256 101.736 298.256 101.64V98.28C298.256 97.952 298.204 97.652 298.1 97.38C297.996 97.108 297.832 96.892 297.608 96.732C297.384 96.572 297.084 96.492 296.708 96.492C296.38 96.492 296.064 96.572 295.76 96.732C295.464 96.892 295.22 97.108 295.028 97.38C294.844 97.652 294.752 97.952 294.752 98.28V101.64C294.752 101.736 294.716 101.82 294.644 101.892C294.58 101.964 294.496 102 294.392 102C294.288 102 294.2 101.964 294.128 101.892C294.064 101.82 294.032 101.736 294.032 101.64V98.244C294.032 97.916 293.984 97.62 293.888 97.356C293.792 97.092 293.636 96.884 293.42 96.732C293.204 96.572 292.912 96.492 292.544 96.492C292.216 96.492 291.904 96.572 291.608 96.732C291.32 96.884 291.084 97.092 290.9 97.356C290.724 97.62 290.636 97.916 290.636 98.244V101.64C290.636 101.736 290.6 101.82 290.528 101.892C290.456 101.964 290.372 102 290.276 102C290.164 102 290.076 101.964 290.012 101.892C289.948 101.82 289.916 101.736 289.916 101.64V96.264C289.916 96.168 289.948 96.084 290.012 96.012C290.084 95.94 290.172 95.904 290.276 95.904C290.38 95.904 290.464 95.94 290.528 96.012C290.6 96.084 290.636 96.168 290.636 96.264V97.38L290.312 97.824C290.336 97.584 290.412 97.344 290.54 97.104C290.676 96.864 290.852 96.648 291.068 96.456C291.284 96.264 291.528 96.112 291.8 96C292.08 95.88 292.372 95.82 292.676 95.82ZM306.849 95.868C306.953 95.868 307.037 95.904 307.101 95.976C307.173 96.048 307.209 96.136 307.209 96.24V101.64C307.209 101.736 307.173 101.82 307.101 101.892C307.029 101.964 306.945 102 306.849 102C306.745 102 306.657 101.964 306.585 101.892C306.521 101.82 306.489 101.736 306.489 101.64V100.212L306.693 100.116C306.693 100.34 306.629 100.568 306.501 100.8C306.381 101.032 306.213 101.248 305.997 101.448C305.781 101.648 305.525 101.812 305.229 101.94C304.941 102.06 304.629 102.12 304.293 102.12C303.749 102.12 303.261 101.98 302.829 101.7C302.405 101.42 302.069 101.036 301.821 100.548C301.581 100.06 301.461 99.512 301.461 98.904C301.461 98.28 301.585 97.732 301.833 97.26C302.081 96.78 302.417 96.404 302.841 96.132C303.265 95.86 303.745 95.724 304.281 95.724C304.625 95.724 304.945 95.784 305.241 95.904C305.545 96.024 305.809 96.188 306.033 96.396C306.257 96.604 306.429 96.844 306.549 97.116C306.677 97.38 306.741 97.656 306.741 97.944L306.489 97.764V96.24C306.489 96.136 306.521 96.048 306.585 95.976C306.657 95.904 306.745 95.868 306.849 95.868ZM304.353 101.448C304.777 101.448 305.153 101.34 305.481 101.124C305.809 100.9 306.065 100.596 306.249 100.212C306.441 99.82 306.537 99.384 306.537 98.904C306.537 98.432 306.441 98.008 306.249 97.632C306.065 97.256 305.809 96.956 305.481 96.732C305.153 96.508 304.777 96.396 304.353 96.396C303.937 96.396 303.561 96.504 303.225 96.72C302.897 96.936 302.637 97.232 302.445 97.608C302.261 97.984 302.169 98.416 302.169 98.904C302.169 99.384 302.261 99.82 302.445 100.212C302.637 100.596 302.897 100.9 303.225 101.124C303.553 101.34 303.929 101.448 304.353 101.448ZM312.95 95.724C313.478 95.724 313.898 95.832 314.21 96.048C314.53 96.256 314.758 96.544 314.894 96.912C315.038 97.272 315.11 97.672 315.11 98.112V101.64C315.11 101.736 315.074 101.82 315.002 101.892C314.93 101.964 314.846 102 314.75 102C314.638 102 314.55 101.964 314.486 101.892C314.422 101.82 314.39 101.736 314.39 101.64V98.148C314.39 97.828 314.338 97.536 314.234 97.272C314.13 97.008 313.958 96.796 313.718 96.636C313.486 96.476 313.178 96.396 312.794 96.396C312.45 96.396 312.122 96.476 311.81 96.636C311.506 96.796 311.258 97.008 311.066 97.272C310.874 97.536 310.778 97.828 310.778 98.148V101.64C310.778 101.736 310.742 101.82 310.67 101.892C310.598 101.964 310.514 102 310.418 102C310.306 102 310.218 101.964 310.154 101.892C310.09 101.82 310.058 101.736 310.058 101.64V96.264C310.058 96.168 310.09 96.084 310.154 96.012C310.226 95.94 310.314 95.904 310.418 95.904C310.522 95.904 310.606 95.94 310.67 96.012C310.742 96.084 310.778 96.168 310.778 96.264V97.272L310.502 97.704C310.518 97.448 310.598 97.204 310.742 96.972C310.894 96.732 311.086 96.52 311.318 96.336C311.55 96.144 311.806 95.996 312.086 95.892C312.374 95.78 312.662 95.724 312.95 95.724ZM320.656 95.724C321.04 95.724 321.392 95.768 321.712 95.856C322.032 95.936 322.288 96.048 322.48 96.192C322.68 96.336 322.78 96.492 322.78 96.66C322.78 96.74 322.752 96.82 322.696 96.9C322.64 96.972 322.564 97.008 322.468 97.008C322.372 97.008 322.292 96.984 322.228 96.936C322.172 96.888 322.112 96.832 322.048 96.768C321.992 96.704 321.908 96.644 321.796 96.588C321.692 96.54 321.544 96.496 321.352 96.456C321.16 96.416 320.94 96.396 320.692 96.396C320.244 96.396 319.84 96.508 319.48 96.732C319.12 96.956 318.836 97.26 318.628 97.644C318.42 98.02 318.316 98.444 318.316 98.916C318.316 99.396 318.416 99.828 318.616 100.212C318.816 100.596 319.092 100.9 319.444 101.124C319.796 101.34 320.208 101.448 320.68 101.448C321 101.448 321.248 101.42 321.424 101.364C321.6 101.308 321.752 101.244 321.88 101.172C322.032 101.084 322.14 101 322.204 100.92C322.276 100.832 322.368 100.788 322.48 100.788C322.584 100.788 322.66 100.82 322.708 100.884C322.764 100.94 322.792 101.016 322.792 101.112C322.792 101.24 322.696 101.384 322.504 101.544C322.32 101.696 322.064 101.832 321.736 101.952C321.408 102.064 321.032 102.12 320.608 102.12C320.008 102.12 319.48 101.98 319.024 101.7C318.576 101.42 318.224 101.04 317.968 100.56C317.72 100.072 317.596 99.524 317.596 98.916C317.596 98.332 317.724 97.8 317.98 97.32C318.236 96.84 318.592 96.456 319.048 96.168C319.512 95.872 320.048 95.724 320.656 95.724ZM327.899 102.12C327.283 102.12 326.739 101.988 326.267 101.724C325.795 101.46 325.427 101.092 325.163 100.62C324.899 100.148 324.767 99.596 324.767 98.964C324.767 98.284 324.899 97.704 325.163 97.224C325.435 96.744 325.783 96.376 326.207 96.12C326.639 95.856 327.095 95.724 327.575 95.724C327.927 95.724 328.267 95.788 328.595 95.916C328.931 96.036 329.227 96.22 329.483 96.468C329.747 96.708 329.955 97.004 330.107 97.356C330.267 97.708 330.355 98.116 330.371 98.58C330.363 98.676 330.323 98.76 330.251 98.832C330.179 98.896 330.095 98.928 329.999 98.928H325.187L325.043 98.28H329.771L329.615 98.424V98.184C329.583 97.808 329.463 97.488 329.255 97.224C329.047 96.96 328.795 96.76 328.499 96.624C328.203 96.488 327.895 96.42 327.575 96.42C327.335 96.42 327.087 96.468 326.831 96.564C326.583 96.66 326.355 96.812 326.147 97.02C325.947 97.22 325.783 97.48 325.655 97.8C325.527 98.112 325.463 98.484 325.463 98.916C325.463 99.388 325.559 99.816 325.751 100.2C325.943 100.584 326.219 100.888 326.579 101.112C326.947 101.336 327.383 101.448 327.887 101.448C328.167 101.448 328.419 101.408 328.643 101.328C328.867 101.248 329.063 101.144 329.231 101.016C329.399 100.88 329.539 100.74 329.651 100.596C329.739 100.524 329.827 100.488 329.915 100.488C329.995 100.488 330.063 100.52 330.119 100.584C330.183 100.648 330.215 100.72 330.215 100.8C330.215 100.896 330.175 100.98 330.095 101.052C329.855 101.34 329.543 101.592 329.159 101.808C328.775 102.016 328.355 102.12 327.899 102.12Z" fill="#333333"/>
<path d="M4.29514 95.524L1.37914 102.772C1.34714 102.852 1.30314 102.912 1.24714 102.952C1.19114 102.992 1.12714 103.012 1.05514 103.012C0.943142 103.012 0.859142 102.984 0.803142 102.928C0.747142 102.864 0.715142 102.788 0.707142 102.7C0.699142 102.66 0.703142 102.612 0.719142 102.556L3.88714 94.804C3.92714 94.716 3.97514 94.656 4.03114 94.624C4.09514 94.584 4.16714 94.564 4.24714 94.564C4.32714 94.564 4.39514 94.588 4.45114 94.636C4.51514 94.676 4.56314 94.732 4.59514 94.804L7.75114 102.52C7.76714 102.568 7.77514 102.616 7.77514 102.664C7.77514 102.776 7.73914 102.864 7.66714 102.928C7.59514 102.984 7.51114 103.012 7.41514 103.012C7.33514 103.012 7.26314 102.992 7.19914 102.952C7.14314 102.904 7.09914 102.844 7.06714 102.772L4.07914 95.476L4.29514 95.524ZM2.07514 100.576L2.37514 99.868H6.09514L6.23914 100.576H2.07514ZM12.7367 96.724C13.1207 96.724 13.4727 96.768 13.7927 96.856C14.1127 96.936 14.3687 97.048 14.5607 97.192C14.7607 97.336 14.8607 97.492 14.8607 97.66C14.8607 97.74 14.8327 97.82 14.7767 97.9C14.7207 97.972 14.6447 98.008 14.5487 98.008C14.4527 98.008 14.3727 97.984 14.3087 97.936C14.2527 97.888 14.1927 97.832 14.1287 97.768C14.0727 97.704 13.9887 97.644 13.8767 97.588C13.7727 97.54 13.6247 97.496 13.4327 97.456C13.2407 97.416 13.0207 97.396 12.7727 97.396C12.3247 97.396 11.9207 97.508 11.5607 97.732C11.2007 97.956 10.9167 98.26 10.7087 98.644C10.5007 99.02 10.3967 99.444 10.3967 99.916C10.3967 100.396 10.4967 100.828 10.6967 101.212C10.8967 101.596 11.1727 101.9 11.5247 102.124C11.8767 102.34 12.2887 102.448 12.7607 102.448C13.0807 102.448 13.3287 102.42 13.5047 102.364C13.6807 102.308 13.8327 102.244 13.9607 102.172C14.1127 102.084 14.2207 102 14.2847 101.92C14.3567 101.832 14.4487 101.788 14.5607 101.788C14.6647 101.788 14.7407 101.82 14.7887 101.884C14.8447 101.94 14.8727 102.016 14.8727 102.112C14.8727 102.24 14.7767 102.384 14.5847 102.544C14.4007 102.696 14.1447 102.832 13.8167 102.952C13.4887 103.064 13.1127 103.12 12.6887 103.12C12.0887 103.12 11.5607 102.98 11.1047 102.7C10.6567 102.42 10.3047 102.04 10.0487 101.56C9.80067 101.072 9.67667 100.524 9.67667 99.916C9.67667 99.332 9.80467 98.8 10.0607 98.32C10.3167 97.84 10.6727 97.456 11.1287 97.168C11.5927 96.872 12.1287 96.724 12.7367 96.724ZM19.9076 96.724C20.2916 96.724 20.6436 96.768 20.9636 96.856C21.2836 96.936 21.5396 97.048 21.7316 97.192C21.9316 97.336 22.0316 97.492 22.0316 97.66C22.0316 97.74 22.0036 97.82 21.9476 97.9C21.8916 97.972 21.8156 98.008 21.7196 98.008C21.6236 98.008 21.5436 97.984 21.4796 97.936C21.4236 97.888 21.3636 97.832 21.2996 97.768C21.2436 97.704 21.1596 97.644 21.0476 97.588C20.9436 97.54 20.7956 97.496 20.6036 97.456C20.4116 97.416 20.1916 97.396 19.9436 97.396C19.4956 97.396 19.0916 97.508 18.7316 97.732C18.3716 97.956 18.0876 98.26 17.8796 98.644C17.6716 99.02 17.5676 99.444 17.5676 99.916C17.5676 100.396 17.6676 100.828 17.8676 101.212C18.0676 101.596 18.3436 101.9 18.6956 102.124C19.0476 102.34 19.4596 102.448 19.9316 102.448C20.2516 102.448 20.4996 102.42 20.6756 102.364C20.8516 102.308 21.0036 102.244 21.1316 102.172C21.2836 102.084 21.3916 102 21.4556 101.92C21.5276 101.832 21.6196 101.788 21.7316 101.788C21.8356 101.788 21.9116 101.82 21.9596 101.884C22.0156 101.94 22.0436 102.016 22.0436 102.112C22.0436 102.24 21.9476 102.384 21.7556 102.544C21.5716 102.696 21.3156 102.832 20.9876 102.952C20.6596 103.064 20.2836 103.12 19.8596 103.12C19.2596 103.12 18.7316 102.98 18.2756 102.7C17.8276 102.42 17.4756 102.04 17.2196 101.56C16.9716 101.072 16.8476 100.524 16.8476 99.916C16.8476 99.332 16.9756 98.8 17.2316 98.32C17.4876 97.84 17.8436 97.456 18.2996 97.168C18.7636 96.872 19.2996 96.724 19.9076 96.724ZM27.1505 103.12C26.5345 103.12 25.9905 102.988 25.5185 102.724C25.0465 102.46 24.6785 102.092 24.4145 101.62C24.1505 101.148 24.0185 100.596 24.0185 99.964C24.0185 99.284 24.1505 98.704 24.4145 98.224C24.6865 97.744 25.0345 97.376 25.4585 97.12C25.8905 96.856 26.3465 96.724 26.8265 96.724C27.1785 96.724 27.5185 96.788 27.8465 96.916C28.1825 97.036 28.4785 97.22 28.7345 97.468C28.9985 97.708 29.2065 98.004 29.3585 98.356C29.5185 98.708 29.6065 99.116 29.6225 99.58C29.6145 99.676 29.5745 99.76 29.5025 99.832C29.4305 99.896 29.3465 99.928 29.2505 99.928H24.4385L24.2945 99.28H29.0225L28.8665 99.424V99.184C28.8345 98.808 28.7145 98.488 28.5065 98.224C28.2985 97.96 28.0465 97.76 27.7505 97.624C27.4545 97.488 27.1465 97.42 26.8265 97.42C26.5865 97.42 26.3385 97.468 26.0825 97.564C25.8345 97.66 25.6065 97.812 25.3985 98.02C25.1985 98.22 25.0345 98.48 24.9065 98.8C24.7785 99.112 24.7145 99.484 24.7145 99.916C24.7145 100.388 24.8105 100.816 25.0025 101.2C25.1945 101.584 25.4705 101.888 25.8305 102.112C26.1985 102.336 26.6345 102.448 27.1385 102.448C27.4185 102.448 27.6705 102.408 27.8945 102.328C28.1185 102.248 28.3145 102.144 28.4825 102.016C28.6505 101.88 28.7905 101.74 28.9025 101.596C28.9905 101.524 29.0785 101.488 29.1665 101.488C29.2465 101.488 29.3145 101.52 29.3705 101.584C29.4345 101.648 29.4665 101.72 29.4665 101.8C29.4665 101.896 29.4265 101.98 29.3465 102.052C29.1065 102.34 28.7945 102.592 28.4105 102.808C28.0265 103.016 27.6065 103.12 27.1505 103.12ZM31.7757 102.028C31.7117 101.932 31.6797 101.84 31.6797 101.752C31.6877 101.656 31.7397 101.58 31.8357 101.524C31.8997 101.468 31.9717 101.444 32.0517 101.452C32.1397 101.46 32.2197 101.5 32.2917 101.572C32.5077 101.852 32.7677 102.08 33.0717 102.256C33.3837 102.424 33.7517 102.508 34.1757 102.508C34.3997 102.508 34.6197 102.472 34.8357 102.4C35.0597 102.32 35.2437 102.204 35.3877 102.052C35.5317 101.892 35.6037 101.692 35.6037 101.452C35.6037 101.204 35.5317 101.004 35.3877 100.852C35.2437 100.7 35.0557 100.58 34.8237 100.492C34.5997 100.404 34.3597 100.328 34.1037 100.264C33.8317 100.192 33.5677 100.112 33.3117 100.024C33.0557 99.928 32.8277 99.812 32.6277 99.676C32.4357 99.532 32.2797 99.36 32.1597 99.16C32.0397 98.96 31.9797 98.716 31.9797 98.428C31.9797 98.092 32.0717 97.796 32.2557 97.54C32.4397 97.284 32.6877 97.084 32.9997 96.94C33.3197 96.796 33.6797 96.724 34.0797 96.724C34.2797 96.724 34.4957 96.752 34.7277 96.808C34.9597 96.856 35.1877 96.94 35.4117 97.06C35.6357 97.18 35.8357 97.344 36.0117 97.552C36.0837 97.624 36.1197 97.708 36.1197 97.804C36.1197 97.892 36.0797 97.972 35.9997 98.044C35.9357 98.092 35.8597 98.116 35.7717 98.116C35.6917 98.116 35.6237 98.084 35.5677 98.02C35.3757 97.804 35.1477 97.64 34.8837 97.528C34.6197 97.416 34.3357 97.36 34.0317 97.36C33.7997 97.36 33.5797 97.4 33.3717 97.48C33.1717 97.552 33.0037 97.664 32.8677 97.816C32.7317 97.968 32.6637 98.168 32.6637 98.416C32.6797 98.648 32.7597 98.836 32.9037 98.98C33.0557 99.124 33.2517 99.244 33.4917 99.34C33.7397 99.436 34.0157 99.524 34.3197 99.604C34.5757 99.668 34.8197 99.744 35.0517 99.832C35.2917 99.92 35.4997 100.032 35.6757 100.168C35.8597 100.296 36.0037 100.46 36.1077 100.66C36.2197 100.86 36.2757 101.112 36.2757 101.416C36.2757 101.768 36.1757 102.072 35.9757 102.328C35.7837 102.584 35.5237 102.78 35.1957 102.916C34.8677 103.052 34.5037 103.12 34.1037 103.12C33.6717 103.12 33.2517 103.036 32.8437 102.868C32.4437 102.7 32.0877 102.42 31.7757 102.028ZM38.3607 102.028C38.2967 101.932 38.2647 101.84 38.2647 101.752C38.2727 101.656 38.3247 101.58 38.4207 101.524C38.4847 101.468 38.5567 101.444 38.6367 101.452C38.7247 101.46 38.8047 101.5 38.8767 101.572C39.0927 101.852 39.3527 102.08 39.6567 102.256C39.9687 102.424 40.3367 102.508 40.7607 102.508C40.9847 102.508 41.2047 102.472 41.4207 102.4C41.6447 102.32 41.8287 102.204 41.9727 102.052C42.1167 101.892 42.1887 101.692 42.1887 101.452C42.1887 101.204 42.1167 101.004 41.9727 100.852C41.8287 100.7 41.6407 100.58 41.4087 100.492C41.1847 100.404 40.9447 100.328 40.6887 100.264C40.4167 100.192 40.1527 100.112 39.8967 100.024C39.6407 99.928 39.4127 99.812 39.2127 99.676C39.0207 99.532 38.8647 99.36 38.7447 99.16C38.6247 98.96 38.5647 98.716 38.5647 98.428C38.5647 98.092 38.6567 97.796 38.8407 97.54C39.0247 97.284 39.2727 97.084 39.5847 96.94C39.9047 96.796 40.2647 96.724 40.6647 96.724C40.8647 96.724 41.0807 96.752 41.3127 96.808C41.5447 96.856 41.7727 96.94 41.9967 97.06C42.2207 97.18 42.4207 97.344 42.5967 97.552C42.6687 97.624 42.7047 97.708 42.7047 97.804C42.7047 97.892 42.6647 97.972 42.5847 98.044C42.5207 98.092 42.4447 98.116 42.3567 98.116C42.2767 98.116 42.2087 98.084 42.1527 98.02C41.9607 97.804 41.7327 97.64 41.4687 97.528C41.2047 97.416 40.9207 97.36 40.6167 97.36C40.3847 97.36 40.1647 97.4 39.9567 97.48C39.7567 97.552 39.5887 97.664 39.4527 97.816C39.3167 97.968 39.2487 98.168 39.2487 98.416C39.2647 98.648 39.3447 98.836 39.4887 98.98C39.6407 99.124 39.8367 99.244 40.0767 99.34C40.3247 99.436 40.6007 99.524 40.9047 99.604C41.1607 99.668 41.4047 99.744 41.6367 99.832C41.8767 99.92 42.0847 100.032 42.2607 100.168C42.4447 100.296 42.5887 100.46 42.6927 100.66C42.8047 100.86 42.8607 101.112 42.8607 101.416C42.8607 101.768 42.7607 102.072 42.5607 102.328C42.3687 102.584 42.1087 102.78 41.7807 102.916C41.4527 103.052 41.0887 103.12 40.6887 103.12C40.2567 103.12 39.8367 103.036 39.4287 102.868C39.0287 102.7 38.6727 102.42 38.3607 102.028ZM45.9897 102.64C45.9897 102.736 45.9537 102.82 45.8817 102.892C45.8097 102.964 45.7257 103 45.6297 103C45.5257 103 45.4377 102.964 45.3657 102.892C45.3017 102.82 45.2697 102.736 45.2697 102.64V97.12C45.2697 97.024 45.3017 96.94 45.3657 96.868C45.4377 96.796 45.5257 96.76 45.6297 96.76C45.7337 96.76 45.8177 96.796 45.8817 96.868C45.9537 96.94 45.9897 97.024 45.9897 97.12V102.64ZM45.6297 95.956C45.4617 95.956 45.3337 95.92 45.2457 95.848C45.1657 95.768 45.1257 95.656 45.1257 95.512V95.392C45.1257 95.248 45.1697 95.14 45.2577 95.068C45.3537 94.988 45.4817 94.948 45.6417 94.948C45.7937 94.948 45.9097 94.988 45.9897 95.068C46.0777 95.14 46.1217 95.248 46.1217 95.392V95.512C46.1217 95.656 46.0777 95.768 45.9897 95.848C45.9097 95.92 45.7897 95.956 45.6297 95.956ZM51.7361 96.724C52.2801 96.724 52.7601 96.86 53.1761 97.132C53.6001 97.404 53.9361 97.78 54.1841 98.26C54.4321 98.732 54.5561 99.28 54.5561 99.904C54.5561 100.512 54.4321 101.06 54.1841 101.548C53.9361 102.036 53.6001 102.42 53.1761 102.7C52.7521 102.98 52.2761 103.12 51.7481 103.12C51.4681 103.12 51.2001 103.076 50.9441 102.988C50.6961 102.9 50.4681 102.784 50.2601 102.64C50.0521 102.488 49.8681 102.312 49.7081 102.112C49.5481 101.912 49.4201 101.696 49.3241 101.464L49.5401 101.308V102.664C49.5401 102.768 49.5041 102.856 49.4321 102.928C49.3681 102.992 49.2841 103.024 49.1801 103.024C49.0761 103.024 48.9881 102.992 48.9161 102.928C48.8521 102.856 48.8201 102.768 48.8201 102.664V94.492C48.8201 94.388 48.8521 94.304 48.9161 94.24C48.9801 94.168 49.0681 94.132 49.1801 94.132C49.2841 94.132 49.3681 94.168 49.4321 94.24C49.5041 94.304 49.5401 94.388 49.5401 94.492V98.512L49.3721 98.416C49.4521 98.168 49.5681 97.944 49.7201 97.744C49.8801 97.536 50.0641 97.356 50.2721 97.204C50.4801 97.052 50.7081 96.936 50.9561 96.856C51.2041 96.768 51.4641 96.724 51.7361 96.724ZM51.6761 97.396C51.2441 97.396 50.8641 97.504 50.5361 97.72C50.2081 97.936 49.9481 98.232 49.7561 98.608C49.5721 98.984 49.4801 99.416 49.4801 99.904C49.4801 100.384 49.5721 100.82 49.7561 101.212C49.9481 101.596 50.2081 101.9 50.5361 102.124C50.8641 102.34 51.2441 102.448 51.6761 102.448C52.1001 102.448 52.4721 102.336 52.7921 102.112C53.1201 101.888 53.3801 101.584 53.5721 101.2C53.7641 100.808 53.8601 100.376 53.8601 99.904C53.8601 99.416 53.7641 98.984 53.5721 98.608C53.3801 98.232 53.1201 97.936 52.7921 97.72C52.4721 97.504 52.1001 97.396 51.6761 97.396ZM57.7535 102.64C57.7535 102.736 57.7175 102.82 57.6455 102.892C57.5735 102.964 57.4895 103 57.3935 103C57.2895 103 57.2015 102.964 57.1295 102.892C57.0655 102.82 57.0335 102.736 57.0335 102.64V97.12C57.0335 97.024 57.0655 96.94 57.1295 96.868C57.2015 96.796 57.2895 96.76 57.3935 96.76C57.4975 96.76 57.5815 96.796 57.6455 96.868C57.7175 96.94 57.7535 97.024 57.7535 97.12V102.64ZM57.3935 95.956C57.2255 95.956 57.0975 95.92 57.0095 95.848C56.9295 95.768 56.8895 95.656 56.8895 95.512V95.392C56.8895 95.248 56.9335 95.14 57.0215 95.068C57.1175 94.988 57.2455 94.948 57.4055 94.948C57.5575 94.948 57.6735 94.988 57.7535 95.068C57.8415 95.14 57.8855 95.248 57.8855 95.392V95.512C57.8855 95.656 57.8415 95.768 57.7535 95.848C57.6735 95.92 57.5535 95.956 57.3935 95.956ZM61.3759 102.64C61.3759 102.736 61.3399 102.82 61.2679 102.892C61.1959 102.964 61.1119 103 61.0159 103C60.9119 103 60.8239 102.964 60.7519 102.892C60.6879 102.82 60.6559 102.736 60.6559 102.64V94.48C60.6559 94.384 60.6919 94.3 60.7639 94.228C60.8359 94.156 60.9199 94.12 61.0159 94.12C61.1199 94.12 61.2039 94.156 61.2679 94.228C61.3399 94.3 61.3759 94.384 61.3759 94.48V102.64ZM65.0055 102.64C65.0055 102.736 64.9695 102.82 64.8975 102.892C64.8255 102.964 64.7415 103 64.6455 103C64.5415 103 64.4535 102.964 64.3815 102.892C64.3175 102.82 64.2855 102.736 64.2855 102.64V97.12C64.2855 97.024 64.3175 96.94 64.3815 96.868C64.4535 96.796 64.5415 96.76 64.6455 96.76C64.7495 96.76 64.8335 96.796 64.8975 96.868C64.9695 96.94 65.0055 97.024 65.0055 97.12V102.64ZM64.6455 95.956C64.4775 95.956 64.3495 95.92 64.2615 95.848C64.1815 95.768 64.1415 95.656 64.1415 95.512V95.392C64.1415 95.248 64.1855 95.14 64.2735 95.068C64.3695 94.988 64.4975 94.948 64.6575 94.948C64.8095 94.948 64.9255 94.988 65.0055 95.068C65.0935 95.14 65.1375 95.248 65.1375 95.392V95.512C65.1375 95.656 65.0935 95.768 65.0055 95.848C64.9255 95.92 64.8055 95.956 64.6455 95.956ZM67.4399 96.892H70.2359C70.3319 96.892 70.4119 96.928 70.4759 97C70.5399 97.064 70.5719 97.144 70.5719 97.24C70.5719 97.328 70.5399 97.404 70.4759 97.468C70.4119 97.532 70.3319 97.564 70.2359 97.564H67.4399C67.3439 97.564 67.2599 97.532 67.1879 97.468C67.1239 97.396 67.0919 97.316 67.0919 97.228C67.0919 97.132 67.1239 97.052 67.1879 96.988C67.2599 96.924 67.3439 96.892 67.4399 96.892ZM68.6759 95.2C68.7799 95.2 68.8639 95.236 68.9279 95.308C68.9999 95.38 69.0359 95.464 69.0359 95.56V101.584C69.0359 101.808 69.0639 101.976 69.1199 102.088C69.1839 102.2 69.2639 102.276 69.3599 102.316C69.4559 102.348 69.5519 102.364 69.6479 102.364C69.7119 102.364 69.7679 102.356 69.8159 102.34C69.8719 102.316 69.9319 102.304 69.9959 102.304C70.0679 102.304 70.1279 102.332 70.1759 102.388C70.2319 102.444 70.2599 102.516 70.2599 102.604C70.2599 102.716 70.1959 102.812 70.0679 102.892C69.9399 102.964 69.7879 103 69.6119 103C69.5399 103 69.4319 102.996 69.2879 102.988C69.1439 102.972 68.9959 102.928 68.8439 102.856C68.6919 102.776 68.5639 102.64 68.4599 102.448C68.3639 102.256 68.3159 101.98 68.3159 101.62V95.56C68.3159 95.464 68.3479 95.38 68.4119 95.308C68.4839 95.236 68.5719 95.2 68.6759 95.2ZM75.5757 103.12C74.9597 103.12 74.4157 102.988 73.9437 102.724C73.4717 102.46 73.1037 102.092 72.8397 101.62C72.5757 101.148 72.4437 100.596 72.4437 99.964C72.4437 99.284 72.5757 98.704 72.8397 98.224C73.1117 97.744 73.4597 97.376 73.8837 97.12C74.3157 96.856 74.7717 96.724 75.2517 96.724C75.6037 96.724 75.9437 96.788 76.2717 96.916C76.6077 97.036 76.9037 97.22 77.1597 97.468C77.4237 97.708 77.6317 98.004 77.7837 98.356C77.9437 98.708 78.0317 99.116 78.0477 99.58C78.0397 99.676 77.9997 99.76 77.9277 99.832C77.8557 99.896 77.7717 99.928 77.6757 99.928H72.8637L72.7197 99.28H77.4477L77.2917 99.424V99.184C77.2597 98.808 77.1397 98.488 76.9317 98.224C76.7237 97.96 76.4717 97.76 76.1757 97.624C75.8797 97.488 75.5717 97.42 75.2517 97.42C75.0117 97.42 74.7637 97.468 74.5077 97.564C74.2597 97.66 74.0317 97.812 73.8237 98.02C73.6237 98.22 73.4597 98.48 73.3317 98.8C73.2037 99.112 73.1397 99.484 73.1397 99.916C73.1397 100.388 73.2357 100.816 73.4277 101.2C73.6197 101.584 73.8957 101.888 74.2557 102.112C74.6237 102.336 75.0597 102.448 75.5637 102.448C75.8437 102.448 76.0957 102.408 76.3197 102.328C76.5437 102.248 76.7397 102.144 76.9077 102.016C77.0757 101.88 77.2157 101.74 77.3277 101.596C77.4157 101.524 77.5037 101.488 77.5917 101.488C77.6717 101.488 77.7397 101.52 77.7957 101.584C77.8597 101.648 77.8917 101.72 77.8917 101.8C77.8917 101.896 77.8517 101.98 77.7717 102.052C77.5317 102.34 77.2197 102.592 76.8357 102.808C76.4517 103.016 76.0317 103.12 75.5757 103.12ZM75.1557 96.376C75.1157 96.376 75.0717 96.356 75.0237 96.316C74.9837 96.268 74.9637 96.216 74.9637 96.16C74.9637 96.112 74.9837 96.056 75.0237 95.992L75.7557 94.852C75.7957 94.788 75.8477 94.728 75.9117 94.672C75.9837 94.616 76.0677 94.588 76.1637 94.588C76.2837 94.588 76.3797 94.62 76.4517 94.684C76.5237 94.748 76.5557 94.84 76.5477 94.96C76.5477 95.016 76.5357 95.068 76.5117 95.116C76.4957 95.156 76.4677 95.196 76.4277 95.236L75.5277 96.184C75.4797 96.24 75.4237 96.288 75.3597 96.328C75.2957 96.36 75.2277 96.376 75.1557 96.376Z" fill="#333333"/>
<path d="M231.5 98.5L225 147C223.5 154.5 221.763 157.036 215 154.5L168.5 135.445C166.47 134.683 163.629 134.949 161.5 135.445L125.5 143C120 143 120.198 142.304 118 139L97.7392 101.5C96.5 99 96.5 98 97.7392 95.5L116 52.5C116.964 50.4034 118.693 48.3941 121 47.5L161.5 28C164.391 26.8797 166.328 26.5015 169 28L210.5 45C213.5 46 216 48.9369 217 51.5L231.5 98.5Z" fill="#86F1FF" fill-opacity="0.2" stroke="#86F1FF" stroke-width="0.5"/>
</g>
<defs>
<clipPath id="clip0_225_839">
<rect width="331" height="197" fill="white"/>
</clipPath>
</defs>
</svg>
