<?xml version="1.0" encoding="UTF-8"?>
<svg id="Calque_2" data-name="Calque 2" xmlns="http://www.w3.org/2000/svg" viewBox="0 0 551.45 145.65">
  <defs>
    <style>
      .cls-1, .cls-2 {
        fill: #333;
      }

      .cls-2 {
        font-family: GoodTimesRg-Regular, 'Good Times';
        font-size: 40px;
      }

      .cls-3 {
        letter-spacing: -.1em;
      }

      .cls-4 {
        fill: none;
      }
    </style>
  </defs>
  <g id="TEXTS">
    <g>
      <path class="cls-1" d="m34.62,145.65c-1.66,0-3-1.34-3-3v-60.01c0-6.99,5.69-12.68,12.68-12.68h37.09c4.23,0,7.66-3.44,7.66-7.66V23.39c0-2.58-2.09-4.67-4.67-4.67s-4.67,2.09-4.67,4.67v33.11c0,1.66-1.34,3-3,3s-3-1.34-3-3V23.39c0-5.88,4.79-10.67,10.67-10.67s10.67,4.79,10.67,10.67v38.91c0,7.53-6.13,13.66-13.66,13.66h-37.09c-3.68,0-6.68,3-6.68,6.68v60.01c0,1.66-1.34,3-3,3Z"/>
      <path class="cls-1" d="m60.43,145.65c-1.66,0-3-1.34-3-3v-23.37c0-3.82-3.11-6.93-6.93-6.93H13.66c-7.53,0-13.66-6.13-13.66-13.66v-38.91c0-5.88,4.79-10.67,10.67-10.67s10.67,4.79,10.67,10.67v33.11c0,1.66-1.34,3-3,3s-3-1.34-3-3v-33.11c0-2.58-2.09-4.67-4.67-4.67s-4.67,2.09-4.67,4.67v38.91c0,4.23,3.44,7.66,7.66,7.66h36.84c7.13,0,12.93,5.8,12.93,12.93v23.37c0,1.66-1.34,3-3,3Z"/>
      <path class="cls-1" d="m60.43,86.87c-1.66,0-3-1.34-3-3V15.91c0-5.46-4.44-9.91-9.91-9.91s-9.91,4.44-9.91,9.91v6.1c0,1.66-1.34,3-3,3s-3-1.34-3-3v-6.1c0-8.77,7.14-15.91,15.91-15.91s15.91,7.14,15.91,15.91v67.96c0,1.66-1.34,3-3,3Z"/>
      <path class="cls-1" d="m34.62,64.22c-1.66,0-3-1.34-3-3v-13.03c0-1.66,1.34-3,3-3s3,1.34,3,3v13.03c0,1.66-1.34,3-3,3Z"/>
      <path class="cls-1" d="m60.43,101.23c-1.66,0-3-1.34-3-3v-.51c0-1.66,1.34-3,3-3s3,1.34,3,3v.51c0,1.66-1.34,3-3,3Z"/>
      <path class="cls-1" d="m34.62,38.7c-1.66,0-3-1.34-3-3v-.51c0-1.66,1.34-3,3-3s3,1.34,3,3v.51c0,1.66-1.34,3-3,3Z"/>
    </g>
    <rect class="cls-4" x="31.62" width="519.83" height="145.65"/>
    <text class="cls-2" transform="translate(140.95 63.36)"><tspan x="0" y="0">tekila web</tspan></text>
    <text class="cls-2" transform="translate(176.37 111.36)"><tspan class="cls-3" x="0" y="0">f</tspan><tspan x="24.32" y="0">a</tspan></text>
    <text class="cls-2" transform="translate(236.37 111.36)"><tspan x="0" y="0">c</tspan></text>
    <text class="cls-2" transform="translate(269.53 111.36)"><tspan x="0" y="0">t</tspan></text>
    <text class="cls-2" transform="translate(297.65 111.36)"><tspan x="0" y="0">o</tspan></text>
    <text class="cls-2" transform="translate(336.37 111.36)"><tspan x="0" y="0">r</tspan></text>
    <text class="cls-2" transform="translate(369.65 111.36)"><tspan x="0" y="0">y</tspan></text>
  </g>
</svg>