<svg width="186" height="32" viewBox="0 0 186 32" fill="none" xmlns="http://www.w3.org/2000/svg">
<g clip-path="url(#clip0_116_489)">
<path d="M14.2039 30.5984L1.65051 23.4529V16.0017V8.70064M14.2039 30.5984L26.9615 23.4529V8.70064M14.2039 30.5984V27.1794V24.5285M1.65051 8.70064L14.2039 1.40137L26.9615 8.70064M1.65051 8.70064L4.98488 10.6215L7.10677 11.6972M26.9615 8.70064L21.5052 11.6972M14.2039 24.5285L21.5052 20.3026M14.2039 24.5285L7.10677 20.3026M7.10677 11.6972L14.2039 7.62495M7.10677 11.6972V20.3026M21.5052 11.6972L14.2039 7.62495M21.5052 11.6972V20.3026M14.2039 7.62495V16.0017M14.2039 16.0017L18.1644 18.2887L21.5052 20.3026M14.2039 16.0017L7.10677 20.3026" stroke="#FFFDFA" stroke-width="2"/>
<path d="M37.9312 21.8529C37.8332 21.8529 37.7497 21.818 37.6809 21.7483C37.6123 21.6785 37.5778 21.5938 37.5778 21.4941V13.2274H34.8534C34.7554 13.2274 34.6719 13.1925 34.6031 13.1227C34.5345 13.053 34.5 12.9683 34.5 12.8686V11.7624C34.5 11.6528 34.5345 11.5631 34.6031 11.4933C34.6719 11.4235 34.7554 11.3887 34.8534 11.3887H42.3639C42.472 11.3887 42.5604 11.4235 42.629 11.4933C42.6978 11.5631 42.732 11.6528 42.732 11.7624V12.8686C42.732 12.9683 42.6978 13.053 42.629 13.1227C42.5604 13.1925 42.472 13.2274 42.3639 13.2274H39.6542V21.4941C39.6542 21.5938 39.6199 21.6785 39.5511 21.7483C39.4826 21.818 39.3942 21.8529 39.2861 21.8529H37.9312ZM47.1746 22.0024C46.0848 22.0024 45.221 21.6835 44.5827 21.0457C43.9447 20.4078 43.6011 19.501 43.5519 18.325C43.5422 18.2253 43.5372 18.1007 43.5372 17.9512C43.5372 17.7918 43.5422 17.6672 43.5519 17.5775C43.5912 16.8301 43.7581 16.1823 44.0526 15.6342C44.357 15.086 44.7742 14.6675 45.3043 14.3785C45.8345 14.0795 46.458 13.93 47.1746 13.93C47.9698 13.93 48.6375 14.0994 49.1774 14.4382C49.7174 14.7671 50.1249 15.2305 50.3996 15.8285C50.6746 16.4165 50.812 17.0992 50.812 17.8765V18.1904C50.812 18.2901 50.7777 18.3748 50.7089 18.4446C50.6403 18.5143 50.552 18.5492 50.4438 18.5492H45.5547C45.5547 18.5492 45.5547 18.5641 45.5547 18.594C45.5547 18.6239 45.5547 18.6489 45.5547 18.6688C45.5646 19.0176 45.6283 19.3415 45.7461 19.6405C45.8738 19.9295 46.0554 20.1637 46.291 20.3431C46.5365 20.5225 46.8262 20.6121 47.1598 20.6121C47.4348 20.6121 47.6656 20.5723 47.852 20.4926C48.0386 20.4029 48.1907 20.3032 48.3085 20.1936C48.4263 20.084 48.5098 19.9943 48.5588 19.9245C48.6472 19.8049 48.716 19.7351 48.765 19.7152C48.8239 19.6853 48.9074 19.6704 49.0154 19.6704H50.2818C50.3801 19.6704 50.4585 19.7003 50.5175 19.7601C50.5863 19.8199 50.6157 19.8946 50.6058 19.9843C50.5961 20.1438 50.5126 20.3381 50.3555 20.5673C50.2082 20.7965 49.9924 21.0207 49.7075 21.24C49.4229 21.4593 49.0646 21.6436 48.6325 21.7931C48.2105 21.9326 47.7245 22.0024 47.1746 22.0024ZM45.5547 17.2935H48.8092V17.2486C48.8092 16.86 48.7455 16.5211 48.6178 16.2321C48.4903 15.9431 48.3037 15.7139 48.0582 15.5445C47.8129 15.3751 47.5183 15.2903 47.1746 15.2903C46.831 15.2903 46.5365 15.3751 46.291 15.5445C46.0457 15.7139 45.8591 15.9431 45.7314 16.2321C45.6136 16.5211 45.5547 16.86 45.5547 17.2486V17.2935ZM53.9215 21.8529C53.8233 21.8529 53.7398 21.818 53.6712 21.7483C53.6024 21.6785 53.5681 21.5938 53.5681 21.4941V11.598C53.5681 11.4983 53.6024 11.4136 53.6712 11.3438C53.7398 11.2741 53.8233 11.2392 53.9215 11.2392H55.1144C55.2223 11.2392 55.3058 11.2741 55.3647 11.3438C55.4333 11.4136 55.4678 11.4983 55.4678 11.598V16.7105L57.9418 14.3336C58.0302 14.2539 58.1087 14.1941 58.1775 14.1542C58.246 14.1044 58.3491 14.0795 58.4867 14.0795H59.8563C59.9543 14.0795 60.033 14.1094 60.0919 14.1692C60.1508 14.229 60.1803 14.3087 60.1803 14.4084C60.1803 14.4482 60.1704 14.4931 60.1508 14.5429C60.131 14.5927 60.0919 14.6376 60.033 14.6774L56.9994 17.5626L60.4011 21.2699C60.4992 21.3696 60.5484 21.4543 60.5484 21.524C60.5484 21.6237 60.5139 21.7034 60.4453 21.7632C60.3864 21.823 60.3128 21.8529 60.2244 21.8529H58.8254C58.6782 21.8529 58.57 21.833 58.5014 21.7931C58.4425 21.7433 58.3689 21.6785 58.2806 21.5988L55.4678 18.594V21.4941C55.4678 21.5938 55.4333 21.6785 55.3647 21.7483C55.3058 21.818 55.2223 21.8529 55.1144 21.8529H53.9215ZM63.1814 21.8529C63.0834 21.8529 62.9999 21.818 62.9311 21.7483C62.8625 21.6785 62.828 21.5938 62.828 21.4941V14.4382C62.828 14.3386 62.8625 14.2539 62.9311 14.1841C62.9999 14.1143 63.0834 14.0795 63.1814 14.0795H64.4037C64.5119 14.0795 64.5952 14.1143 64.6541 14.1841C64.7229 14.2539 64.7572 14.3386 64.7572 14.4382V21.4941C64.7572 21.5938 64.7229 21.6785 64.6541 21.7483C64.5952 21.818 64.5119 21.8529 64.4037 21.8529H63.1814ZM63.1225 12.7939C63.0146 12.7939 62.9263 12.764 62.8575 12.7042C62.7986 12.6344 62.7691 12.5447 62.7691 12.4351V11.3588C62.7691 11.2591 62.7986 11.1744 62.8575 11.1046C62.9263 11.0349 63.0146 11 63.1225 11H64.4626C64.5708 11 64.6591 11.0349 64.7277 11.1046C64.7965 11.1744 64.8308 11.2591 64.8308 11.3588V12.4351C64.8308 12.5447 64.7965 12.6344 64.7277 12.7042C64.6591 12.764 64.5708 12.7939 64.4626 12.7939H63.1225ZM68.2572 21.8529C68.1592 21.8529 68.0757 21.818 68.0069 21.7483C67.9383 21.6785 67.9038 21.5938 67.9038 21.4941V11.598C67.9038 11.4983 67.9383 11.4136 68.0069 11.3438C68.0757 11.2741 68.1592 11.2392 68.2572 11.2392H69.4795C69.5778 11.2392 69.6613 11.2741 69.7298 11.3438C69.7986 11.4136 69.8329 11.4983 69.8329 11.598V21.4941C69.8329 21.5938 69.7986 21.6785 69.7298 21.7483C69.6613 21.818 69.5778 21.8529 69.4795 21.8529H68.2572ZM75.1883 22.0024C74.6777 22.0024 74.2163 21.9027 73.804 21.7034C73.3916 21.4941 73.0626 21.2201 72.8173 20.8812C72.5817 20.5324 72.4639 20.1438 72.4639 19.7152C72.4639 19.0176 72.7386 18.4645 73.2886 18.0559C73.8482 17.6373 74.5845 17.3583 75.4975 17.2187L77.515 16.9198V16.6058C77.515 16.1873 77.4119 15.8634 77.2058 15.6342C76.9996 15.405 76.6462 15.2903 76.1455 15.2903C75.792 15.2903 75.5024 15.3651 75.2766 15.5146C75.0606 15.6541 74.8986 15.8434 74.7907 16.0826C74.712 16.2122 74.5992 16.277 74.4519 16.277H73.2886C73.1804 16.277 73.0971 16.2471 73.0382 16.1873C72.989 16.1275 72.9646 16.0478 72.9646 15.9481C72.9743 15.7886 73.0382 15.5943 73.156 15.3651C73.2738 15.1359 73.4602 14.9166 73.7156 14.7073C73.9708 14.4881 74.2996 14.3037 74.7023 14.1542C75.1047 14.0047 75.5907 13.93 76.1602 13.93C76.7787 13.93 77.299 14.0097 77.7212 14.1692C78.1531 14.3187 78.4966 14.523 78.752 14.7821C79.0072 15.0412 79.1938 15.3452 79.3116 15.694C79.4295 16.0428 79.4884 16.4115 79.4884 16.8002V21.4941C79.4884 21.5938 79.4538 21.6785 79.3853 21.7483C79.3165 21.818 79.233 21.8529 79.1349 21.8529H77.9421C77.8339 21.8529 77.7456 21.818 77.677 21.7483C77.6181 21.6785 77.5887 21.5938 77.5887 21.4941V20.9111C77.461 21.1005 77.2891 21.2799 77.0732 21.4493C76.8572 21.6087 76.5921 21.7433 76.278 21.8529C75.9736 21.9526 75.6103 22.0024 75.1883 22.0024ZM75.689 20.5822C76.0325 20.5822 76.3418 20.5075 76.6167 20.358C76.9014 20.2085 77.1222 19.9793 77.2794 19.6704C77.4462 19.3515 77.5298 18.9528 77.5298 18.4745V18.1605L76.0571 18.3997C75.4777 18.4894 75.0458 18.6339 74.7612 18.8332C74.4763 19.0325 74.3341 19.2767 74.3341 19.5657C74.3341 19.785 74.3979 19.9743 74.5256 20.1338C74.6629 20.2833 74.8348 20.3979 75.041 20.4776C75.2472 20.5474 75.463 20.5822 75.689 20.5822ZM88.7966 21.8529C88.6493 21.8529 88.5315 21.813 88.4431 21.7333C88.3647 21.6436 88.3106 21.534 88.2812 21.4044L86.5287 11.8222C86.5287 11.7923 86.5239 11.7674 86.514 11.7474C86.514 11.7275 86.514 11.7126 86.514 11.7026C86.514 11.6129 86.5434 11.5382 86.6023 11.4784C86.6711 11.4186 86.7448 11.3887 86.8232 11.3887H88.1192C88.3647 11.3887 88.502 11.4883 88.5315 11.6876L89.7538 18.4595L91.0792 14.0795C91.1086 13.9998 91.1579 13.92 91.2264 13.8403C91.3051 13.7506 91.4179 13.7058 91.5651 13.7058H92.3604C92.5175 13.7058 92.6305 13.7506 92.6991 13.8403C92.7679 13.92 92.812 13.9998 92.8316 14.0795L94.1717 18.4446L95.394 11.6876C95.4234 11.4883 95.561 11.3887 95.8063 11.3887H97.1023C97.1809 11.3887 97.2495 11.4186 97.3084 11.4784C97.3673 11.5382 97.3968 11.6129 97.3968 11.7026C97.3968 11.7126 97.3968 11.7275 97.3968 11.7474C97.3968 11.7674 97.3919 11.7923 97.3821 11.8222L95.6296 21.4044C95.6101 21.534 95.556 21.6436 95.4676 21.7333C95.3793 21.813 95.2615 21.8529 95.1142 21.8529H94.1275C93.9803 21.8529 93.8624 21.813 93.7741 21.7333C93.6956 21.6536 93.6416 21.5689 93.6121 21.4792L91.9627 16.4862L90.3134 21.4792C90.2743 21.5689 90.2154 21.6536 90.1367 21.7333C90.0582 21.813 89.9404 21.8529 89.7832 21.8529H88.7966ZM103.124 22.0024C102.034 22.0024 101.17 21.6835 100.532 21.0457C99.8938 20.4078 99.5503 19.501 99.5013 18.325C99.4914 18.2253 99.4865 18.1007 99.4865 17.9512C99.4865 17.7918 99.4914 17.6672 99.5013 17.5775C99.5404 16.8301 99.7074 16.1823 100.002 15.6342C100.306 15.086 100.724 14.6675 101.254 14.3785C101.784 14.0795 102.407 13.93 103.124 13.93C103.919 13.93 104.587 14.0994 105.127 14.4382C105.667 14.7671 106.074 15.2305 106.349 15.8285C106.624 16.4165 106.761 17.0992 106.761 17.8765V18.1904C106.761 18.2901 106.727 18.3748 106.658 18.4446C106.589 18.5143 106.501 18.5492 106.393 18.5492H101.504C101.504 18.5492 101.504 18.5641 101.504 18.594C101.504 18.6239 101.504 18.6489 101.504 18.6688C101.514 19.0176 101.578 19.3415 101.695 19.6405C101.823 19.9295 102.005 20.1637 102.24 20.3431C102.486 20.5225 102.775 20.6121 103.109 20.6121C103.384 20.6121 103.615 20.5723 103.801 20.4926C103.988 20.4029 104.14 20.3032 104.258 20.1936C104.376 20.084 104.459 19.9943 104.508 19.9245C104.597 19.8049 104.665 19.7351 104.714 19.7152C104.773 19.6853 104.857 19.6704 104.965 19.6704H106.231C106.329 19.6704 106.408 19.7003 106.467 19.7601C106.535 19.8199 106.565 19.8946 106.555 19.9843C106.545 20.1438 106.462 20.3381 106.305 20.5673C106.158 20.7965 105.942 21.0207 105.657 21.24C105.372 21.4593 105.014 21.6436 104.582 21.7931C104.16 21.9326 103.674 22.0024 103.124 22.0024ZM101.504 17.2935H104.759V17.2486C104.759 16.86 104.695 16.5211 104.567 16.2321C104.439 15.9431 104.253 15.7139 104.008 15.5445C103.762 15.3751 103.467 15.2903 103.124 15.2903C102.78 15.2903 102.486 15.3751 102.24 15.5445C101.995 15.7139 101.808 15.9431 101.681 16.2321C101.563 16.5211 101.504 16.86 101.504 17.2486V17.2935ZM113.744 22.0024C113.174 22.0024 112.698 21.9027 112.315 21.7034C111.942 21.5041 111.633 21.25 111.388 20.941V21.4941C111.388 21.5938 111.353 21.6785 111.284 21.7483C111.226 21.818 111.142 21.8529 111.034 21.8529H109.871C109.773 21.8529 109.689 21.818 109.62 21.7483C109.552 21.6785 109.517 21.5938 109.517 21.4941V11.598C109.517 11.4983 109.552 11.4136 109.62 11.3438C109.689 11.2741 109.773 11.2392 109.871 11.2392H111.122C111.231 11.2392 111.314 11.2741 111.373 11.3438C111.442 11.4136 111.476 11.4983 111.476 11.598V14.9166C111.721 14.6276 112.026 14.3934 112.389 14.214C112.762 14.0247 113.214 13.93 113.744 13.93C114.264 13.93 114.716 14.0197 115.099 14.1991C115.481 14.3785 115.801 14.6326 116.056 14.9615C116.321 15.2804 116.522 15.6541 116.66 16.0826C116.797 16.5112 116.871 16.9746 116.88 17.4729C116.89 17.6523 116.895 17.8167 116.895 17.9662C116.895 18.1057 116.89 18.2652 116.88 18.4446C116.861 18.9628 116.782 19.4412 116.645 19.8797C116.507 20.3082 116.311 20.6819 116.056 21.0008C115.801 21.3197 115.481 21.5689 115.099 21.7483C114.716 21.9177 114.264 22.0024 113.744 22.0024ZM113.199 20.4029C113.621 20.4029 113.95 20.3132 114.186 20.1338C114.421 19.9444 114.588 19.7003 114.686 19.4013C114.794 19.1023 114.858 18.7734 114.878 18.4147C114.897 18.1157 114.897 17.8167 114.878 17.5177C114.858 17.1589 114.794 16.8301 114.686 16.5311C114.588 16.2321 114.421 15.9929 114.186 15.8135C113.95 15.6242 113.621 15.5295 113.199 15.5295C112.806 15.5295 112.487 15.6192 112.242 15.7986C111.996 15.978 111.81 16.2072 111.682 16.4862C111.555 16.7553 111.486 17.0394 111.476 17.3383C111.466 17.5177 111.461 17.7121 111.461 17.9213C111.461 18.1207 111.466 18.31 111.476 18.4894C111.496 18.7984 111.559 19.1023 111.667 19.4013C111.785 19.6903 111.967 19.9295 112.212 20.1188C112.468 20.3082 112.796 20.4029 113.199 20.4029ZM124.786 21.8529C124.688 21.8529 124.604 21.818 124.535 21.7483C124.467 21.6785 124.432 21.5938 124.432 21.4941V11.7624C124.432 11.6528 124.467 11.5631 124.535 11.4933C124.604 11.4235 124.688 11.3887 124.786 11.3887H131.177C131.285 11.3887 131.373 11.4235 131.442 11.4933C131.511 11.5631 131.545 11.6528 131.545 11.7624V12.8088C131.545 12.9184 131.511 13.0081 131.442 13.0779C131.373 13.1377 131.285 13.1676 131.177 13.1676H126.45V16.0079H130.882C130.99 16.0079 131.079 16.0428 131.147 16.1125C131.216 16.1823 131.25 16.272 131.25 16.3816V17.428C131.25 17.5277 131.216 17.6124 131.147 17.6822C131.079 17.7519 130.99 17.7868 130.882 17.7868H126.45V21.4941C126.45 21.5938 126.415 21.6785 126.347 21.7483C126.278 21.818 126.19 21.8529 126.081 21.8529H124.786ZM136.128 22.0024C135.617 22.0024 135.156 21.9027 134.744 21.7034C134.331 21.4941 134.002 21.2201 133.757 20.8812C133.521 20.5324 133.403 20.1438 133.403 19.7152C133.403 19.0176 133.678 18.4645 134.228 18.0559C134.788 17.6373 135.524 17.3583 136.437 17.2187L138.455 16.9198V16.6058C138.455 16.1873 138.351 15.8634 138.145 15.6342C137.939 15.405 137.586 15.2903 137.085 15.2903C136.732 15.2903 136.442 15.3651 136.216 15.5146C136 15.6541 135.838 15.8434 135.73 16.0826C135.652 16.2122 135.539 16.277 135.392 16.277H134.228C134.12 16.277 134.037 16.2471 133.978 16.1873C133.929 16.1275 133.904 16.0478 133.904 15.9481C133.914 15.7886 133.978 15.5943 134.096 15.3651C134.213 15.1359 134.4 14.9166 134.655 14.7073C134.91 14.4881 135.239 14.3037 135.642 14.1542C136.044 14.0047 136.53 13.93 137.1 13.93C137.718 13.93 138.239 14.0097 138.661 14.1692C139.093 14.3187 139.436 14.523 139.692 14.7821C139.947 15.0412 140.133 15.3452 140.251 15.694C140.369 16.0428 140.428 16.4115 140.428 16.8002V21.4941C140.428 21.5938 140.393 21.6785 140.325 21.7483C140.256 21.818 140.173 21.8529 140.074 21.8529H138.882C138.773 21.8529 138.685 21.818 138.617 21.7483C138.558 21.6785 138.528 21.5938 138.528 21.4941V20.9111C138.401 21.1005 138.229 21.2799 138.013 21.4493C137.797 21.6087 137.532 21.7433 137.218 21.8529C136.913 21.9526 136.55 22.0024 136.128 22.0024ZM136.629 20.5822C136.972 20.5822 137.281 20.5075 137.556 20.358C137.841 20.2085 138.062 19.9793 138.219 19.6704C138.386 19.3515 138.469 18.9528 138.469 18.4745V18.1605L136.997 18.3997C136.417 18.4894 135.985 18.6339 135.701 18.8332C135.416 19.0325 135.274 19.2767 135.274 19.5657C135.274 19.785 135.337 19.9743 135.465 20.1338C135.602 20.2833 135.774 20.3979 135.981 20.4776C136.187 20.5474 136.403 20.5822 136.629 20.5822ZM146.809 22.0024C146.102 22.0024 145.478 21.8679 144.938 21.5988C144.408 21.3297 143.991 20.941 143.687 20.4328C143.392 19.9145 143.23 19.2917 143.201 18.5641C143.191 18.4147 143.186 18.2203 143.186 17.9811C143.186 17.732 143.191 17.5277 143.201 17.3682C143.23 16.6407 143.392 16.0228 143.687 15.5146C143.991 14.9963 144.408 14.6027 144.938 14.3336C145.478 14.0645 146.102 13.93 146.809 13.93C147.437 13.93 147.972 14.0197 148.414 14.1991C148.856 14.3785 149.219 14.6027 149.503 14.8718C149.788 15.1408 149.999 15.4249 150.137 15.7239C150.284 16.0129 150.363 16.277 150.372 16.5161C150.382 16.6258 150.348 16.7155 150.269 16.7852C150.201 16.845 150.117 16.8749 150.019 16.8749H148.723C148.625 16.8749 148.546 16.85 148.487 16.8002C148.438 16.7504 148.389 16.6756 148.34 16.5759C148.193 16.1773 147.997 15.8983 147.751 15.7388C147.515 15.5694 147.211 15.4847 146.838 15.4847C146.347 15.4847 145.954 15.6441 145.66 15.963C145.375 16.272 145.223 16.7653 145.203 17.443C145.184 17.8217 145.184 18.1705 145.203 18.4894C145.223 19.1771 145.375 19.6753 145.66 19.9843C145.954 20.2932 146.347 20.4477 146.838 20.4477C147.221 20.4477 147.53 20.368 147.766 20.2085C148.001 20.0391 148.193 19.7551 148.34 19.3564C148.389 19.2568 148.438 19.182 148.487 19.1322C148.546 19.0824 148.625 19.0575 148.723 19.0575H150.019C150.117 19.0575 150.201 19.0923 150.269 19.1621C150.348 19.2219 150.382 19.3066 150.372 19.4162C150.363 19.5956 150.313 19.7999 150.225 20.0291C150.147 20.2484 150.014 20.4776 149.827 20.7168C149.651 20.946 149.425 21.1603 149.15 21.3596C148.875 21.549 148.541 21.7034 148.149 21.823C147.766 21.9426 147.319 22.0024 146.809 22.0024ZM156.547 21.8529C155.958 21.8529 155.462 21.7483 155.06 21.539C154.657 21.3297 154.358 21.0207 154.161 20.6121C153.965 20.1936 153.867 19.6753 153.867 19.0575V15.6641H152.704C152.605 15.6641 152.522 15.6292 152.453 15.5594C152.384 15.4896 152.35 15.405 152.35 15.3053V14.4382C152.35 14.3386 152.384 14.2539 152.453 14.1841C152.522 14.1143 152.605 14.0795 152.704 14.0795H153.867V11.598C153.867 11.4983 153.896 11.4136 153.955 11.3438C154.024 11.2741 154.112 11.2392 154.22 11.2392H155.413C155.511 11.2392 155.595 11.2741 155.663 11.3438C155.732 11.4136 155.767 11.4983 155.767 11.598V14.0795H157.607C157.705 14.0795 157.789 14.1143 157.858 14.1841C157.926 14.2539 157.961 14.3386 157.961 14.4382V15.3053C157.961 15.405 157.926 15.4896 157.858 15.5594C157.789 15.6292 157.705 15.6641 157.607 15.6641H155.767V18.908C155.767 19.3166 155.835 19.6355 155.973 19.8647C156.12 20.0939 156.37 20.2085 156.724 20.2085H157.74C157.838 20.2085 157.921 20.2434 157.99 20.3132C158.059 20.3829 158.093 20.4676 158.093 20.5673V21.4941C158.093 21.5938 158.059 21.6785 157.99 21.7483C157.921 21.818 157.838 21.8529 157.74 21.8529H156.547ZM163.965 22.0024C163.179 22.0024 162.517 21.8629 161.977 21.5838C161.447 21.3048 161.039 20.9111 160.754 20.4029C160.48 19.8946 160.323 19.3016 160.283 18.6239C160.274 18.4446 160.268 18.2253 160.268 17.9662C160.268 17.7071 160.274 17.4878 160.283 17.3084C160.323 16.6208 160.485 16.0278 160.769 15.5295C161.064 15.0213 161.476 14.6276 162.006 14.3486C162.546 14.0695 163.199 13.93 163.965 13.93C164.731 13.93 165.379 14.0695 165.909 14.3486C166.449 14.6276 166.861 15.0213 167.146 15.5295C167.44 16.0278 167.607 16.6208 167.646 17.3084C167.656 17.4878 167.661 17.7071 167.661 17.9662C167.661 18.2253 167.656 18.4446 167.646 18.6239C167.607 19.3016 167.445 19.8946 167.16 20.4029C166.886 20.9111 166.478 21.3048 165.938 21.5838C165.408 21.8629 164.75 22.0024 163.965 22.0024ZM163.965 20.5225C164.485 20.5225 164.888 20.358 165.172 20.0291C165.457 19.6903 165.614 19.197 165.644 18.5492C165.653 18.3997 165.658 18.2054 165.658 17.9662C165.658 17.727 165.653 17.5327 165.644 17.3832C165.614 16.7454 165.457 16.257 165.172 15.9182C164.888 15.5793 164.485 15.4099 163.965 15.4099C163.445 15.4099 163.042 15.5793 162.757 15.9182C162.473 16.257 162.315 16.7454 162.286 17.3832C162.276 17.5327 162.271 17.727 162.271 17.9662C162.271 18.2054 162.276 18.3997 162.286 18.5492C162.315 19.197 162.473 19.6903 162.757 20.0291C163.042 20.358 163.445 20.5225 163.965 20.5225ZM170.824 21.8529C170.726 21.8529 170.643 21.818 170.574 21.7483C170.505 21.6785 170.471 21.5938 170.471 21.4941V14.4532C170.471 14.3436 170.505 14.2539 170.574 14.1841C170.643 14.1143 170.726 14.0795 170.824 14.0795H172.017C172.115 14.0795 172.199 14.1143 172.267 14.1841C172.346 14.2539 172.385 14.3436 172.385 14.4532V15.0661C172.611 14.7472 172.901 14.503 173.254 14.3336C173.617 14.1642 174.035 14.0795 174.506 14.0795H175.11C175.218 14.0795 175.301 14.1143 175.36 14.1841C175.429 14.2539 175.463 14.3386 175.463 14.4382V15.5146C175.463 15.6142 175.429 15.6989 175.36 15.7687C175.301 15.8385 175.218 15.8733 175.11 15.8733H173.961C173.49 15.8733 173.122 16.0079 172.857 16.277C172.601 16.546 172.474 16.9148 172.474 17.3832V21.4941C172.474 21.5938 172.439 21.6785 172.371 21.7483C172.302 21.818 172.214 21.8529 172.105 21.8529H170.824ZM179.174 24.6932C179.095 24.6932 179.027 24.6633 178.968 24.6035C178.909 24.5437 178.88 24.4739 178.88 24.3942C178.88 24.3543 178.88 24.3145 178.88 24.2746C178.889 24.2447 178.909 24.2049 178.939 24.155L180.087 21.3895L177.26 14.6176C177.22 14.518 177.201 14.4482 177.201 14.4084C177.21 14.3187 177.245 14.2439 177.304 14.1841C177.363 14.1143 177.436 14.0795 177.525 14.0795H178.718C178.835 14.0795 178.924 14.1094 178.983 14.1692C179.042 14.229 179.086 14.2937 179.115 14.3635L181.074 19.2518L183.091 14.3635C183.121 14.2838 183.165 14.219 183.224 14.1692C183.283 14.1094 183.371 14.0795 183.489 14.0795H184.667C184.746 14.0795 184.814 14.1094 184.873 14.1692C184.942 14.229 184.976 14.2987 184.976 14.3785C184.976 14.4382 184.957 14.518 184.917 14.6176L180.75 24.4092C180.711 24.4889 180.661 24.5537 180.603 24.6035C180.544 24.6633 180.455 24.6932 180.338 24.6932H179.174Z" fill="#FFFDFA"/>
</g>
<defs>
<clipPath id="clip0_116_489">
<rect width="185" height="32" fill="white" transform="translate(0.5)"/>
</clipPath>
</defs>
</svg>
