<svg width="185" height="32" viewBox="0 0 185 32" fill="none" xmlns="http://www.w3.org/2000/svg">
<g clip-path="url(#clip0_114_48)">
<path d="M13.7039 30.5985L1.15051 23.453V16.0018V8.70073M13.7039 30.5985L26.4615 23.453V8.70073M13.7039 30.5985V27.1794V24.5286M1.15051 8.70073L13.7039 1.40146L26.4615 8.70073M1.15051 8.70073L4.48488 10.6216L6.60677 11.6973M26.4615 8.70073L21.0052 11.6973M13.7039 24.5286L21.0052 20.3027M13.7039 24.5286L6.60677 20.3027M6.60677 11.6973L13.7039 7.62504M6.60677 11.6973V20.3027M21.0052 11.6973L13.7039 7.62504M21.0052 11.6973V20.3027M13.7039 7.62504V16.0018M13.7039 16.0018L17.6644 18.2888L21.0052 20.3027M13.7039 16.0018L6.60677 20.3027" stroke="#333333" stroke-width="2"/>
<path d="M37.4312 21.8529C37.3332 21.8529 37.2497 21.818 37.1809 21.7483C37.1123 21.6785 37.0778 21.5938 37.0778 21.4941V13.2274H34.3534C34.2554 13.2274 34.1719 13.1925 34.1031 13.1227C34.0345 13.053 34 12.9683 34 12.8686V11.7624C34 11.6528 34.0345 11.5631 34.1031 11.4933C34.1719 11.4235 34.2554 11.3887 34.3534 11.3887H41.8639C41.972 11.3887 42.0604 11.4235 42.129 11.4933C42.1978 11.5631 42.232 11.6528 42.232 11.7624V12.8686C42.232 12.9683 42.1978 13.053 42.129 13.1227C42.0604 13.1925 41.972 13.2274 41.8639 13.2274H39.1542V21.4941C39.1542 21.5938 39.1199 21.6785 39.0511 21.7483C38.9826 21.818 38.8942 21.8529 38.7861 21.8529H37.4312ZM46.6746 22.0024C45.5848 22.0024 44.721 21.6835 44.0827 21.0457C43.4447 20.4078 43.1011 19.501 43.0519 18.325C43.0422 18.2253 43.0372 18.1007 43.0372 17.9512C43.0372 17.7918 43.0422 17.6672 43.0519 17.5775C43.0912 16.8301 43.2581 16.1823 43.5526 15.6342C43.857 15.086 44.2742 14.6675 44.8043 14.3785C45.3345 14.0795 45.958 13.93 46.6746 13.93C47.4698 13.93 48.1375 14.0994 48.6774 14.4382C49.2174 14.7671 49.6249 15.2305 49.8996 15.8285C50.1746 16.4165 50.312 17.0992 50.312 17.8765V18.1904C50.312 18.2901 50.2777 18.3748 50.2089 18.4446C50.1403 18.5143 50.052 18.5492 49.9438 18.5492H45.0547C45.0547 18.5492 45.0547 18.5641 45.0547 18.594C45.0547 18.6239 45.0547 18.6489 45.0547 18.6688C45.0646 19.0176 45.1283 19.3415 45.2461 19.6405C45.3738 19.9295 45.5554 20.1637 45.791 20.3431C46.0365 20.5225 46.3262 20.6121 46.6598 20.6121C46.9348 20.6121 47.1656 20.5723 47.352 20.4926C47.5386 20.4029 47.6907 20.3032 47.8085 20.1936C47.9263 20.084 48.0098 19.9943 48.0588 19.9245C48.1472 19.8049 48.216 19.7351 48.265 19.7152C48.3239 19.6853 48.4074 19.6704 48.5154 19.6704H49.7818C49.8801 19.6704 49.9585 19.7003 50.0175 19.7601C50.0863 19.8199 50.1157 19.8946 50.1058 19.9843C50.0961 20.1438 50.0126 20.3381 49.8555 20.5673C49.7082 20.7965 49.4924 21.0207 49.2075 21.24C48.9229 21.4593 48.5646 21.6436 48.1325 21.7931C47.7105 21.9326 47.2245 22.0024 46.6746 22.0024ZM45.0547 17.2935H48.3092V17.2486C48.3092 16.86 48.2455 16.5211 48.1178 16.2321C47.9903 15.9431 47.8037 15.7139 47.5582 15.5445C47.3129 15.3751 47.0183 15.2903 46.6746 15.2903C46.331 15.2903 46.0365 15.3751 45.791 15.5445C45.5457 15.7139 45.3591 15.9431 45.2314 16.2321C45.1136 16.5211 45.0547 16.86 45.0547 17.2486V17.2935ZM53.4215 21.8529C53.3233 21.8529 53.2398 21.818 53.1712 21.7483C53.1024 21.6785 53.0681 21.5938 53.0681 21.4941V11.598C53.0681 11.4983 53.1024 11.4136 53.1712 11.3438C53.2398 11.2741 53.3233 11.2392 53.4215 11.2392H54.6144C54.7223 11.2392 54.8058 11.2741 54.8647 11.3438C54.9333 11.4136 54.9678 11.4983 54.9678 11.598V16.7105L57.4418 14.3336C57.5302 14.2539 57.6087 14.1941 57.6775 14.1542C57.746 14.1044 57.8491 14.0795 57.9867 14.0795H59.3563C59.4543 14.0795 59.533 14.1094 59.5919 14.1692C59.6508 14.229 59.6803 14.3087 59.6803 14.4084C59.6803 14.4482 59.6704 14.4931 59.6508 14.5429C59.631 14.5927 59.5919 14.6376 59.533 14.6774L56.4994 17.5626L59.9011 21.2699C59.9992 21.3696 60.0484 21.4543 60.0484 21.524C60.0484 21.6237 60.0139 21.7034 59.9453 21.7632C59.8864 21.823 59.8128 21.8529 59.7244 21.8529H58.3254C58.1782 21.8529 58.07 21.833 58.0014 21.7931C57.9425 21.7433 57.8689 21.6785 57.7806 21.5988L54.9678 18.594V21.4941C54.9678 21.5938 54.9333 21.6785 54.8647 21.7483C54.8058 21.818 54.7223 21.8529 54.6144 21.8529H53.4215ZM62.6814 21.8529C62.5834 21.8529 62.4999 21.818 62.4311 21.7483C62.3625 21.6785 62.328 21.5938 62.328 21.4941V14.4382C62.328 14.3386 62.3625 14.2539 62.4311 14.1841C62.4999 14.1143 62.5834 14.0795 62.6814 14.0795H63.9037C64.0119 14.0795 64.0952 14.1143 64.1541 14.1841C64.2229 14.2539 64.2572 14.3386 64.2572 14.4382V21.4941C64.2572 21.5938 64.2229 21.6785 64.1541 21.7483C64.0952 21.818 64.0119 21.8529 63.9037 21.8529H62.6814ZM62.6225 12.7939C62.5146 12.7939 62.4263 12.764 62.3575 12.7042C62.2986 12.6344 62.2691 12.5447 62.2691 12.4351V11.3588C62.2691 11.2591 62.2986 11.1744 62.3575 11.1046C62.4263 11.0349 62.5146 11 62.6225 11H63.9626C64.0708 11 64.1591 11.0349 64.2277 11.1046C64.2965 11.1744 64.3308 11.2591 64.3308 11.3588V12.4351C64.3308 12.5447 64.2965 12.6344 64.2277 12.7042C64.1591 12.764 64.0708 12.7939 63.9626 12.7939H62.6225ZM67.7572 21.8529C67.6592 21.8529 67.5757 21.818 67.5069 21.7483C67.4383 21.6785 67.4038 21.5938 67.4038 21.4941V11.598C67.4038 11.4983 67.4383 11.4136 67.5069 11.3438C67.5757 11.2741 67.6592 11.2392 67.7572 11.2392H68.9795C69.0778 11.2392 69.1613 11.2741 69.2298 11.3438C69.2986 11.4136 69.3329 11.4983 69.3329 11.598V21.4941C69.3329 21.5938 69.2986 21.6785 69.2298 21.7483C69.1613 21.818 69.0778 21.8529 68.9795 21.8529H67.7572ZM74.6883 22.0024C74.1777 22.0024 73.7163 21.9027 73.304 21.7034C72.8916 21.4941 72.5626 21.2201 72.3173 20.8812C72.0817 20.5324 71.9639 20.1438 71.9639 19.7152C71.9639 19.0176 72.2386 18.4645 72.7886 18.0559C73.3482 17.6373 74.0845 17.3583 74.9975 17.2187L77.015 16.9198V16.6058C77.015 16.1873 76.9119 15.8634 76.7058 15.6342C76.4996 15.405 76.1462 15.2903 75.6455 15.2903C75.292 15.2903 75.0024 15.3651 74.7766 15.5146C74.5606 15.6541 74.3986 15.8434 74.2907 16.0826C74.212 16.2122 74.0992 16.277 73.9519 16.277H72.7886C72.6804 16.277 72.5971 16.2471 72.5382 16.1873C72.489 16.1275 72.4646 16.0478 72.4646 15.9481C72.4743 15.7886 72.5382 15.5943 72.656 15.3651C72.7738 15.1359 72.9602 14.9166 73.2156 14.7073C73.4708 14.4881 73.7996 14.3037 74.2023 14.1542C74.6047 14.0047 75.0907 13.93 75.6602 13.93C76.2787 13.93 76.799 14.0097 77.2212 14.1692C77.6531 14.3187 77.9966 14.523 78.252 14.7821C78.5072 15.0412 78.6938 15.3452 78.8116 15.694C78.9295 16.0428 78.9884 16.4115 78.9884 16.8002V21.4941C78.9884 21.5938 78.9538 21.6785 78.8853 21.7483C78.8165 21.818 78.733 21.8529 78.6349 21.8529H77.4421C77.3339 21.8529 77.2456 21.818 77.177 21.7483C77.1181 21.6785 77.0887 21.5938 77.0887 21.4941V20.9111C76.961 21.1005 76.7891 21.2799 76.5732 21.4493C76.3572 21.6087 76.0921 21.7433 75.778 21.8529C75.4736 21.9526 75.1103 22.0024 74.6883 22.0024ZM75.189 20.5822C75.5325 20.5822 75.8418 20.5075 76.1167 20.358C76.4014 20.2085 76.6222 19.9793 76.7794 19.6704C76.9462 19.3515 77.0298 18.9528 77.0298 18.4745V18.1605L75.5571 18.3997C74.9777 18.4894 74.5458 18.6339 74.2612 18.8332C73.9763 19.0325 73.8341 19.2767 73.8341 19.5657C73.8341 19.785 73.8979 19.9743 74.0256 20.1338C74.1629 20.2833 74.3348 20.3979 74.541 20.4776C74.7472 20.5474 74.963 20.5822 75.189 20.5822ZM88.2966 21.8529C88.1493 21.8529 88.0315 21.813 87.9431 21.7333C87.8647 21.6436 87.8106 21.534 87.7812 21.4044L86.0287 11.8222C86.0287 11.7923 86.0239 11.7674 86.014 11.7474C86.014 11.7275 86.014 11.7126 86.014 11.7026C86.014 11.6129 86.0434 11.5382 86.1023 11.4784C86.1711 11.4186 86.2448 11.3887 86.3232 11.3887H87.6192C87.8647 11.3887 88.002 11.4883 88.0315 11.6876L89.2538 18.4595L90.5792 14.0795C90.6086 13.9998 90.6579 13.92 90.7264 13.8403C90.8051 13.7506 90.9179 13.7058 91.0651 13.7058H91.8604C92.0175 13.7058 92.1305 13.7506 92.1991 13.8403C92.2679 13.92 92.312 13.9998 92.3316 14.0795L93.6717 18.4446L94.894 11.6876C94.9234 11.4883 95.061 11.3887 95.3063 11.3887H96.6023C96.6809 11.3887 96.7495 11.4186 96.8084 11.4784C96.8673 11.5382 96.8968 11.6129 96.8968 11.7026C96.8968 11.7126 96.8968 11.7275 96.8968 11.7474C96.8968 11.7674 96.8919 11.7923 96.8821 11.8222L95.1296 21.4044C95.1101 21.534 95.056 21.6436 94.9676 21.7333C94.8793 21.813 94.7615 21.8529 94.6142 21.8529H93.6275C93.4803 21.8529 93.3624 21.813 93.2741 21.7333C93.1956 21.6536 93.1416 21.5689 93.1121 21.4792L91.4627 16.4862L89.8134 21.4792C89.7743 21.5689 89.7154 21.6536 89.6367 21.7333C89.5582 21.813 89.4404 21.8529 89.2832 21.8529H88.2966ZM102.624 22.0024C101.534 22.0024 100.67 21.6835 100.032 21.0457C99.3938 20.4078 99.0503 19.501 99.0013 18.325C98.9914 18.2253 98.9865 18.1007 98.9865 17.9512C98.9865 17.7918 98.9914 17.6672 99.0013 17.5775C99.0404 16.8301 99.2074 16.1823 99.502 15.6342C99.8062 15.086 100.224 14.6675 100.754 14.3785C101.284 14.0795 101.907 13.93 102.624 13.93C103.419 13.93 104.087 14.0994 104.627 14.4382C105.167 14.7671 105.574 15.2305 105.849 15.8285C106.124 16.4165 106.261 17.0992 106.261 17.8765V18.1904C106.261 18.2901 106.227 18.3748 106.158 18.4446C106.089 18.5143 106.001 18.5492 105.893 18.5492H101.004C101.004 18.5492 101.004 18.5641 101.004 18.594C101.004 18.6239 101.004 18.6489 101.004 18.6688C101.014 19.0176 101.078 19.3415 101.195 19.6405C101.323 19.9295 101.505 20.1637 101.74 20.3431C101.986 20.5225 102.275 20.6121 102.609 20.6121C102.884 20.6121 103.115 20.5723 103.301 20.4926C103.488 20.4029 103.64 20.3032 103.758 20.1936C103.876 20.084 103.959 19.9943 104.008 19.9245C104.097 19.8049 104.165 19.7351 104.214 19.7152C104.273 19.6853 104.357 19.6704 104.465 19.6704H105.731C105.829 19.6704 105.908 19.7003 105.967 19.7601C106.035 19.8199 106.065 19.8946 106.055 19.9843C106.045 20.1438 105.962 20.3381 105.805 20.5673C105.658 20.7965 105.442 21.0207 105.157 21.24C104.872 21.4593 104.514 21.6436 104.082 21.7931C103.66 21.9326 103.174 22.0024 102.624 22.0024ZM101.004 17.2935H104.259V17.2486C104.259 16.86 104.195 16.5211 104.067 16.2321C103.939 15.9431 103.753 15.7139 103.508 15.5445C103.262 15.3751 102.967 15.2903 102.624 15.2903C102.28 15.2903 101.986 15.3751 101.74 15.5445C101.495 15.7139 101.308 15.9431 101.181 16.2321C101.063 16.5211 101.004 16.86 101.004 17.2486V17.2935ZM113.244 22.0024C112.674 22.0024 112.198 21.9027 111.815 21.7034C111.442 21.5041 111.133 21.25 110.888 20.941V21.4941C110.888 21.5938 110.853 21.6785 110.784 21.7483C110.726 21.818 110.642 21.8529 110.534 21.8529H109.371C109.273 21.8529 109.189 21.818 109.12 21.7483C109.052 21.6785 109.017 21.5938 109.017 21.4941V11.598C109.017 11.4983 109.052 11.4136 109.12 11.3438C109.189 11.2741 109.273 11.2392 109.371 11.2392H110.622C110.731 11.2392 110.814 11.2741 110.873 11.3438C110.942 11.4136 110.976 11.4983 110.976 11.598V14.9166C111.221 14.6276 111.526 14.3934 111.889 14.214C112.262 14.0247 112.714 13.93 113.244 13.93C113.764 13.93 114.216 14.0197 114.599 14.1991C114.981 14.3785 115.301 14.6326 115.556 14.9615C115.821 15.2804 116.022 15.6541 116.16 16.0826C116.297 16.5112 116.371 16.9746 116.38 17.4729C116.39 17.6523 116.395 17.8167 116.395 17.9662C116.395 18.1057 116.39 18.2652 116.38 18.4446C116.361 18.9628 116.282 19.4412 116.145 19.8797C116.007 20.3082 115.811 20.6819 115.556 21.0008C115.301 21.3197 114.981 21.5689 114.599 21.7483C114.216 21.9177 113.764 22.0024 113.244 22.0024ZM112.699 20.4029C113.121 20.4029 113.45 20.3132 113.686 20.1338C113.921 19.9444 114.088 19.7003 114.186 19.4013C114.294 19.1023 114.358 18.7734 114.378 18.4147C114.397 18.1157 114.397 17.8167 114.378 17.5177C114.358 17.1589 114.294 16.8301 114.186 16.5311C114.088 16.2321 113.921 15.9929 113.686 15.8135C113.45 15.6242 113.121 15.5295 112.699 15.5295C112.306 15.5295 111.987 15.6192 111.742 15.7986C111.496 15.978 111.31 16.2072 111.182 16.4862C111.055 16.7553 110.986 17.0394 110.976 17.3383C110.966 17.5177 110.961 17.7121 110.961 17.9213C110.961 18.1207 110.966 18.31 110.976 18.4894C110.996 18.7984 111.059 19.1023 111.167 19.4013C111.285 19.6903 111.467 19.9295 111.712 20.1188C111.968 20.3082 112.296 20.4029 112.699 20.4029ZM124.286 21.8529C124.188 21.8529 124.104 21.818 124.035 21.7483C123.967 21.6785 123.932 21.5938 123.932 21.4941V11.7624C123.932 11.6528 123.967 11.5631 124.035 11.4933C124.104 11.4235 124.188 11.3887 124.286 11.3887H130.677C130.785 11.3887 130.873 11.4235 130.942 11.4933C131.011 11.5631 131.045 11.6528 131.045 11.7624V12.8088C131.045 12.9184 131.011 13.0081 130.942 13.0779C130.873 13.1377 130.785 13.1676 130.677 13.1676H125.95V16.0079H130.382C130.49 16.0079 130.579 16.0428 130.647 16.1125C130.716 16.1823 130.75 16.272 130.75 16.3816V17.428C130.75 17.5277 130.716 17.6124 130.647 17.6822C130.579 17.7519 130.49 17.7868 130.382 17.7868H125.95V21.4941C125.95 21.5938 125.915 21.6785 125.847 21.7483C125.778 21.818 125.69 21.8529 125.581 21.8529H124.286ZM135.628 22.0024C135.117 22.0024 134.656 21.9027 134.244 21.7034C133.831 21.4941 133.502 21.2201 133.257 20.8812C133.021 20.5324 132.903 20.1438 132.903 19.7152C132.903 19.0176 133.178 18.4645 133.728 18.0559C134.288 17.6373 135.024 17.3583 135.937 17.2187L137.955 16.9198V16.6058C137.955 16.1873 137.851 15.8634 137.645 15.6342C137.439 15.405 137.086 15.2903 136.585 15.2903C136.232 15.2903 135.942 15.3651 135.716 15.5146C135.5 15.6541 135.338 15.8434 135.23 16.0826C135.152 16.2122 135.039 16.277 134.892 16.277H133.728C133.62 16.277 133.537 16.2471 133.478 16.1873C133.429 16.1275 133.404 16.0478 133.404 15.9481C133.414 15.7886 133.478 15.5943 133.596 15.3651C133.713 15.1359 133.9 14.9166 134.155 14.7073C134.41 14.4881 134.739 14.3037 135.142 14.1542C135.544 14.0047 136.03 13.93 136.6 13.93C137.218 13.93 137.739 14.0097 138.161 14.1692C138.593 14.3187 138.936 14.523 139.192 14.7821C139.447 15.0412 139.633 15.3452 139.751 15.694C139.869 16.0428 139.928 16.4115 139.928 16.8002V21.4941C139.928 21.5938 139.893 21.6785 139.825 21.7483C139.756 21.818 139.673 21.8529 139.574 21.8529H138.382C138.273 21.8529 138.185 21.818 138.117 21.7483C138.058 21.6785 138.028 21.5938 138.028 21.4941V20.9111C137.901 21.1005 137.729 21.2799 137.513 21.4493C137.297 21.6087 137.032 21.7433 136.718 21.8529C136.413 21.9526 136.05 22.0024 135.628 22.0024ZM136.129 20.5822C136.472 20.5822 136.781 20.5075 137.056 20.358C137.341 20.2085 137.562 19.9793 137.719 19.6704C137.886 19.3515 137.969 18.9528 137.969 18.4745V18.1605L136.497 18.3997C135.917 18.4894 135.485 18.6339 135.201 18.8332C134.916 19.0325 134.774 19.2767 134.774 19.5657C134.774 19.785 134.837 19.9743 134.965 20.1338C135.102 20.2833 135.274 20.3979 135.481 20.4776C135.687 20.5474 135.903 20.5822 136.129 20.5822ZM146.309 22.0024C145.602 22.0024 144.978 21.8679 144.438 21.5988C143.908 21.3297 143.491 20.941 143.187 20.4328C142.892 19.9145 142.73 19.2917 142.701 18.5641C142.691 18.4147 142.686 18.2203 142.686 17.9811C142.686 17.732 142.691 17.5277 142.701 17.3682C142.73 16.6407 142.892 16.0228 143.187 15.5146C143.491 14.9963 143.908 14.6027 144.438 14.3336C144.978 14.0645 145.602 13.93 146.309 13.93C146.937 13.93 147.472 14.0197 147.914 14.1991C148.356 14.3785 148.719 14.6027 149.003 14.8718C149.288 15.1408 149.499 15.4249 149.637 15.7239C149.784 16.0129 149.863 16.277 149.872 16.5161C149.882 16.6258 149.848 16.7155 149.769 16.7852C149.701 16.845 149.617 16.8749 149.519 16.8749H148.223C148.125 16.8749 148.046 16.85 147.987 16.8002C147.938 16.7504 147.889 16.6756 147.84 16.5759C147.693 16.1773 147.497 15.8983 147.251 15.7388C147.015 15.5694 146.711 15.4847 146.338 15.4847C145.847 15.4847 145.454 15.6441 145.16 15.963C144.875 16.272 144.723 16.7653 144.703 17.443C144.684 17.8217 144.684 18.1705 144.703 18.4894C144.723 19.1771 144.875 19.6753 145.16 19.9843C145.454 20.2932 145.847 20.4477 146.338 20.4477C146.721 20.4477 147.03 20.368 147.266 20.2085C147.501 20.0391 147.693 19.7551 147.84 19.3564C147.889 19.2568 147.938 19.182 147.987 19.1322C148.046 19.0824 148.125 19.0575 148.223 19.0575H149.519C149.617 19.0575 149.701 19.0923 149.769 19.1621C149.848 19.2219 149.882 19.3066 149.872 19.4162C149.863 19.5956 149.813 19.7999 149.725 20.0291C149.647 20.2484 149.514 20.4776 149.327 20.7168C149.151 20.946 148.925 21.1603 148.65 21.3596C148.375 21.549 148.041 21.7034 147.649 21.823C147.266 21.9426 146.819 22.0024 146.309 22.0024ZM156.047 21.8529C155.458 21.8529 154.962 21.7483 154.56 21.539C154.157 21.3297 153.858 21.0207 153.661 20.6121C153.465 20.1936 153.367 19.6753 153.367 19.0575V15.6641H152.204C152.105 15.6641 152.022 15.6292 151.953 15.5594C151.884 15.4896 151.85 15.405 151.85 15.3053V14.4382C151.85 14.3386 151.884 14.2539 151.953 14.1841C152.022 14.1143 152.105 14.0795 152.204 14.0795H153.367V11.598C153.367 11.4983 153.396 11.4136 153.455 11.3438C153.524 11.2741 153.612 11.2392 153.72 11.2392H154.913C155.011 11.2392 155.095 11.2741 155.163 11.3438C155.232 11.4136 155.267 11.4983 155.267 11.598V14.0795H157.107C157.205 14.0795 157.289 14.1143 157.358 14.1841C157.426 14.2539 157.461 14.3386 157.461 14.4382V15.3053C157.461 15.405 157.426 15.4896 157.358 15.5594C157.289 15.6292 157.205 15.6641 157.107 15.6641H155.267V18.908C155.267 19.3166 155.335 19.6355 155.473 19.8647C155.62 20.0939 155.87 20.2085 156.224 20.2085H157.24C157.338 20.2085 157.421 20.2434 157.49 20.3132C157.559 20.3829 157.593 20.4676 157.593 20.5673V21.4941C157.593 21.5938 157.559 21.6785 157.49 21.7483C157.421 21.818 157.338 21.8529 157.24 21.8529H156.047ZM163.465 22.0024C162.679 22.0024 162.017 21.8629 161.477 21.5838C160.947 21.3048 160.539 20.9111 160.254 20.4029C159.98 19.8946 159.823 19.3016 159.783 18.6239C159.774 18.4446 159.768 18.2253 159.768 17.9662C159.768 17.7071 159.774 17.4878 159.783 17.3084C159.823 16.6208 159.985 16.0278 160.269 15.5295C160.564 15.0213 160.976 14.6276 161.506 14.3486C162.046 14.0695 162.699 13.93 163.465 13.93C164.231 13.93 164.879 14.0695 165.409 14.3486C165.949 14.6276 166.361 15.0213 166.646 15.5295C166.94 16.0278 167.107 16.6208 167.146 17.3084C167.156 17.4878 167.161 17.7071 167.161 17.9662C167.161 18.2253 167.156 18.4446 167.146 18.6239C167.107 19.3016 166.945 19.8946 166.66 20.4029C166.386 20.9111 165.978 21.3048 165.438 21.5838C164.908 21.8629 164.25 22.0024 163.465 22.0024ZM163.465 20.5225C163.985 20.5225 164.388 20.358 164.672 20.0291C164.957 19.6903 165.114 19.197 165.144 18.5492C165.153 18.3997 165.158 18.2054 165.158 17.9662C165.158 17.727 165.153 17.5327 165.144 17.3832C165.114 16.7454 164.957 16.257 164.672 15.9182C164.388 15.5793 163.985 15.4099 163.465 15.4099C162.945 15.4099 162.542 15.5793 162.257 15.9182C161.973 16.257 161.815 16.7454 161.786 17.3832C161.776 17.5327 161.771 17.727 161.771 17.9662C161.771 18.2054 161.776 18.3997 161.786 18.5492C161.815 19.197 161.973 19.6903 162.257 20.0291C162.542 20.358 162.945 20.5225 163.465 20.5225ZM170.324 21.8529C170.226 21.8529 170.143 21.818 170.074 21.7483C170.005 21.6785 169.971 21.5938 169.971 21.4941V14.4532C169.971 14.3436 170.005 14.2539 170.074 14.1841C170.143 14.1143 170.226 14.0795 170.324 14.0795H171.517C171.615 14.0795 171.699 14.1143 171.767 14.1841C171.846 14.2539 171.885 14.3436 171.885 14.4532V15.0661C172.111 14.7472 172.401 14.503 172.754 14.3336C173.117 14.1642 173.535 14.0795 174.006 14.0795H174.61C174.718 14.0795 174.801 14.1143 174.86 14.1841C174.929 14.2539 174.963 14.3386 174.963 14.4382V15.5146C174.963 15.6142 174.929 15.6989 174.86 15.7687C174.801 15.8385 174.718 15.8733 174.61 15.8733H173.461C172.99 15.8733 172.622 16.0079 172.357 16.277C172.101 16.546 171.974 16.9148 171.974 17.3832V21.4941C171.974 21.5938 171.939 21.6785 171.871 21.7483C171.802 21.818 171.714 21.8529 171.605 21.8529H170.324ZM178.674 24.6932C178.595 24.6932 178.527 24.6633 178.468 24.6035C178.409 24.5437 178.38 24.4739 178.38 24.3942C178.38 24.3543 178.38 24.3145 178.38 24.2746C178.389 24.2447 178.409 24.2049 178.439 24.155L179.587 21.3895L176.76 14.6176C176.72 14.518 176.701 14.4482 176.701 14.4084C176.71 14.3187 176.745 14.2439 176.804 14.1841C176.863 14.1143 176.936 14.0795 177.025 14.0795H178.218C178.335 14.0795 178.424 14.1094 178.483 14.1692C178.542 14.229 178.586 14.2937 178.615 14.3635L180.574 19.2518L182.591 14.3635C182.621 14.2838 182.665 14.219 182.724 14.1692C182.783 14.1094 182.871 14.0795 182.989 14.0795H184.167C184.246 14.0795 184.314 14.1094 184.373 14.1692C184.442 14.229 184.476 14.2987 184.476 14.3785C184.476 14.4382 184.457 14.518 184.417 14.6176L180.25 24.4092C180.211 24.4889 180.161 24.5537 180.103 24.6035C180.044 24.6633 179.955 24.6932 179.838 24.6932H178.674Z" fill="#333333"/>
</g>
<defs>
<clipPath id="clip0_114_48">
<rect width="185" height="32" fill="white"/>
</clipPath>
</defs>
</svg>
