<svg width="370" height="146" viewBox="0 0 370 146" fill="none" xmlns="http://www.w3.org/2000/svg">
<g clip-path="url(#clip0_575_82)">
<path d="M34.6201 145.651C32.9601 145.651 31.6201 144.311 31.6201 142.651V82.6407C31.6201 75.6507 37.3101 69.9607 44.3001 69.9607H81.3901C85.6201 69.9607 89.0501 66.5207 89.0501 62.3007V23.3907C89.0501 20.8107 86.9601 18.7207 84.3801 18.7207C81.8001 18.7207 79.7101 20.8107 79.7101 23.3907V56.5007C79.7101 58.1607 78.3701 59.5007 76.7101 59.5007C75.0501 59.5007 73.7101 58.1607 73.7101 56.5007V23.3907C73.7101 17.5107 78.5001 12.7207 84.3801 12.7207C90.2601 12.7207 95.0501 17.5107 95.0501 23.3907V62.3007C95.0501 69.8307 88.9201 75.9607 81.3901 75.9607H44.3001C40.6201 75.9607 37.6201 78.9607 37.6201 82.6407V142.651C37.6201 144.311 36.2801 145.651 34.6201 145.651Z" fill="#333333"/>
<path d="M60.43 145.649C58.77 145.649 57.43 144.309 57.43 142.649V119.279C57.43 115.459 54.32 112.349 50.5 112.349H13.66C6.13 112.349 0 106.219 0 98.6894V59.7794C0 53.8994 4.79 49.1094 10.67 49.1094C16.55 49.1094 21.34 53.8994 21.34 59.7794V92.8894C21.34 94.5494 20 95.8894 18.34 95.8894C16.68 95.8894 15.34 94.5494 15.34 92.8894V59.7794C15.34 57.1994 13.25 55.1094 10.67 55.1094C8.09 55.1094 6 57.1994 6 59.7794V98.6894C6 102.919 9.44 106.349 13.66 106.349H50.5C57.63 106.349 63.43 112.149 63.43 119.279V142.649C63.43 144.309 62.09 145.649 60.43 145.649Z" fill="#333333"/>
<path d="M60.4301 86.87C58.7701 86.87 57.4301 85.53 57.4301 83.87V15.91C57.4301 10.45 52.9901 6 47.5201 6C42.0501 6 37.6101 10.44 37.6101 15.91V22.01C37.6101 23.67 36.2701 25.01 34.6101 25.01C32.9501 25.01 31.6101 23.67 31.6101 22.01V15.91C31.6101 7.14 38.7501 0 47.5201 0C56.2901 0 63.4301 7.14 63.4301 15.91V83.87C63.4301 85.53 62.0901 86.87 60.4301 86.87Z" fill="#333333"/>
<path d="M34.6201 64.2195C32.9601 64.2195 31.6201 62.8795 31.6201 61.2195V48.1895C31.6201 46.5295 32.9601 45.1895 34.6201 45.1895C36.2801 45.1895 37.6201 46.5295 37.6201 48.1895V61.2195C37.6201 62.8795 36.2801 64.2195 34.6201 64.2195Z" fill="#333333"/>
<path d="M60.4299 101.231C58.7699 101.231 57.4299 99.8907 57.4299 98.2307V97.7207C57.4299 96.0607 58.7699 94.7207 60.4299 94.7207C62.0899 94.7207 63.4299 96.0607 63.4299 97.7207V98.2307C63.4299 99.8907 62.0899 101.231 60.4299 101.231Z" fill="#333333"/>
<path d="M34.6201 38.6995C32.9601 38.6995 31.6201 37.3595 31.6201 35.6995V35.1895C31.6201 33.5295 32.9601 32.1895 34.6201 32.1895C36.2801 32.1895 37.6201 33.5295 37.6201 35.1895V35.6995C37.6201 37.3595 36.2801 38.6995 34.6201 38.6995Z" fill="#333333"/>
<path d="M140.49 33.7843V78.8243H128.33V33.7843H113.21V22.9843H155.61V33.7843H140.49Z" fill="#333333"/>
<path d="M175.574 79.7843C172.374 79.7843 169.521 79.2776 167.014 78.2643C164.508 77.1976 162.374 75.731 160.614 73.8643C158.908 71.9443 157.601 69.6243 156.694 66.9043C155.841 64.1843 155.414 61.1443 155.414 57.7843C155.414 54.4776 155.841 51.491 156.694 48.8243C157.548 46.1043 158.801 43.7843 160.454 41.8643C162.161 39.9443 164.241 38.4776 166.694 37.4643C169.148 36.3976 171.948 35.8643 175.094 35.8643C178.561 35.8643 181.521 36.451 183.974 37.6243C186.481 38.7976 188.508 40.371 190.054 42.3443C191.654 44.3176 192.801 46.611 193.494 49.2243C194.241 51.7843 194.614 54.4776 194.614 57.3043V60.8243H167.654V61.4643C167.654 64.2376 168.401 66.451 169.894 68.1043C171.388 69.7043 173.734 70.5043 176.934 70.5043C179.388 70.5043 181.388 70.0243 182.934 69.0643C184.481 68.051 185.921 66.851 187.254 65.4643L193.174 72.8243C191.308 75.011 188.854 76.7176 185.814 77.9443C182.828 79.171 179.414 79.7843 175.574 79.7843ZM175.334 44.5843C172.934 44.5843 171.041 45.3843 169.654 46.9843C168.321 48.531 167.654 50.611 167.654 53.2243V53.8643H182.374V53.1443C182.374 50.5843 181.788 48.531 180.614 46.9843C179.494 45.3843 177.734 44.5843 175.334 44.5843Z" fill="#333333"/>
<path d="M202.976 19.6243H214.816V54.5843H215.296L220.496 46.8243L228.896 36.8243H242.016L228.016 52.9043L243.616 78.8243H229.536L220.096 61.0643L214.816 66.9843V78.8243H202.976V19.6243Z" fill="#333333"/>
<path d="M255.068 32.3443C252.668 32.3443 250.908 31.811 249.788 30.7443C248.721 29.6243 248.188 28.211 248.188 26.5043V24.7443C248.188 23.0376 248.721 21.651 249.788 20.5843C250.908 19.4643 252.668 18.9043 255.068 18.9043C257.468 18.9043 259.201 19.4643 260.268 20.5843C261.388 21.651 261.948 23.0376 261.948 24.7443V26.5043C261.948 28.211 261.388 29.6243 260.268 30.7443C259.201 31.811 257.468 32.3443 255.068 32.3443ZM249.148 36.8243H260.988V78.8243H249.148V36.8243Z" fill="#333333"/>
<path d="M283.799 78.8243C279.745 78.8243 276.759 77.8376 274.839 75.8643C272.972 73.891 272.039 71.0376 272.039 67.3043V19.6243H283.879V69.6243H289.159V78.8243H283.799Z" fill="#333333"/>
<path d="M327.297 78.8243C325.164 78.8243 323.377 78.1576 321.937 76.8243C320.551 75.491 319.671 73.7043 319.297 71.4643H318.817C318.177 74.1843 316.764 76.2643 314.577 77.7043C312.391 79.091 309.697 79.7843 306.497 79.7843C302.284 79.7843 299.057 78.6643 296.817 76.4243C294.577 74.1843 293.457 71.2243 293.457 67.5443C293.457 63.1176 295.057 59.8376 298.257 57.7043C301.511 55.5176 305.911 54.4243 311.457 54.4243H318.097V51.7843C318.097 49.7576 317.564 48.1576 316.497 46.9843C315.431 45.7576 313.644 45.1443 311.137 45.1443C308.791 45.1443 306.924 45.651 305.537 46.6643C304.151 47.6776 303.004 48.8243 302.097 50.1043L295.057 43.8643C296.764 41.3576 298.897 39.411 301.457 38.0243C304.071 36.5843 307.591 35.8643 312.017 35.8643C317.991 35.8643 322.471 37.171 325.457 39.7843C328.444 42.3976 329.937 46.211 329.937 51.2243V69.6243H333.857V78.8243H327.297ZM310.897 71.5443C312.871 71.5443 314.551 71.1176 315.937 70.2643C317.377 69.411 318.097 68.0243 318.097 66.1043V61.1443H312.337C307.697 61.1443 305.377 62.7176 305.377 65.8643V67.0643C305.377 68.611 305.857 69.7576 306.817 70.5043C307.777 71.1976 309.137 71.5443 310.897 71.5443Z" fill="#333333"/>
<path d="M118.65 122.825L111.85 94.9046H115.41L120.73 118.785H120.81L123.41 108.345L126.93 94.9046H130.77L134.17 108.345L136.77 118.745H136.89L139.29 108.345L142.45 94.9046H145.89L138.73 122.825H135.01L131.37 108.905L128.81 98.6646H128.73L126.09 108.905L122.37 122.825H118.65Z" fill="#333333"/>
<path d="M157.249 123.305C155.836 123.305 154.556 123.051 153.409 122.545C152.289 122.038 151.316 121.318 150.489 120.385C149.689 119.425 149.062 118.291 148.609 116.985C148.182 115.651 147.969 114.158 147.969 112.505C147.969 110.878 148.182 109.398 148.609 108.065C149.062 106.731 149.689 105.598 150.489 104.665C151.316 103.705 152.289 102.971 153.409 102.465C154.556 101.958 155.836 101.705 157.249 101.705C158.636 101.705 159.876 101.958 160.969 102.465C162.062 102.971 162.996 103.678 163.769 104.585C164.542 105.465 165.129 106.518 165.529 107.745C165.956 108.971 166.169 110.318 166.169 111.785V113.305H151.329V114.265C151.329 115.145 151.462 115.971 151.729 116.745C152.022 117.491 152.422 118.145 152.929 118.705C153.462 119.265 154.102 119.705 154.849 120.025C155.622 120.345 156.489 120.505 157.449 120.505C158.756 120.505 159.889 120.198 160.849 119.585C161.836 118.971 162.596 118.091 163.129 116.945L165.409 118.585C164.742 119.998 163.702 121.145 162.289 122.025C160.876 122.878 159.196 123.305 157.249 123.305ZM157.249 104.385C156.369 104.385 155.569 104.545 154.849 104.865C154.129 105.158 153.502 105.585 152.969 106.145C152.462 106.705 152.062 107.371 151.769 108.145C151.476 108.891 151.329 109.718 151.329 110.625V110.905H162.729V110.465C162.729 108.625 162.222 107.158 161.209 106.065C160.222 104.945 158.902 104.385 157.249 104.385Z" fill="#333333"/>
<path d="M171.442 93.2246H174.642V105.545H174.802C175.336 104.238 176.109 103.278 177.122 102.665C178.162 102.025 179.402 101.705 180.842 101.705C182.122 101.705 183.282 101.958 184.322 102.465C185.362 102.971 186.242 103.691 186.962 104.625C187.709 105.558 188.269 106.691 188.642 108.025C189.042 109.358 189.242 110.851 189.242 112.505C189.242 114.158 189.042 115.651 188.642 116.985C188.269 118.318 187.709 119.451 186.962 120.385C186.242 121.318 185.362 122.038 184.322 122.545C183.282 123.051 182.122 123.305 180.842 123.305C178.042 123.305 176.029 122.025 174.802 119.465H174.642V122.825H171.442V93.2246ZM179.962 120.425C181.776 120.425 183.202 119.865 184.242 118.745C185.282 117.598 185.802 116.105 185.802 114.265V110.745C185.802 108.905 185.282 107.425 184.242 106.305C183.202 105.158 181.776 104.585 179.962 104.585C179.242 104.585 178.549 104.691 177.882 104.905C177.242 105.091 176.682 105.358 176.202 105.705C175.722 106.051 175.336 106.478 175.042 106.985C174.776 107.465 174.642 107.985 174.642 108.545V116.225C174.642 116.891 174.776 117.491 175.042 118.025C175.336 118.531 175.722 118.971 176.202 119.345C176.682 119.691 177.242 119.958 177.882 120.145C178.549 120.331 179.242 120.425 179.962 120.425Z" fill="#333333"/>
<path d="M204.419 122.825V94.9046H221.059V97.8646H207.779V107.225H219.899V110.185H207.779V122.825H204.419Z" fill="#333333"/>
<path d="M239.841 122.825C238.641 122.825 237.774 122.505 237.241 121.865C236.734 121.225 236.414 120.425 236.281 119.465H236.081C235.627 120.745 234.881 121.705 233.841 122.345C232.801 122.985 231.561 123.305 230.121 123.305C227.934 123.305 226.227 122.745 225.001 121.625C223.801 120.505 223.201 118.985 223.201 117.065C223.201 115.118 223.907 113.625 225.321 112.585C226.761 111.545 228.987 111.025 232.001 111.025H236.081V108.985C236.081 107.518 235.681 106.398 234.881 105.625C234.081 104.851 232.854 104.465 231.201 104.465C229.947 104.465 228.894 104.745 228.041 105.305C227.214 105.865 226.521 106.611 225.961 107.545L224.041 105.745C224.601 104.625 225.494 103.678 226.721 102.905C227.947 102.105 229.494 101.705 231.361 101.705C233.867 101.705 235.814 102.318 237.201 103.545C238.587 104.771 239.281 106.478 239.281 108.665V120.025H241.641V122.825H239.841ZM230.641 120.585C231.441 120.585 232.174 120.491 232.841 120.305C233.507 120.118 234.081 119.851 234.561 119.505C235.041 119.158 235.414 118.758 235.681 118.305C235.947 117.851 236.081 117.358 236.081 116.825V113.425H231.841C230.001 113.425 228.654 113.691 227.801 114.225C226.974 114.758 226.561 115.531 226.561 116.545V117.385C226.561 118.398 226.921 119.185 227.641 119.745C228.387 120.305 229.387 120.585 230.641 120.585Z" fill="#333333"/>
<path d="M253.888 123.305C252.448 123.305 251.155 123.051 250.008 122.545C248.861 122.038 247.888 121.318 247.088 120.385C246.315 119.451 245.715 118.318 245.288 116.985C244.888 115.651 244.688 114.158 244.688 112.505C244.688 110.851 244.888 109.358 245.288 108.025C245.715 106.691 246.315 105.558 247.088 104.625C247.888 103.691 248.861 102.971 250.008 102.465C251.155 101.958 252.448 101.705 253.888 101.705C255.941 101.705 257.581 102.158 258.808 103.065C260.061 103.945 260.995 105.105 261.608 106.545L258.928 107.905C258.555 106.838 257.941 106.011 257.088 105.425C256.235 104.838 255.168 104.545 253.888 104.545C252.928 104.545 252.088 104.705 251.368 105.025C250.648 105.318 250.048 105.745 249.568 106.305C249.088 106.838 248.728 107.491 248.488 108.265C248.248 109.011 248.128 109.838 248.128 110.745V114.265C248.128 116.078 248.608 117.571 249.568 118.745C250.555 119.891 251.995 120.465 253.888 120.465C256.475 120.465 258.341 119.265 259.488 116.865L261.808 118.425C261.141 119.918 260.141 121.105 258.808 121.985C257.501 122.865 255.861 123.305 253.888 123.305Z" fill="#333333"/>
<path d="M270.885 122.825C269.765 122.825 268.912 122.518 268.325 121.905C267.765 121.265 267.485 120.438 267.485 119.425V104.985H264.085V102.185H266.005C266.698 102.185 267.165 102.051 267.405 101.785C267.672 101.491 267.805 100.998 267.805 100.305V96.4646H270.685V102.185H275.205V104.985H270.685V120.025H274.885V122.825H270.885Z" fill="#333333"/>
<path d="M287.992 123.305C286.606 123.305 285.339 123.051 284.192 122.545C283.046 122.038 282.059 121.318 281.232 120.385C280.432 119.425 279.806 118.291 279.352 116.985C278.899 115.651 278.672 114.158 278.672 112.505C278.672 110.878 278.899 109.398 279.352 108.065C279.806 106.731 280.432 105.598 281.232 104.665C282.059 103.705 283.046 102.971 284.192 102.465C285.339 101.958 286.606 101.705 287.992 101.705C289.379 101.705 290.632 101.958 291.752 102.465C292.899 102.971 293.886 103.705 294.712 104.665C295.539 105.598 296.179 106.731 296.632 108.065C297.086 109.398 297.312 110.878 297.312 112.505C297.312 114.158 297.086 115.651 296.632 116.985C296.179 118.291 295.539 119.425 294.712 120.385C293.886 121.318 292.899 122.038 291.752 122.545C290.632 123.051 289.379 123.305 287.992 123.305ZM287.992 120.465C289.726 120.465 291.139 119.931 292.232 118.865C293.326 117.798 293.872 116.171 293.872 113.985V111.025C293.872 108.838 293.326 107.211 292.232 106.145C291.139 105.078 289.726 104.545 287.992 104.545C286.259 104.545 284.846 105.078 283.752 106.145C282.659 107.211 282.112 108.838 282.112 111.025V113.985C282.112 116.171 282.659 117.798 283.752 118.865C284.846 119.931 286.259 120.465 287.992 120.465Z" fill="#333333"/>
<path d="M302.575 122.825V102.185H305.775V105.985H305.975C306.348 104.998 307.015 104.118 307.975 103.345C308.935 102.571 310.255 102.185 311.935 102.185H313.175V105.385H311.295C309.562 105.385 308.202 105.718 307.215 106.385C306.255 107.025 305.775 107.838 305.775 108.825V122.825H302.575Z" fill="#333333"/>
<path d="M330.373 102.185H333.533L324.293 127.625C324.053 128.238 323.813 128.745 323.573 129.145C323.333 129.571 323.04 129.905 322.693 130.145C322.347 130.385 321.907 130.558 321.373 130.665C320.867 130.771 320.24 130.825 319.493 130.825H317.853V128.025H321.093L322.653 123.625L314.933 102.185H318.133L323.093 116.225L324.053 119.585H324.253L325.373 116.225L330.373 102.185Z" fill="#333333"/>
</g>
<defs>
<clipPath id="clip0_575_82">
<rect width="370" height="145.65" fill="white"/>
</clipPath>
</defs>
</svg>
