<svg width="669" height="663" viewBox="0 0 669 663" fill="none" xmlns="http://www.w3.org/2000/svg">
<rect width="669" height="663" fill="white"/>
<path d="M106.336 353.5C105.867 353.5 105.483 353.351 105.184 353.052C104.885 352.753 104.736 352.369 104.736 351.9V310.3C104.736 309.831 104.885 309.447 105.184 309.148C105.483 308.849 105.867 308.7 106.336 308.7H123.808C127.264 308.7 130.251 309.233 132.768 310.3C135.328 311.367 137.312 312.988 138.72 315.164C140.171 317.297 140.896 319.964 140.896 323.164C140.896 326.407 140.171 329.095 138.72 331.228C137.312 333.319 135.328 334.876 132.768 335.9C130.251 336.924 127.264 337.436 123.808 337.436H115.232V351.9C115.232 352.369 115.083 352.753 114.784 353.052C114.485 353.351 114.101 353.5 113.632 353.5H106.336ZM115.04 329.5H123.488C125.664 329.5 127.349 328.967 128.544 327.9C129.781 326.833 130.4 325.233 130.4 323.1C130.4 321.223 129.845 319.687 128.736 318.492C127.669 317.297 125.92 316.7 123.488 316.7H115.04V329.5ZM149.024 353.5C148.554 353.5 148.17 353.351 147.872 353.052C147.573 352.753 147.424 352.369 147.424 351.9V310.3C147.424 309.831 147.573 309.447 147.872 309.148C148.17 308.849 148.554 308.7 149.024 308.7H156.128C156.597 308.7 156.981 308.849 157.28 309.148C157.578 309.447 157.728 309.831 157.728 310.3V344.924H177.568C178.037 344.924 178.421 345.073 178.72 345.372C179.018 345.671 179.168 346.055 179.168 346.524V351.9C179.168 352.369 179.018 352.753 178.72 353.052C178.421 353.351 178.037 353.5 177.568 353.5H149.024ZM182.424 353.5C182.041 353.5 181.721 353.372 181.465 353.116C181.209 352.817 181.081 352.497 181.081 352.156C181.081 351.943 181.102 351.751 181.145 351.58L196.377 310.428C196.505 309.959 196.761 309.553 197.145 309.212C197.529 308.871 198.062 308.7 198.745 308.7H206.937C207.619 308.7 208.153 308.871 208.537 309.212C208.921 309.553 209.177 309.959 209.305 310.428L224.537 351.58C224.579 351.751 224.601 351.943 224.601 352.156C224.601 352.497 224.473 352.817 224.217 353.116C223.961 353.372 223.641 353.5 223.257 353.5H216.601C215.961 353.5 215.491 353.351 215.193 353.052C214.894 352.753 214.702 352.476 214.617 352.22L211.865 345.052H193.817L191.065 352.22C190.979 352.476 190.787 352.753 190.489 353.052C190.19 353.351 189.721 353.5 189.081 353.5H182.424ZM196.185 336.796H209.433L202.841 318.364L196.185 336.796ZM246.966 354.14C242.955 354.14 239.542 353.479 236.726 352.156C233.952 350.791 231.798 348.828 230.262 346.268C228.726 343.665 227.872 340.508 227.702 336.796C227.659 335.047 227.638 333.169 227.638 331.164C227.638 329.159 227.659 327.239 227.702 325.404C227.872 321.735 228.726 318.62 230.262 316.06C231.84 313.457 234.038 311.473 236.854 310.108C239.67 308.743 243.04 308.06 246.966 308.06C249.824 308.06 252.427 308.423 254.774 309.148C257.12 309.873 259.147 310.919 260.854 312.284C262.56 313.649 263.883 315.249 264.822 317.084C265.76 318.919 266.272 320.967 266.358 323.228C266.358 323.612 266.208 323.932 265.91 324.188C265.654 324.444 265.334 324.572 264.95 324.572H257.654C257.142 324.572 256.736 324.444 256.438 324.188C256.139 323.932 255.904 323.505 255.734 322.908C255.094 320.391 254.027 318.663 252.534 317.724C251.04 316.785 249.184 316.316 246.966 316.316C244.32 316.316 242.23 317.041 240.694 318.492C239.158 319.943 238.326 322.353 238.198 325.724C238.07 329.223 238.07 332.807 238.198 336.476C238.326 339.847 239.158 342.257 240.694 343.708C242.23 345.159 244.32 345.884 246.966 345.884C249.184 345.884 251.04 345.415 252.534 344.476C254.07 343.495 255.136 341.767 255.734 339.292C255.904 338.652 256.139 338.225 256.438 338.012C256.736 337.756 257.142 337.628 257.654 337.628H264.95C265.334 337.628 265.654 337.756 265.91 338.012C266.208 338.268 266.358 338.588 266.358 338.972C266.272 341.233 265.76 343.281 264.822 345.116C263.883 346.951 262.56 348.551 260.854 349.916C259.147 351.281 257.12 352.327 254.774 353.052C252.427 353.777 249.824 354.14 246.966 354.14ZM275.149 353.5C274.679 353.5 274.295 353.351 273.997 353.052C273.698 352.753 273.549 352.369 273.549 351.9V310.3C273.549 309.831 273.698 309.447 273.997 309.148C274.295 308.849 274.679 308.7 275.149 308.7H304.141C304.61 308.7 304.994 308.849 305.293 309.148C305.591 309.447 305.741 309.831 305.741 310.3V315.42C305.741 315.847 305.591 316.209 305.293 316.508C304.994 316.807 304.61 316.956 304.141 316.956H283.405V327.004H302.733C303.202 327.004 303.586 327.153 303.885 327.452C304.183 327.751 304.333 328.135 304.333 328.604V333.34C304.333 333.767 304.183 334.129 303.885 334.428C303.586 334.727 303.202 334.876 302.733 334.876H283.405V345.244H304.653C305.122 345.244 305.506 345.393 305.805 345.692C306.103 345.991 306.253 346.375 306.253 346.844V351.9C306.253 352.369 306.103 352.753 305.805 353.052C305.506 353.351 305.122 353.5 304.653 353.5H275.149ZM315.461 353.5C314.992 353.5 314.608 353.351 314.309 353.052C314.01 352.753 313.861 352.369 313.861 351.9V310.3C313.861 309.831 314.01 309.447 314.309 309.148C314.608 308.849 314.992 308.7 315.461 308.7H322.437C322.906 308.7 323.29 308.849 323.589 309.148C323.888 309.447 324.037 309.831 324.037 310.3V326.3H341.381V310.3C341.381 309.831 341.53 309.447 341.829 309.148C342.128 308.849 342.512 308.7 342.981 308.7H349.957C350.426 308.7 350.81 308.849 351.109 309.148C351.408 309.447 351.557 309.831 351.557 310.3V351.9C351.557 352.369 351.408 352.753 351.109 353.052C350.81 353.351 350.426 353.5 349.957 353.5H342.981C342.512 353.5 342.128 353.351 341.829 353.052C341.53 352.753 341.381 352.369 341.381 351.9V335.388H324.037V351.9C324.037 352.369 323.888 352.753 323.589 353.052C323.29 353.351 322.906 353.5 322.437 353.5H315.461ZM378.841 354.14C374.958 354.14 371.609 353.5 368.793 352.22C365.977 350.94 363.779 349.02 362.201 346.46C360.622 343.857 359.769 340.593 359.641 336.668C359.598 334.833 359.577 333.02 359.577 331.228C359.577 329.393 359.598 327.537 359.641 325.66C359.769 321.82 360.622 318.599 362.201 315.996C363.822 313.351 366.041 311.367 368.857 310.044C371.715 308.721 375.043 308.06 378.841 308.06C382.595 308.06 385.881 308.721 388.697 310.044C391.555 311.367 393.795 313.351 395.417 315.996C397.038 318.599 397.891 321.82 397.977 325.66C398.062 327.537 398.105 329.393 398.105 331.228C398.105 333.02 398.062 334.833 397.977 336.668C397.849 340.593 396.995 343.857 395.417 346.46C393.838 349.02 391.641 350.94 388.825 352.22C386.009 353.5 382.681 354.14 378.841 354.14ZM378.841 345.884C381.315 345.884 383.342 345.137 384.921 343.644C386.542 342.108 387.395 339.676 387.481 336.348C387.566 334.471 387.609 332.721 387.609 331.1C387.609 329.436 387.566 327.687 387.481 325.852C387.438 323.633 387.033 321.82 386.265 320.412C385.497 319.004 384.473 317.98 383.193 317.34C381.955 316.657 380.505 316.316 378.841 316.316C377.177 316.316 375.705 316.657 374.425 317.34C373.145 317.98 372.121 319.004 371.353 320.412C370.627 321.82 370.222 323.633 370.137 325.852C370.094 327.687 370.073 329.436 370.073 331.1C370.073 332.721 370.094 334.471 370.137 336.348C370.265 339.676 371.118 342.108 372.697 343.644C374.275 345.137 376.323 345.884 378.841 345.884ZM407.649 353.5C407.179 353.5 406.795 353.351 406.497 353.052C406.198 352.753 406.049 352.369 406.049 351.9V310.3C406.049 309.831 406.198 309.447 406.497 309.148C406.795 308.849 407.179 308.7 407.649 308.7H414.753C415.222 308.7 415.606 308.849 415.905 309.148C416.203 309.447 416.353 309.831 416.353 310.3V344.924H436.193C436.662 344.924 437.046 345.073 437.345 345.372C437.643 345.671 437.793 346.055 437.793 346.524V351.9C437.793 352.369 437.643 352.753 437.345 353.052C437.046 353.351 436.662 353.5 436.193 353.5H407.649ZM445.274 353.5C444.804 353.5 444.42 353.351 444.122 353.052C443.823 352.753 443.674 352.369 443.674 351.9V310.3C443.674 309.831 443.823 309.447 444.122 309.148C444.42 308.849 444.804 308.7 445.274 308.7H461.338C465.604 308.7 469.167 309.383 472.026 310.748C474.884 312.071 477.06 314.033 478.554 316.636C480.09 319.196 480.9 322.375 480.986 326.172C481.028 328.049 481.05 329.692 481.05 331.1C481.05 332.508 481.028 334.129 480.986 335.964C480.858 339.932 480.068 343.217 478.618 345.82C477.167 348.423 475.034 350.364 472.218 351.644C469.402 352.881 465.882 353.5 461.658 353.5H445.274ZM453.85 345.244H461.338C463.471 345.244 465.22 344.924 466.586 344.284C467.951 343.644 468.954 342.641 469.594 341.276C470.276 339.868 470.639 338.055 470.682 335.836C470.724 334.599 470.746 333.489 470.746 332.508C470.788 331.527 470.788 330.545 470.746 329.564C470.746 328.583 470.724 327.495 470.682 326.3C470.596 323.1 469.764 320.753 468.186 319.26C466.65 317.724 464.26 316.956 461.018 316.956H453.85V345.244ZM490.649 353.5C490.179 353.5 489.795 353.351 489.497 353.052C489.198 352.753 489.049 352.369 489.049 351.9V310.3C489.049 309.831 489.198 309.447 489.497 309.148C489.795 308.849 490.179 308.7 490.649 308.7H519.641C520.11 308.7 520.494 308.849 520.793 309.148C521.091 309.447 521.241 309.831 521.241 310.3V315.42C521.241 315.847 521.091 316.209 520.793 316.508C520.494 316.807 520.11 316.956 519.641 316.956H498.905V327.004H518.233C518.702 327.004 519.086 327.153 519.385 327.452C519.683 327.751 519.833 328.135 519.833 328.604V333.34C519.833 333.767 519.683 334.129 519.385 334.428C519.086 334.727 518.702 334.876 518.233 334.876H498.905V345.244H520.153C520.622 345.244 521.006 345.393 521.305 345.692C521.603 345.991 521.753 346.375 521.753 346.844V351.9C521.753 352.369 521.603 352.753 521.305 353.052C521.006 353.351 520.622 353.5 520.153 353.5H490.649ZM530.961 353.5C530.492 353.5 530.108 353.351 529.809 353.052C529.51 352.753 529.361 352.369 529.361 351.9V310.3C529.361 309.831 529.51 309.447 529.809 309.148C530.108 308.849 530.492 308.7 530.961 308.7H547.921C553.254 308.7 557.457 309.937 560.529 312.412C563.601 314.844 565.137 318.364 565.137 322.972C565.137 326.087 564.39 328.689 562.897 330.78C561.404 332.871 559.398 334.428 556.881 335.452L565.905 351.452C566.033 351.708 566.097 351.943 566.097 352.156C566.097 352.497 565.969 352.817 565.713 353.116C565.457 353.372 565.137 353.5 564.753 353.5H557.649C556.881 353.5 556.305 353.308 555.921 352.924C555.537 352.497 555.26 352.113 555.089 351.772L547.281 337.116H539.537V351.9C539.537 352.369 539.388 352.753 539.089 353.052C538.79 353.351 538.406 353.5 537.937 353.5H530.961ZM539.537 328.988H547.729C550.076 328.988 551.804 328.455 552.913 327.388C554.065 326.321 554.641 324.828 554.641 322.908C554.641 320.988 554.086 319.473 552.977 318.364C551.868 317.255 550.118 316.7 547.729 316.7H539.537V328.988Z" fill="black" fill-opacity="0.5"/>
</svg>
