<svg width="466" height="438" viewBox="0 0 466 438" fill="none" xmlns="http://www.w3.org/2000/svg">
<path d="M235 8C235 3.58172 238.582 0 243 0H458C462.418 0 466 3.58172 466 8V42C466 46.4183 462.418 50 458 50H235V8Z" fill="black"/>
<path d="M235 53H458C462.418 53 466 56.5817 466 61V90C466 94.4183 462.418 98 458 98H235V53Z" fill="black"/>
<path d="M235 101H458C462.418 101 466 104.582 466 109V138C466 142.418 462.418 146 458 146H243C238.582 146 235 142.418 235 138V101Z" fill="black"/>
<path d="M235 8C235 3.58172 238.582 0 243 0H404V146H243C238.582 146 235 142.418 235 138V8Z" fill="black"/>
<path d="M0 8C0 3.58172 3.58172 0 8 0H223C227.418 0 231 3.58172 231 8V56C231 60.4183 227.418 64 223 64H8C3.58172 64 0 60.4183 0 56V8Z" fill="black"/>
<path d="M157 0V138C157 142.418 153.418 146 149 146H80C75.5817 146 72 142.418 72 138V0L157 0Z" fill="black"/>
<rect x="466" y="150" width="49" height="231" rx="8" transform="rotate(90 466 150)" fill="black"/>
<rect x="466" y="203" width="93" height="231" rx="8" transform="rotate(90 466 203)" fill="black"/>
<rect x="115" y="151" width="146" height="115" rx="8" transform="rotate(90 115 151)" fill="black"/>
<path d="M115 223H223C227.418 223 231 219.418 231 215V188H115V223Z" fill="black"/>
<path d="M231 188V159C231 154.582 227.418 151 223 151H127C122.582 151 119 154.582 119 159V188H231Z" fill="black"/>
<path d="M115 227H223C227.418 227 231 230.582 231 235V262H115V227Z" fill="black"/>
<path d="M231 262V289C231 293.418 227.418 297 223 297H127C122.582 297 119 293.418 119 289V262H231Z" fill="black"/>
<path d="M0 309C0 304.582 3.58172 301 8 301H107C111.418 301 115 304.582 115 309V373H0V309Z" fill="black"/>
<path d="M0 373H223C227.418 373 231 376.582 231 381V430C231 434.418 227.418 438 223 438H8C3.58172 438 0 434.418 0 430V373Z" fill="black"/>
<path d="M235 389H348V430C348 434.418 344.418 438 340 438H243C238.582 438 235 434.418 235 430V389Z" fill="black"/>
<path d="M352 389H466V430C466 434.418 462.418 438 458 438H360.838C356.484 438 352.929 434.517 352.84 430.163L352 389Z" fill="black"/>
<path fill-rule="evenodd" clip-rule="evenodd" d="M301.15 301C298.548 301 296.108 302.265 294.61 304.392L235 389H466L411.365 304.651C409.89 302.374 407.363 301 404.65 301H301.15ZM352 358V331H348V358H352Z" fill="black"/>
</svg>
