<svg width="380" height="438" viewBox="0 0 380 438" fill="none" xmlns="http://www.w3.org/2000/svg">
<path d="M191.631 8C191.631 3.58172 194.552 0 198.154 0H373.476C377.079 0 380 3.58172 380 8V42C380 46.4183 377.079 50 373.476 50H191.631V8Z" fill="black"/>
<path d="M191.631 53H373.476C377.079 53 380 56.5817 380 61V90C380 94.4183 377.079 98 373.476 98H191.631V53Z" fill="black"/>
<path d="M191.631 101H373.476C377.079 101 380 104.582 380 109V138C380 142.418 377.079 146 373.476 146H198.154C194.552 146 191.631 142.418 191.631 138V101Z" fill="black"/>
<path d="M191.631 8C191.631 3.58172 194.552 0 198.154 0H329.442V146H198.154C194.552 146 191.631 142.418 191.631 138V8Z" fill="black"/>
<path d="M0 8C0 3.58172 2.92072 0 6.52361 0H181.845C185.448 0 188.369 3.58172 188.369 8V56C188.369 60.4183 185.448 64 181.845 64H6.5236C2.92072 64 0 60.4183 0 56V8Z" fill="black"/>
<path d="M128.026 0V138C128.026 142.418 125.105 146 121.502 146H65.2361C61.6332 146 58.7124 142.418 58.7124 138V0L128.026 0Z" fill="black"/>
<rect x="380" y="150" width="49" height="188.369" rx="8" transform="rotate(90 380 150)" fill="black"/>
<rect x="380" y="203" width="93" height="188.369" rx="8" transform="rotate(90 380 203)" fill="black"/>
<rect x="93.7769" y="151" width="146" height="93.7768" rx="8" transform="rotate(90 93.7769 151)" fill="black"/>
<path d="M93.7769 223H180.369C184.787 223 188.369 219.418 188.369 215V188H93.7769V223Z" fill="black"/>
<path d="M188.369 188V159C188.369 154.582 184.787 151 180.369 151H105.039C100.62 151 97.0387 154.582 97.0387 159V188H188.369Z" fill="black"/>
<path d="M93.7769 227H180.369C184.787 227 188.369 230.582 188.369 235V262H93.7769V227Z" fill="black"/>
<path d="M188.369 262V289C188.369 293.418 184.787 297 180.369 297H105.039C100.62 297 97.0387 293.418 97.0387 289V262H188.369Z" fill="black"/>
<path d="M0 309C0 304.582 3.58172 301 8 301H85.7768C90.1951 301 93.7768 304.582 93.7768 309V373H0V309Z" fill="black"/>
<path d="M0 373H180.369C184.787 373 188.369 376.582 188.369 381V430C188.369 434.418 184.787 438 180.369 438H8C3.58172 438 0 434.418 0 430V373Z" fill="black"/>
<path d="M191.631 389H283.777V430C283.777 434.418 280.856 438 277.253 438H198.154C194.552 438 191.631 434.418 191.631 430V389Z" fill="black"/>
<path d="M287.039 389H380V430C380 434.418 377.079 438 373.476 438H294.246C290.695 438 287.796 434.517 287.724 430.163L287.039 389Z" fill="black"/>
<path fill-rule="evenodd" clip-rule="evenodd" d="M245.573 301C243.451 301 241.462 302.265 240.24 304.392L191.631 389H380L335.448 304.651C334.245 302.374 332.184 301 329.972 301H245.573ZM287.039 358V331H283.777V358H287.039Z" fill="black"/>
</svg>
