<svg width="19" height="16" viewBox="0 0 19 16" fill="none" xmlns="http://www.w3.org/2000/svg">
<path d="M2.02037 16C1.45581 16 0.977941 15.8353 0.586765 15.5059C0.195588 15.1765 0 14.774 0 14.2986V1.70137C0 1.22595 0.195588 0.823532 0.586765 0.494119C0.977941 0.164706 1.45581 0 2.02037 0H16.9796C17.5441 0 18.022 0.164706 18.4132 0.494119C18.8044 0.823532 18.9999 1.22595 18.9999 1.70137V14.2986C18.9999 14.774 18.8044 15.1765 18.4132 15.5059C18.022 15.8353 17.5441 16 16.9796 16H2.02037ZM2.02037 14.5883H16.9796C17.0656 14.5883 17.1444 14.5581 17.216 14.4978C17.2877 14.4374 17.3235 14.371 17.3235 14.2986V3.5H1.67644V14.2986C1.67644 14.371 1.71226 14.4374 1.7839 14.4978C1.85556 14.5581 1.93439 14.5883 2.02037 14.5883Z" fill="#202020"/>
<path d="M9.19119 12.2033V9.18229L6.61764 7.65065V10.5984C6.61764 10.6201 6.62292 10.6404 6.63348 10.6594C6.64404 10.6784 6.65987 10.6947 6.68099 10.7083L9.19119 12.2033ZM9.80881 12.2033L12.319 10.7083C12.3401 10.6947 12.356 10.6784 12.3665 10.6594C12.3771 10.6404 12.3824 10.6201 12.3824 10.5984V7.65065L9.80881 9.18229V12.2033ZM9.5 8.63541L12.0427 7.12492L9.56335 5.65106C9.54223 5.63749 9.52112 5.63071 9.5 5.63071C9.47888 5.63071 9.45777 5.63749 9.43665 5.65106L6.95733 7.12492L9.5 8.63541ZM6.37217 11.2657C6.25498 11.1963 6.16365 11.1035 6.0982 10.9874C6.03273 10.8713 6 10.7438 6 10.6049V7.39511C6 7.25622 6.03273 7.12872 6.0982 7.01262C6.16365 6.89651 6.25498 6.80373 6.37217 6.73428L9.12783 5.10417C9.24502 5.03472 9.36908 5 9.5 5C9.63092 5 9.75498 5.03472 9.87217 5.10417L12.6278 6.73428C12.745 6.80373 12.8363 6.89651 12.9018 7.01262C12.9673 7.12872 13 7.25622 13 7.39511V10.6049C13 10.7438 12.9673 10.8713 12.9018 10.9874C12.8363 11.1035 12.745 11.1963 12.6278 11.2657L9.87217 12.8958C9.75498 12.9653 9.63092 13 9.5 13C9.36908 13 9.24502 12.9653 9.12783 12.8958L6.37217 11.2657Z" fill="#202020"/>
</svg>
