<svg width="17" height="19" viewBox="0 0 17 19" fill="none" xmlns="http://www.w3.org/2000/svg">
<path d="M7.75 17.0211V9.88263L1.49997 6.2634V13.2288C1.49997 13.2801 1.5128 13.3282 1.53845 13.373C1.56408 13.4179 1.60254 13.4564 1.65383 13.4884L7.75 17.0211ZM9.24995 17.0211L15.3461 13.4884C15.3974 13.4564 15.4359 13.4179 15.4615 13.373C15.4872 13.3282 15.5 13.2801 15.5 13.2288V6.2634L9.24995 9.88263V17.0211ZM8.49998 8.59035L14.675 5.02113L8.65383 1.53842C8.60254 1.50637 8.55126 1.49035 8.49998 1.49035C8.44869 1.49035 8.39741 1.50637 8.34613 1.53842L2.32495 5.02113L8.49998 8.59035ZM0.90385 14.8057C0.619233 14.6416 0.397441 14.4224 0.238475 14.148C0.0794913 13.8737 0 13.5724 0 13.2442V5.65957C0 5.33137 0.0794913 5.0301 0.238475 4.75575C0.397441 4.48138 0.619233 4.26215 0.90385 4.09805L7.59613 0.24615C7.88074 0.0820502 8.18203 0 8.49998 0C8.81793 0 9.11921 0.0820502 9.40383 0.24615L16.0961 4.09805C16.3807 4.26215 16.6025 4.48138 16.7615 4.75575C16.9205 5.0301 17 5.33137 17 5.65957V13.2442C17 13.5724 16.9205 13.8737 16.7615 14.148C16.6025 14.4224 16.3807 14.6416 16.0961 14.8057L9.40383 18.6576C9.11921 18.8217 8.81793 18.9038 8.49998 18.9038C8.18203 18.9038 7.88074 18.8217 7.59613 18.6576L0.90385 14.8057Z" fill="#202020"/>
</svg>
