<svg width="25" height="24" viewBox="0 0 25 24" fill="none" xmlns="http://www.w3.org/2000/svg">
<path fill-rule="evenodd" clip-rule="evenodd" d="M12.5001 21.6C12.3012 21.6 12.1104 21.5052 11.9697 21.3364C11.8291 21.1676 11.7501 20.9387 11.7501 20.7V5.59202L9.80007 8.11202C9.66481 8.28706 9.47714 8.39046 9.27835 8.39946C9.07956 8.40846 8.88594 8.32233 8.74007 8.16002C8.5942 7.99771 8.50804 7.77251 8.50053 7.53396C8.49303 7.29542 8.56481 7.06306 8.70007 6.88802L11.9501 2.68802C12.0203 2.59715 12.1054 2.52465 12.2 2.47507C12.2946 2.42549 12.3968 2.3999 12.5001 2.3999C12.6033 2.3999 12.7055 2.42549 12.8001 2.47507C12.8948 2.52465 12.9799 2.59715 13.0501 2.68802L16.3001 6.88802C16.4353 7.06306 16.5071 7.29542 16.4996 7.53396C16.4921 7.77251 16.4059 7.99771 16.2601 8.16002C16.1142 8.32233 15.9206 8.40846 15.7218 8.39946C15.523 8.39046 15.3353 8.28706 15.2001 8.11202L13.2501 5.59202V20.7C13.2501 20.9387 13.171 21.1676 13.0304 21.3364C12.8897 21.5052 12.699 21.6 12.5001 21.6Z" fill="#333333"/>
</svg>
