<svg width="33" height="32" viewBox="0 0 33 32" fill="none" xmlns="http://www.w3.org/2000/svg">
<g clip-path="url(#clip0_791_15)">
<path d="M20.5 27H12.5V17H11C9.01088 17 7.10322 16.2098 5.6967 14.8033C4.29018 13.3968 3.5 11.4891 3.5 9.5C3.5 8.83696 3.76339 8.20107 4.23223 7.73223C4.70107 7.26339 5.33696 7 6 7C6.66304 7 7.29893 7.26339 7.76777 7.73223C8.23661 8.20107 8.5 8.83696 8.5 9.5C8.5 9.8283 8.56466 10.1534 8.6903 10.4567C8.81594 10.76 9.00009 11.0356 9.23223 11.2678C9.70107 11.7366 10.337 12 11 12H12.5V7C12.5 5.93913 12.9214 4.92172 13.6716 4.17157C14.4217 3.42143 15.4391 3 16.5 3C17.5609 3 18.5783 3.42143 19.3284 4.17157C20.0786 4.92172 20.5 5.93913 20.5 7V17H22C22.3283 17 22.6534 16.9353 22.9567 16.8097C23.26 16.6841 23.5356 16.4999 23.7678 16.2678C23.9999 16.0356 24.1841 15.76 24.3097 15.4567C24.4353 15.1534 24.5 14.8283 24.5 14.5C24.5 13.837 24.7634 13.2011 25.2322 12.7322C25.7011 12.2634 26.337 12 27 12C27.663 12 28.2989 12.2634 28.7678 12.7322C29.2366 13.2011 29.5 13.837 29.5 14.5C29.5 16.4891 28.7098 18.3968 27.3033 19.8033C25.8968 21.2098 23.9891 22 22 22H20.5V27Z" fill="#fffdfa" stroke="#fffdfa" stroke-width="1.5" stroke-linecap="round" stroke-linejoin="round"/>
</g>
<defs>
<clipPath id="clip0_791_15">
<rect width="32" height="32" fill="white" transform="translate(0.5)"/>
</clipPath>
</defs>
</svg>
