<svg width="22" height="17" viewBox="0 0 22 17" fill="none" xmlns="http://www.w3.org/2000/svg">
<path d="M0 16.4999V14.9999H21.2307V16.4999H0ZM2.92308 13.9999C2.41794 13.9999 1.99038 13.8249 1.64038 13.4749C1.29038 13.1249 1.11537 12.6974 1.11537 12.1923V1.80768C1.11537 1.30256 1.29038 0.875 1.64038 0.525C1.99038 0.175 2.41794 0 2.92308 0H18.3076C18.8128 0 19.2403 0.175 19.5903 0.525C19.9403 0.875 20.1153 1.30256 20.1153 1.80768V12.1923C20.1153 12.6974 19.9403 13.1249 19.5903 13.4749C19.2403 13.8249 18.8128 13.9999 18.3076 13.9999H2.92308ZM2.92308 12.5H18.3076C18.3846 12.5 18.4551 12.4679 18.5192 12.4038C18.5833 12.3397 18.6154 12.2692 18.6154 12.1923V1.80768C18.6154 1.73074 18.5833 1.66023 18.5192 1.59613C18.4551 1.53201 18.3846 1.49995 18.3076 1.49995H2.92308C2.84614 1.49995 2.77562 1.53201 2.7115 1.59613C2.6474 1.66023 2.61535 1.73074 2.61535 1.80768V12.1923C2.61535 12.2692 2.6474 12.3397 2.7115 12.4038C2.77562 12.4679 2.84614 12.5 2.92308 12.5Z" fill="#202020"/>
</svg>
