<svg width="22" height="17" viewBox="0 0 22 17" fill="none" xmlns="http://www.w3.org/2000/svg">
<path d="M0 16.4999V14.9999H21.2307V16.4999H0ZM2.92308 13.9999C2.41794 13.9999 1.99038 13.8249 1.64038 13.4749C1.29038 13.1249 1.11537 12.6974 1.11537 12.1923V1.80768C1.11537 1.30256 1.29038 0.875 1.64038 0.525C1.99038 0.175 2.41794 0 2.92308 0H18.3076C18.8128 0 19.2403 0.175 19.5903 0.525C19.9403 0.875 20.1153 1.30256 20.1153 1.80768V12.1923C20.1153 12.6974 19.9403 13.1249 19.5903 13.4749C19.2403 13.8249 18.8128 13.9999 18.3076 13.9999H2.92308ZM2.92308 12.5H18.3076C18.3846 12.5 18.4551 12.4679 18.5192 12.4038C18.5833 12.3397 18.6154 12.2692 18.6154 12.1923V1.80768C18.6154 1.73074 18.5833 1.66023 18.5192 1.59613C18.4551 1.53201 18.3846 1.49995 18.3076 1.49995H2.92308C2.84614 1.49995 2.77562 1.53201 2.7115 1.59613C2.6474 1.66023 2.61535 1.73074 2.61535 1.80768V12.1923C2.61535 12.2692 2.6474 12.3397 2.7115 12.4038C2.77562 12.4679 2.84614 12.5 2.92308 12.5Z" fill="#202020"/>
<path d="M10.1912 10.2033V7.18229L7.61764 5.65065V8.59837C7.61764 8.62008 7.62292 8.64043 7.63348 8.65942C7.64404 8.67841 7.65987 8.69469 7.68099 8.70825L10.1912 10.2033ZM10.8088 10.2033L13.319 8.70825C13.3401 8.69469 13.356 8.67841 13.3665 8.65942C13.3771 8.64043 13.3824 8.62008 13.3824 8.59837V5.65065L10.8088 7.18229V10.2033ZM10.5 6.63541L13.0427 5.12492L10.5634 3.65106C10.5422 3.63749 10.5211 3.63071 10.5 3.63071C10.4789 3.63071 10.4578 3.63749 10.4366 3.65106L7.95733 5.12492L10.5 6.63541ZM7.37217 9.26572C7.25498 9.19627 7.16365 9.10349 7.0982 8.98738C7.03273 8.87128 7 8.74378 7 8.60489V5.39511C7 5.25622 7.03273 5.12872 7.0982 5.01262C7.16365 4.89651 7.25498 4.80373 7.37217 4.73428L10.1278 3.10417C10.245 3.03472 10.3691 3 10.5 3C10.6309 3 10.755 3.03472 10.8722 3.10417L13.6278 4.73428C13.745 4.80373 13.8363 4.89651 13.9018 5.01262C13.9673 5.12872 14 5.25622 14 5.39511V8.60489C14 8.74378 13.9673 8.87128 13.9018 8.98738C13.8363 9.10349 13.745 9.19627 13.6278 9.26572L10.8722 10.8958C10.755 10.9653 10.6309 11 10.5 11C10.3691 11 10.245 10.9653 10.1278 10.8958L7.37217 9.26572Z" fill="#202020"/>
</svg>
