<svg width="28" height="36" viewBox="0 0 28 36" fill="none" xmlns="http://www.w3.org/2000/svg">
<path d="M6.98845 28.7693H21.0116V27.2307H6.98845V28.7693ZM6.98845 20.5385H21.0116V19H6.98845V20.5385ZM2.7692 36C2.00063 36 1.34695 35.7306 0.80815 35.1919C0.269383 34.6531 0 33.9994 0 33.2308V2.7692C0 2.00063 0.269383 1.34695 0.80815 0.808151C1.34695 0.269385 2.00063 0 2.7692 0H19.4731L28 8.52695V33.2308C28 33.9994 27.7306 34.6531 27.1918 35.1919C26.653 35.7306 25.9994 36 25.2308 36H2.7692ZM18.7039 9.2231V1.53845H2.7692C2.46153 1.53845 2.17948 1.66665 1.92305 1.92305C1.66665 2.17948 1.53845 2.46153 1.53845 2.7692V33.2308C1.53845 33.5385 1.66665 33.8205 1.92305 34.077C2.17948 34.3334 2.46153 34.4616 2.7692 34.4616H25.2308C25.5385 34.4616 25.8205 34.3334 26.077 34.077C26.3334 33.8205 26.4616 33.5385 26.4616 33.2308V9.2231H18.7039Z" fill="#333333"/>
</svg>
