<svg width="24" height="24" viewBox="0 0 24 24" fill="none" xmlns="http://www.w3.org/2000/svg">
<rect x="3" y="3" width="18" height="18" rx="5" fill="#FFFDFA"/>
<path d="M16.725 7.1001C16.8908 7.1001 17.0497 7.16595 17.1669 7.28316C17.2842 7.40037 17.35 7.55934 17.35 7.7251C17.35 7.89086 17.2842 8.04983 17.1669 8.16704C17.0497 8.28425 16.8908 8.3501 16.725 8.3501C16.5592 8.3501 16.4003 8.28425 16.2831 8.16704C16.1658 8.04983 16.1 7.89086 16.1 7.7251C16.1 7.55934 16.1658 7.40037 16.2831 7.28316C16.4003 7.16595 16.5592 7.1001 16.725 7.1001ZM12 8.4501C13.0609 8.4501 14.0783 8.87152 14.8284 9.62167C15.5786 10.3718 16 11.3892 16 12.4501C16 13.511 15.5786 14.5284 14.8284 15.2785C14.0783 16.0287 13.0609 16.4501 12 16.4501C10.9391 16.4501 9.92172 16.0287 9.17157 15.2785C8.42143 14.5284 8 13.511 8 12.4501C8 11.3892 8.42143 10.3718 9.17157 9.62167C9.92172 8.87152 10.9391 8.4501 12 8.4501ZM12 9.2501C11.1513 9.2501 10.3374 9.58724 9.73726 10.1874C9.13714 10.7875 8.8 11.6014 8.8 12.4501C8.8 13.2988 9.13714 14.1127 9.73726 14.7128C10.3374 15.313 11.1513 15.6501 12 15.6501C12.8487 15.6501 13.6626 15.313 14.2627 14.7128C14.8629 14.1127 15.2 13.2988 15.2 12.4501C15.2 11.6014 14.8629 10.7875 14.2627 10.1874C13.6626 9.58724 12.8487 9.2501 12 9.2501Z" fill="#FFFDFA" stroke="#202020"/>
</svg>
