<svg width="50" height="36" viewBox="0 0 50 36" fill="none" xmlns="http://www.w3.org/2000/svg">
<path d="M22.3125 22.2128L33.9375 10.4681L32.9375 9.44681L22.3125 20.2979L17 14.8723L16 15.8936L22.3125 22.2128ZM0 36V34.5957H50V36H0ZM6.625 31.6596C5.67604 31.6596 4.87631 31.3274 4.22581 30.6631C3.57527 29.9987 3.25 29.1819 3.25 28.2128V3.44681C3.25 2.47766 3.57527 1.66089 4.22581 0.996511C4.87631 0.33217 5.67604 0 6.625 0H43.375C44.324 0 45.1237 0.33217 45.7743 0.996511C46.4248 1.66089 46.75 2.47766 46.75 3.44681V28.2128C46.75 29.1819 46.4248 29.9987 45.7743 30.6631C45.1237 31.3274 44.324 31.6596 43.375 31.6596H6.625ZM6.625 30.2553H43.375C43.875 30.2553 44.3333 30.0426 44.75 29.617C45.1667 29.1915 45.375 28.7234 45.375 28.2128V3.44681C45.375 2.93617 45.1667 2.46809 44.75 2.04255C44.3333 1.61702 43.875 1.40426 43.375 1.40426H6.625C6.125 1.40426 5.66667 1.61702 5.25 2.04255C4.83333 2.46809 4.625 2.93617 4.625 3.44681V28.2128C4.625 28.7234 4.83333 29.1915 5.25 29.617C5.66667 30.0426 6.125 30.2553 6.625 30.2553Z" fill="#202020"/>
</svg>
