<svg width="46" height="36" viewBox="0 0 46 36" fill="none" xmlns="http://www.w3.org/2000/svg">
<path d="M0 36V33.7414H5.40401V3.69582C5.40401 2.71483 5.75248 1.85361 6.44942 1.11217C7.14632 0.370722 7.9841 0 8.96275 0H45.0774V1.5057H8.96275C8.34766 1.5057 7.84241 1.71103 7.44699 2.12167C7.05158 2.53232 6.85387 3.05703 6.85387 3.69582V33.7414H20.8252V36H0ZM32.8387 36C32.3173 36 31.8763 35.7947 31.5155 35.384C31.1546 34.9734 30.9742 34.5171 30.9742 34.0152V11.2243C30.9742 10.6962 31.1546 10.2448 31.5155 9.87009C31.8763 9.49535 32.3173 9.30798 32.8387 9.30798H43.9214C44.4724 9.30798 44.9565 9.48563 45.3739 9.84093C45.7913 10.1963 46 10.6574 46 11.2243V34.009C46 34.5321 45.8023 34.9946 45.4069 35.3968C45.0115 35.7989 44.5218 36 43.9378 36H32.8387ZM32.4241 33.7414H44.5501V10.8137H32.4241V33.7414Z" fill="#202020"/>
</svg>
