<svg width="19" height="18" viewBox="0 0 25 24" fill="none" xmlns="http://www.w3.org/2000/svg">
<path fill-rule="evenodd" clip-rule="evenodd" d="M9.49995 4.5C9.66291 4.50003 9.82143 4.55315 9.95152 4.6513C10.0816 4.74945 10.1762 4.8873 10.2209 5.044L11.0339 7.89C11.209 8.50292 11.5374 9.0611 11.9881 9.51183C12.4388 9.96255 12.997 10.291 13.6099 10.466L16.4559 11.279C16.6125 11.3239 16.7503 11.4185 16.8483 11.5486C16.9464 11.6786 16.9994 11.8371 16.9994 12C16.9994 12.1629 16.9464 12.3214 16.8483 12.4514C16.7503 12.5815 16.6125 12.6761 16.4559 12.721L13.6099 13.534C12.997 13.709 12.4388 14.0374 11.9881 14.4882C11.5374 14.9389 11.209 15.4971 11.0339 16.11L10.2209 18.956C10.1761 19.1126 10.0815 19.2503 9.95139 19.3484C9.82131 19.4464 9.66284 19.4995 9.49995 19.4995C9.33705 19.4995 9.17859 19.4464 9.04851 19.3484C8.91843 19.2503 8.82381 19.1126 8.77895 18.956L7.96595 16.11C7.7909 15.4971 7.4625 14.9389 7.01178 14.4882C6.56105 14.0374 6.00287 13.709 5.38995 13.534L2.54395 12.721C2.38735 12.6761 2.24962 12.5815 2.15157 12.4514C2.05352 12.3214 2.00049 12.1629 2.00049 12C2.00049 11.8371 2.05352 11.6786 2.15157 11.5486C2.24962 11.4185 2.38735 11.3239 2.54395 11.279L5.38995 10.466C6.00287 10.291 6.56105 9.96255 7.01178 9.51183C7.4625 9.0611 7.7909 8.50292 7.96595 7.89L8.77895 5.044C8.82371 4.8873 8.91829 4.74945 9.04838 4.6513C9.17847 4.55315 9.33698 4.50003 9.49995 4.5ZM18.4999 1.5C18.6673 1.49991 18.8298 1.55576 18.9617 1.65869C19.0936 1.76161 19.1873 1.90569 19.2279 2.068L19.4859 3.104C19.7219 4.044 20.4559 4.778 21.3959 5.014L22.4319 5.272C22.5946 5.31228 22.739 5.40586 22.8423 5.5378C22.9455 5.66974 23.0016 5.83246 23.0016 6C23.0016 6.16754 22.9455 6.33026 22.8423 6.4622C22.739 6.59414 22.5946 6.68772 22.4319 6.728L21.3959 6.986C20.4559 7.222 19.7219 7.956 19.4859 8.896L19.2279 9.932C19.1877 10.0946 19.0941 10.2391 18.9621 10.3423C18.8302 10.4456 18.6675 10.5017 18.4999 10.5017C18.3324 10.5017 18.1697 10.4456 18.0377 10.3423C17.9058 10.2391 17.8122 10.0946 17.7719 9.932L17.5139 8.896C17.3986 8.43443 17.1599 8.0129 16.8235 7.67648C16.487 7.34005 16.0655 7.10139 15.6039 6.986L14.5679 6.728C14.4053 6.68772 14.2609 6.59414 14.1576 6.4622C14.0544 6.33026 13.9983 6.16754 13.9983 6C13.9983 5.83246 14.0544 5.66974 14.1576 5.5378C14.2609 5.40586 14.4053 5.31228 14.5679 5.272L15.6039 5.014C16.0655 4.89861 16.487 4.65995 16.8235 4.32352C17.1599 3.9871 17.3986 3.56557 17.5139 3.104L17.7719 2.068C17.8125 1.90569 17.9063 1.76161 18.0382 1.65869C18.1701 1.55576 18.3326 1.49991 18.4999 1.5ZM16.9999 15C17.1575 14.9999 17.311 15.0494 17.4388 15.1415C17.5666 15.2336 17.6622 15.3636 17.7119 15.513L18.1059 16.696C18.2559 17.143 18.6059 17.495 19.0539 17.644L20.2369 18.039C20.3859 18.089 20.5154 18.1845 20.6071 18.3121C20.6989 18.4397 20.7482 18.5929 20.7482 18.75C20.7482 18.9071 20.6989 19.0603 20.6071 19.1879C20.5154 19.3155 20.3859 19.411 20.2369 19.461L19.0539 19.856C18.6069 20.006 18.2549 20.356 18.1059 20.804L17.7109 21.987C17.6609 22.136 17.5654 22.2655 17.4378 22.3572C17.3103 22.4489 17.1571 22.4983 16.9999 22.4983C16.8428 22.4983 16.6896 22.4489 16.5621 22.3572C16.4345 22.2655 16.339 22.136 16.2889 21.987L15.8939 20.804C15.8203 20.5833 15.6963 20.3827 15.5318 20.2182C15.3672 20.0537 15.1667 19.9297 14.9459 19.856L13.7629 19.461C13.614 19.411 13.4845 19.3155 13.3927 19.1879C13.301 19.0603 13.2516 18.9071 13.2516 18.75C13.2516 18.5929 13.301 18.4397 13.3927 18.3121C13.4845 18.1845 13.614 18.089 13.7629 18.039L14.9459 17.644C15.3929 17.494 15.7449 17.144 15.8939 16.696L16.2889 15.513C16.3387 15.3637 16.4341 15.2339 16.5617 15.1418C16.6893 15.0497 16.8426 15.0001 16.9999 15Z" fill="#333333"/>
</svg>
