<svg width="20" height="18" viewBox="0 0 20 18" fill="none" xmlns="http://www.w3.org/2000/svg">
<path d="M18.5614 7.72305V15.6923C18.5614 16.1974 18.3864 16.625 18.0364 16.975C17.6864 17.325 17.2588 17.5 16.7537 17.5H2.86905C2.36394 17.5 1.93638 17.325 1.58638 16.975C1.23638 16.625 1.06138 16.1974 1.06138 15.6923V7.70383C0.658812 7.37304 0.356562 6.94388 0.154628 6.41633C-0.0472883 5.88876 -0.051455 5.31921 0.142128 4.70768L1.15368 1.40383C1.28701 0.983325 1.5133 0.644225 1.83253 0.386525C2.15176 0.128842 2.53317 0 2.97675 0H16.6267C17.0703 0 17.4492 0.123076 17.7633 0.369226C18.0774 0.615376 18.3062 0.953834 18.4498 1.3846L19.4806 4.70768C19.6742 5.31921 19.67 5.88683 19.4681 6.41055C19.2662 6.93427 18.9639 7.37177 18.5614 7.72305ZM12.0114 7C12.5575 7 12.9681 6.83301 13.2431 6.49903C13.5181 6.16506 13.6306 5.80641 13.5806 5.42308L12.9729 1.49995H10.5614V5.44998C10.5614 5.87049 10.7037 6.23396 10.9883 6.54038C11.2729 6.84679 11.6139 7 12.0114 7ZM7.51135 7C7.97162 7 8.34503 6.84679 8.63158 6.54038C8.91811 6.23396 9.06138 5.87049 9.06138 5.44998V1.49995H6.6498L6.0421 5.46153C5.98827 5.81666 6.09981 6.16185 6.37673 6.4971C6.65366 6.83237 7.03187 7 7.51135 7ZM3.06135 7C3.43187 7 3.75047 6.87083 4.01715 6.6125C4.28382 6.35415 4.44856 6.02947 4.51138 5.63845L5.09985 1.49995H2.97675C2.86777 1.49995 2.78123 1.52399 2.71713 1.57208C2.65301 1.62016 2.60493 1.69228 2.57288 1.78845L1.61135 5.04228C1.47929 5.47178 1.54146 5.90543 1.79788 6.34325C2.0543 6.78109 2.47545 7 3.06135 7ZM16.5614 7C17.1024 7 17.5165 6.7875 17.8037 6.3625C18.0909 5.93748 18.1601 5.49741 18.0114 5.04228L16.9999 1.7692C16.9678 1.67305 16.9197 1.60413 16.8556 1.56245C16.7915 1.52078 16.705 1.49995 16.596 1.49995H14.5229L15.1114 5.63845C15.1742 6.02947 15.3389 6.35415 15.6056 6.6125C15.8722 6.87083 16.1908 7 16.5614 7ZM2.86905 16H16.7537C16.8434 16 16.9171 15.9712 16.9748 15.9135C17.0325 15.8558 17.0614 15.782 17.0614 15.6923V8.4115C16.9524 8.45123 16.8614 8.47591 16.7883 8.48553C16.7152 8.49514 16.6396 8.49995 16.5614 8.49995C16.1114 8.49995 15.7155 8.41854 15.3739 8.25573C15.0322 8.09291 14.7011 7.83201 14.3806 7.47303C14.0998 7.78584 13.7678 8.0352 13.3845 8.2211C13.0011 8.407 12.5639 8.49995 12.0729 8.49995C11.6485 8.49995 11.2485 8.41181 10.8729 8.23553C10.4973 8.05924 10.1434 7.80508 9.81135 7.47303C9.50239 7.80508 9.15239 8.05924 8.76135 8.23553C8.37034 8.41181 7.97419 8.49995 7.5729 8.49995C7.12162 8.49995 6.69855 8.41823 6.30368 8.25478C5.9088 8.09131 5.56135 7.83073 5.26135 7.47303C4.84084 7.89354 4.45334 8.16983 4.09885 8.30188C3.74437 8.43393 3.39854 8.49995 3.06135 8.49995C2.98315 8.49995 2.90239 8.49514 2.81905 8.48553C2.7357 8.47591 2.6498 8.45123 2.56135 8.4115V15.6923C2.56135 15.782 2.5902 15.8558 2.64788 15.9135C2.70558 15.9712 2.7793 16 2.86905 16Z" fill="#202020"/>
</svg>
