<svg width="25" height="24" viewBox="0 0 25 24" fill="none" xmlns="http://www.w3.org/2000/svg">
<mask id="mask0_793_24" style="mask-type:alpha" maskUnits="userSpaceOnUse" x="0" y="0" width="25" height="24">
<rect x="0.5" width="24" height="24" fill="#D9D9D9"/>
</mask>
<g mask="url(#mask0_793_24)">
<path d="M15.9731 16.5269L17.0269 15.4731L13.25 11.6959V7.00001H11.75V12.3039L15.9731 16.5269ZM12.5016 21.5C11.1877 21.5 9.95268 21.2506 8.79655 20.752C7.6404 20.2533 6.63472 19.5766 5.7795 18.7217C4.92427 17.8669 4.24721 16.8616 3.74833 15.706C3.24944 14.5504 3 13.3156 3 12.0017C3 10.6877 3.24933 9.45271 3.748 8.29658C4.24667 7.14043 4.92342 6.13475 5.77825 5.27953C6.6331 4.4243 7.63834 3.74724 8.79398 3.24836C9.94959 2.74947 11.1844 2.50003 12.4983 2.50003C13.8122 2.50003 15.0473 2.74936 16.2034 3.24803C17.3596 3.7467 18.3652 4.42345 19.2205 5.27828C20.0757 6.13313 20.7527 7.13837 21.2516 8.29401C21.7505 9.44962 22 10.6844 22 11.9983C22 13.3123 21.7506 14.5473 21.252 15.7034C20.7533 16.8596 20.0765 17.8653 19.2217 18.7205C18.3669 19.5757 17.3616 20.2528 16.206 20.7517C15.0504 21.2505 13.8156 21.5 12.5016 21.5ZM12.5 20C14.7166 20 16.6041 19.2208 18.1625 17.6625C19.7208 16.1042 20.5 14.2167 20.5 12C20.5 9.78334 19.7208 7.89584 18.1625 6.33751C16.6041 4.77917 14.7166 4.00001 12.5 4.00001C10.2833 4.00001 8.39581 4.77917 6.83748 6.33751C5.27914 7.89584 4.49998 9.78334 4.49998 12C4.49998 14.2167 5.27914 16.1042 6.83748 17.6625C8.39581 19.2208 10.2833 20 12.5 20Z" fill="#fffdfa"/>
</g>
</svg>
