<svg width="32" height="32" viewBox="0 0 32 32" fill="none" xmlns="http://www.w3.org/2000/svg">
<path d="M2.7692 32C2.00063 32 1.34695 31.7306 0.80815 31.1919C0.269383 30.6531 0 29.9994 0 29.2308V2.7692C0 2.00063 0.269383 1.34695 0.80815 0.808151C1.34695 0.269385 2.00063 0 2.7692 0H29.2308C29.9994 0 30.653 0.269385 31.1918 0.808151C31.7306 1.34695 32 2.00063 32 2.7692V29.2308C32 29.9994 31.7306 30.6531 31.1918 31.1919C30.653 31.7306 29.9994 32 29.2308 32H2.7692ZM1.53845 2.7692V29.2308C1.53845 29.5385 1.66665 29.8205 1.92305 30.077C2.17948 30.3334 2.46153 30.4616 2.7692 30.4616H29.2308C29.5385 30.4616 29.8205 30.3334 30.077 30.077C30.3334 29.8205 30.4616 29.5385 30.4616 29.2308V2.7692C30.4616 2.46153 30.3334 2.17948 30.077 1.92305C29.8205 1.66665 29.5385 1.53845 29.2308 1.53845H24.9154V13.7577L20.9384 11.3846L17 13.7577V1.53845H2.7692C2.46153 1.53845 2.17948 1.66665 1.92305 1.92305C1.66665 2.17948 1.53845 2.46153 1.53845 2.7692Z" fill="#202020"/>
</svg>
