{
	"asset":{
		"generator":"Khronos glTF Blender I/O v4.0.44",
		"version":"2.0"
	},
	"scene":0,
	"scenes":[
		{
			"name":"Scene",
			"nodes":[
				0,
				1
			]
		}
	],
	"nodes":[
		{
			"mesh":0,
			"name":"Cube",
			"rotation":[
				-0.28706035017967224,
				-0.203318253159523,
				0.7638898491859436,
				0.5410456657409668
			],
			"scale":[
				-0.1061297059059143,
				-0.005944852717220783,
				-0.051866210997104645
			],
			"translation":[
				0.39530444145202637,
				-0.000945031177252531,
				-0.04997383803129196
			]
		},
		{
			"mesh":1,
			"name":"Cube.003",
			"rotation":[
				0.16079509258270264,
				0.1885707676410675,
				0.6286026835441589,
				0.7371870279312134
			],
			"scale":[
				0.17173464596271515,
				0.00961971189826727,
				0.12348747253417969
			],
			"translation":[
				-0.39552778005599976,
				0.011585725471377373,
				-0.035148441791534424
			]
		}
	],
	"materials":[
		{
			"doubleSided":true,
			"name":"Material",
			"pbrMetallicRoughness":{
				"baseColorFactor":[
					0.4970163106918335,
					0.44518154859542847,
					0.8147876262664795,
					1
				],
				"metallicFactor":0,
				"roughnessFactor":0.5
			}
		},
		{
			"doubleSided":true,
			"name":"Material.002",
			"pbrMetallicRoughness":{}
		}
	],
	"meshes":[
		{
			"name":"Cube",
			"primitives":[
				{
					"attributes":{
						"POSITION":0,
						"NORMAL":1,
						"TEXCOORD_0":2
					},
					"indices":3,
					"material":0
				}
			]
		},
		{
			"name":"Cube.004",
			"primitives":[
				{
					"attributes":{
						"POSITION":4,
						"NORMAL":5,
						"TEXCOORD_0":6
					},
					"indices":7,
					"material":1
				}
			]
		}
	],
	"accessors":[
		{
			"bufferView":0,
			"componentType":5126,
			"count":5182,
			"max":[
				1,
				1.200455665588379,
				1
			],
			"min":[
				-1,
				-1.4807753562927246,
				-1
			],
			"type":"VEC3"
		},
		{
			"bufferView":1,
			"componentType":5126,
			"count":5182,
			"type":"VEC3"
		},
		{
			"bufferView":2,
			"componentType":5126,
			"count":5182,
			"type":"VEC2"
		},
		{
			"bufferView":3,
			"componentType":5123,
			"count":13680,
			"type":"SCALAR"
		},
		{
			"bufferView":4,
			"componentType":5126,
			"count":5224,
			"max":[
				1,
				1.2141947746276855,
				1
			],
			"min":[
				-1,
				-1.4438241720199585,
				-1
			],
			"type":"VEC3"
		},
		{
			"bufferView":5,
			"componentType":5126,
			"count":5224,
			"type":"VEC3"
		},
		{
			"bufferView":6,
			"componentType":5126,
			"count":5224,
			"type":"VEC2"
		},
		{
			"bufferView":7,
			"componentType":5123,
			"count":13680,
			"type":"SCALAR"
		}
	],
	"bufferViews":[
		{
			"buffer":0,
			"byteLength":62184,
			"byteOffset":0,
			"target":34962
		},
		{
			"buffer":0,
			"byteLength":62184,
			"byteOffset":62184,
			"target":34962
		},
		{
			"buffer":0,
			"byteLength":41456,
			"byteOffset":124368,
			"target":34962
		},
		{
			"buffer":0,
			"byteLength":27360,
			"byteOffset":165824,
			"target":34963
		},
		{
			"buffer":0,
			"byteLength":62688,
			"byteOffset":193184,
			"target":34962
		},
		{
			"buffer":0,
			"byteLength":62688,
			"byteOffset":255872,
			"target":34962
		},
		{
			"buffer":0,
			"byteLength":41792,
			"byteOffset":318560,
			"target":34962
		},
		{
			"buffer":0,
			"byteLength":27360,
			"byteOffset":360352,
			"target":34963
		}
	],
	"buffers":[
		{
			"byteLength":387712,
			"uri":"iphone12.bin"
		}
	]
}
